<?xml version="1.0" encoding="UTF-8" standalone="no"?>
<!-- Uploaded to: SVG Repo, www.svgrepo.com, Generator: SVG Repo Mixer Tools -->

<svg
   width="800px"
   height="800px"
   viewBox="0 0 24 24"
   fill="none"
   version="1.1"
   id="svg2"
   sodipodi:docname="back-to-record.svg"
   inkscape:version="1.3 (0e150ed6c4, 2023-07-21)"
   xmlns:inkscape="http://www.inkscape.org/namespaces/inkscape"
   xmlns:sodipodi="http://sodipodi.sourceforge.net/DTD/sodipodi-0.dtd"
   xmlns="http://www.w3.org/2000/svg"
   xmlns:svg="http://www.w3.org/2000/svg">
  <defs
     id="defs2" />
  <sodipodi:namedview
     id="namedview2"
     pagecolor="#505050"
     bordercolor="#eeeeee"
     borderopacity="1"
     inkscape:showpageshadow="0"
     inkscape:pageopacity="0"
     inkscape:pagecheckerboard="0"
     inkscape:deskcolor="#505050"
     inkscape:zoom="1.00625"
     inkscape:cx="317.51553"
     inkscape:cy="394.03727"
     inkscape:window-width="1920"
     inkscape:window-height="1011"
     inkscape:window-x="0"
     inkscape:window-y="0"
     inkscape:window-maximized="1"
     inkscape:current-layer="svg2" />
  <path
     fill-rule="evenodd"
     clip-rule="evenodd"
     d="M 14.512105,13.293072 V 9.835113 c 0,-0.954887 -0.929707,-1.884588 -1.884588,-1.884588 -0.95488,0 -1.884588,0.929701 -1.884588,1.884588 v 3.457959 c 0,0.954881 0.929708,1.884588 1.884588,1.884588 0.954881,0 1.884588,-0.929707 1.884588,-1.884588 z M 12.627517,6.7229498 c -1.718799,0 -3.112163,1.3933642 -3.112163,3.1121632 v 3.457959 c 0,1.718814 1.393364,3.112164 3.112163,3.112164 1.718814,0 3.112164,-1.39335 3.112164,-3.112164 V 9.835113 c 0,-1.718799 -1.39335,-3.1121632 -3.112164,-3.1121632 z"
     fill="#0f0f0f"
     id="path1"
     style="fill:#e2e2e2;fill-opacity:1;stroke-width:0.62417;stroke-dasharray:none"
     sodipodi:nodetypes="ssssssssssssss" />
  <path
     d="m 12.627521,16.733743 c -3.371514,0 -3.371514,-2.766368 -3.371514,-2.766368 0,0 10e-6,-0.553273 -0.518684,-0.553273 -0.518694,0 -0.518704,0.553273 -0.518704,0.553273 0,0 0.02082,3.562086 3.890209,3.853938 v 1.678798 c 0,0.305573 0.232219,0.553273 0.518693,0.553273 0.286475,0 0.518694,-0.2477 0.518694,-0.553273 v -1.678798 c 3.869405,-0.291852 3.890205,-3.853938 3.890205,-3.853938 0,0 0,-0.553273 -0.518694,-0.553273 -0.518694,0 -0.518694,0.553273 -0.518694,0.553273 0,0 0,2.766368 -3.371511,2.766368 z"
     fill="#0f0f0f"
     id="path2"
     style="fill:#e2e2e2;fill-opacity:1;stroke-width:0.535704"
     sodipodi:nodetypes="scsccsssccscs"
     inkscape:label="path2" />
  <path
     d="m 5.2714265,13.541634 v -1.72898 c 0,-4.2970014 3.2898855,-7.780409 7.3481645,-7.780409 4.058278,0 7.348164,3.4834076 7.348164,7.780409"
     id="path1-3"
     style="fill:none;fill-opacity:1;stroke:#e2e2e2;stroke-width:0.86449;stroke-opacity:1" />
  <polyline
     points="8 15 5 18 2 15"
     id="polyline1"
     transform="matrix(0.8644899,0,0,0.8644899,0.97666354,-1.5663674)"
     style="stroke:#e2e2e2;stroke-opacity:1" />
</svg>
