<?xml version="1.0" encoding="UTF-8" standalone="no"?>
<!-- Uploaded to: SVG Repo, www.svgrepo.com, Generator: SVG Repo Mixer Tools -->

<svg
   width="800px"
   height="800px"
   viewBox="0 0 24 24"
   fill="none"
   version="1.1"
   id="svg1"
   sodipodi:docname="cloud-download.svg"
   inkscape:version="1.3.2 (091e20e, 2023-11-25, custom)"
   xmlns:inkscape="http://www.inkscape.org/namespaces/inkscape"
   xmlns:sodipodi="http://sodipodi.sourceforge.net/DTD/sodipodi-0.dtd"
   xmlns="http://www.w3.org/2000/svg"
   xmlns:svg="http://www.w3.org/2000/svg">
  <defs
     id="defs1" />
  <sodipodi:namedview
     id="namedview1"
     pagecolor="#505050"
     bordercolor="#eeeeee"
     borderopacity="1"
     inkscape:showpageshadow="0"
     inkscape:pageopacity="0"
     inkscape:pagecheckerboard="0"
     inkscape:deskcolor="#505050"
     inkscape:zoom="1.00625"
     inkscape:cx="399.50311"
     inkscape:cy="400"
     inkscape:window-width="1920"
     inkscape:window-height="1009"
     inkscape:window-x="-8"
     inkscape:window-y="-8"
     inkscape:window-maximized="1"
     inkscape:current-layer="svg1" />
  <path
     d="M 6.3747203,16.282289 C 6.846678,16.262899 7.2135522,15.864579 7.1941663,15.392585 7.1747803,14.920594 6.7764665,14.553743 6.30452,14.573129 Z m -3.2694595,-3.8959 -0.8548653,-0.02611 c -6.614e-4,0.02167 -4.903e-4,0.04333 4.904e-4,0.065 z m 2.4271607,-2.945542 0.1730942,0.8376 C 6.102746,10.196337 6.387686,9.846481 6.387686,9.440847 Z m 0,-0.09579 -0.8543636,-0.03926 c -6.044e-4,0.01306 -9.02e-4,0.02617 -9.02e-4,0.03926 z M 8.7656634,6.3048768 8.730857,7.159434 c 0.012148,4.91e-4 0.024309,7.3e-4 0.036478,7.07e-4 z M 9.9519949,6.5158422 9.6559934,7.318251 c 0.4086226,0.150732 0.8652196,-0.02965 1.0604476,-0.41892 z m 4.0693041,-2.4916706 -0.01677,0.8550935 c 0.0178,3.535e-4 0.03558,1.482e-4 0.05325,-6.043e-4 z m 4.447374,4.1816724 0.855264,-7.29e-4 c 0,-0.01231 -2.27e-4,-0.02464 -8.09e-4,-0.03694 z m -0.184509,1.197371 -0.815238,-0.25854 c -0.07584,0.239029 -0.04287,0.499291 0.08997,0.711955 0.132964,0.212563 0.352596,0.356132 0.600624,0.392739 z m 2.610609,2.983174 0.854352,0.03888 c 0.001,-0.02258 0.0011,-0.04527 4.56e-4,-0.06785 z m -3.199259,2.18674 c -0.471992,-0.01939 -0.870203,0.347465 -0.889589,0.819456 -0.0195,0.471994 0.347465,0.870319 0.819343,0.889704 z m -6.550755,5.41599 c 0,0.472334 0.38293,0.855265 0.855263,0.855265 0.472334,0 0.855266,-0.382931 0.855266,-0.855265 z m 1.710529,-6.842116 c 0,-0.472333 -0.382932,-0.855263 -0.855266,-0.855263 -0.472333,0 -0.855263,0.38293 -0.855263,0.855263 z m -1.467635,6.245028 c -0.329789,0.338228 -0.322947,0.879782 0.01528,1.209458 0.338229,0.329789 0.879668,0.322947 1.209458,-0.01528 z m 3.448427,-1.086528 c 0.32979,-0.338228 0.322833,-0.879668 -0.01528,-1.209458 -0.338229,-0.329677 -0.879668,-0.322834 -1.20946,0.01528 z m -3.448427,2.280705 c 0.32979,0.338228 0.87123,0.34507 1.209458,0.01528 0.338115,-0.329675 0.345071,-0.871229 0.01528,-1.209457 z M 10.388705,17.111326 C 10.058949,16.773211 9.517475,16.766368 9.1792691,17.096041 8.8410632,17.42583 8.8342103,17.96727 9.1639541,18.305498 Z M 6.30452,14.573129 c -1.2193561,0.05006 -2.2854833,-0.922546 -2.3448728,-2.22574 l -1.7087613,0.07789 c 0.1004308,2.203275 1.9234669,3.947331 4.1238344,3.857014 z M 3.9601262,12.412502 C 3.992535,11.353458 4.7289633,10.480176 5.7055157,10.278447 L 5.3593275,8.603281 C 3.5803888,8.970919 2.3061588,10.537763 2.2503955,12.360275 Z M 6.387686,9.440847 c 0,-5.8e-5 0,-1.26e-4 0,-1.82e-4 0,-6.9e-5 0,-1.26e-4 0,-1.95e-4 0,-5.7e-5 0,-1.25e-4 0,-1.82e-4 0,-6.8e-5 0,-1.27e-4 0,-1.93e-4 0,-5.7e-5 0,-1.26e-4 0,-1.82e-4 0,-5.9e-5 0,-1.27e-4 0,-1.84e-4 0,-6.8e-5 0,-1.25e-4 0,-1.94e-4 0,-5.7e-5 0,-1.25e-4 0,-1.82e-4 0,-6.8e-5 0,-1.25e-4 0,-1.94e-4 0,-5.7e-5 0,-1.26e-4 0,-1.82e-4 0,-6.9e-5 0,-1.27e-4 0,-1.83e-4 0,-6.8e-5 0,-1.26e-4 0,-1.94e-4 0,-5.7e-5 0,-1.26e-4 0,-1.82e-4 0,-6.8e-5 0,-1.26e-4 0,-1.95e-4 0,-5.7e-5 0,-1.25e-4 0,-1.82e-4 0,-6.7e-5 0,-1.25e-4 0,-1.82e-4 0,-6.8e-5 0,-1.25e-4 0,-1.94e-4 0,-5.6e-5 0,-1.26e-4 0,-1.83e-4 0,-6.8e-5 0,-1.25e-4 0,-1.93e-4 0,-5.7e-5 0,-1.26e-4 0,-1.83e-4 0,-6.8e-5 0,-1.25e-4 0,-1.95e-4 0,-5.6e-5 0,-1.13e-4 0,-1.81e-4 0,-5.7e-5 0,-1.26e-4 0,-1.83e-4 0,-6.7e-5 0,-1.25e-4 0,-1.93e-4 0,-5.6e-5 0,-1.26e-4 0,-1.83e-4 0,-6.8e-5 0,-1.25e-4 0,-1.93e-4 0,-5.7e-5 0,-1.14e-4 0,-1.83e-4 0,-5.6e-5 0,-1.25e-4 0,-1.83e-4 0,-6.8e-5 0,-1.25e-4 0,-1.94e-4 0,-5.6e-5 0,-1.25e-4 0,-1.82e-4 0,-6.8e-5 0,-1.25e-4 0,-1.93e-4 0,-5.8e-5 0,-1.26e-4 0,-1.84e-4 0,-5.6e-5 0,-1.25e-4 0,-1.82e-4 0,-6.8e-5 0,-1.25e-4 0,-1.93e-4 0,-5.7e-5 0,-1.25e-4 0,-1.83e-4 0,-6.9e-5 0,-1.25e-4 0,-1.94e-4 0,-5.7e-5 0,-1.25e-4 0,-1.82e-4 0,-5.7e-5 0,-1.25e-4 0,-1.82e-4 0,-7e-5 0,-1.26e-4 0,-1.95e-4 0,-5.7e-5 0,-1.25e-4 0,-1.82e-4 0,-6.9e-5 0,-1.25e-4 0,-1.94e-4 0,-5.7e-5 0,-1.24e-4 0,-1.83e-4 0,-6.8e-5 0,-1.25e-4 0,-1.82e-4 0,-6.8e-5 0,-1.25e-4 0,-1.93e-4 0,-5.8e-5 0,-1.25e-4 0,-1.83e-4 0,-6.9e-5 0,-1.25e-4 0,-1.94e-4 0,-5.7e-5 0,-1.25e-4 0,-1.83e-4 0,-6.8e-5 0,-1.25e-4 0,-1.82e-4 0,-6.8e-5 0,-1.24e-4 0,-1.94e-4 0,-5.7e-5 0,-1.25e-4 0,-1.82e-4 0,-6.9e-5 0,-1.26e-4 0,-1.94e-4 0,-5.8e-5 0,-1.25e-4 0,-1.82e-4 0,-6.9e-5 0,-1.26e-4 0,-1.94e-4 0,-5.7e-5 0,-1.14e-4 0,-1.83e-4 0,-5.8e-5 0,-1.25e-4 0,-1.82e-4 0,-6.8e-5 0,-1.25e-4 0,-1.94e-4 0,-5.7e-5 0,-1.26e-4 0,-1.82e-4 0,-6.9e-5 0,-1.26e-4 0,-1.95e-4 0,-5.7e-5 0,-1.13e-4 0,-1.81e-4 0,-5.8e-5 0,-1.27e-4 0,-1.83e-4 0,-6.9e-5 0,-1.26e-4 0,-1.95e-4 0,-5.7e-5 0,-1.25e-4 0,-1.82e-4 0,-6.8e-5 0,-1.26e-4 0,-1.93e-4 0,-5.8e-5 0,-1.26e-4 0,-1.82e-4 0,-5.8e-5 0,-1.27e-4 0,-1.84e-4 0,-6.8e-5 0,-1.25e-4 0,-1.93e-4 0,-5.7e-5 0,-1.26e-4 0,-1.82e-4 0,-6.9e-5 0,-1.26e-4 0,-1.95e-4 0,-5.7e-5 0,-1.26e-4 0,-1.82e-4 0,-5.7e-5 0,-1.26e-4 0,-1.82e-4 0,-6.9e-5 0,-1.26e-4 0,-1.94e-4 0,-5.8e-5 0,-1.27e-4 0,-1.83e-4 0,-6.8e-5 0,-1.26e-4 0,-1.93e-4 0,-5.8e-5 0,-1.26e-4 0,-1.82e-4 0,-6.9e-5 0,-1.26e-4 0,-1.84e-4 0,-6.8e-5 0,-1.25e-4 0,-1.93e-4 0,-5.7e-5 0,-1.26e-4 0,-1.82e-4 0,-6.9e-5 0,-1.26e-4 0,-1.95e-4 0,-5.7e-5 0,-1.26e-4 0,-1.82e-4 0,-6.9e-5 0,-1.26e-4 0,-1.83e-4 0,-6.8e-5 0,-1.25e-4 0,-1.94e-4 0,-5.6e-5 0,-1.26e-4 0,-1.82e-4 0,-6.8e-5 0,-1.26e-4 0,-1.94e-4 0,-5.7e-5 0,-1.25e-4 0,-1.82e-4 0,-6.8e-5 0,-1.25e-4 0,-1.94e-4 0,-5.7e-5 0,-1.15e-4 0,-1.83e-4 0,-5.6e-5 0,-1.25e-4 0,-1.83e-4 0,-6.7e-5 0,-1.24e-4 0,-1.93e-4 0,-5.6e-5 0,-1.26e-4 0,-1.83e-4 0,-6.8e-5 0,-1.25e-4 0,-1.94e-4 0,-5.6e-5 0,-1.14e-4 0,-1.82e-4 0,-5.7e-5 0,-1.25e-4 0,-1.82e-4 0,-6.9e-5 0,-1.26e-4 0,-1.94e-4 0,-5.7e-5 0,-1.25e-4 0,-1.84e-4 0,-6.6e-5 0,-1.24e-4 0,-1.92e-4 0,-5.6e-5 0,-1.26e-4 0,-1.83e-4 0,-5.6e-5 0,-1.25e-4 0,-1.82e-4 0,-6.9e-5 0,-1.26e-4 0,-1.94e-4 0,-5.7e-5 0,-1.25e-4 0,-1.82e-4 0,-6.9e-5 0,-1.26e-4 0,-1.95e-4 0,-5.6e-5 0,-1.24e-4 0,-1.83e-4 0,-5.6e-5 0,-1.24e-4 0,-1.82e-4 0,-6.8e-5 0,-1.25e-4 0,-1.93e-4 0,-5.7e-5 0,-1.25e-4 0,-1.83e-4 0,-6.9e-5 0,-1.25e-4 0,-1.94e-4 0,-5.7e-5 0,-1.24e-4 0,-1.82e-4 0,-6.9e-5 0,-1.25e-4 0,-1.82e-4 0,-6.9e-5 0,-1.25e-4 0,-1.95e-4 0,-5.7e-5 0,-1.24e-4 0,-1.82e-4 0,-6.8e-5 0,-1.25e-4 0,-1.94e-4 0,-5.7e-5 0,-1.25e-4 0,-1.82e-4 0,-6.9e-5 0,-1.26e-4 0,-1.83e-4 0,-6.9e-5 0,-1.25e-4 0,-1.93e-4 0,-5.8e-5 0,-1.25e-4 0,-1.83e-4 0,-6.8e-5 0,-1.24e-4 0,-1.94e-4 0,-5.7e-5 0,-1.25e-4 0,-1.82e-4 0,-6.9e-5 0,-1.25e-4 0,-1.94e-4 0,-5.7e-5 0,-1.13e-4 0,-1.82e-4 0,-5.8e-5 0,-1.26e-4 0,-1.83e-4 0,-6.9e-5 0,-1.25e-4 0,-1.94e-4 0,-5.7e-5 0,-1.25e-4 0,-1.82e-4 0,-6.8e-5 0,-1.26e-4 0,-1.94e-4 0,-5.8e-5 0,-1.14e-4 0,-1.82e-4 0,-5.8e-5 0,-1.26e-4 0,-1.83e-4 0,-6.8e-5 0,-1.25e-4 0,-1.93e-4 0,-5.8e-5 0,-1.27e-4 0,-1.83e-4 0,-6.9e-5 0,-1.26e-4 0,-1.94e-4 0,-5.7e-5 0,-1.26e-4 0,-1.82e-4 0,-5.7e-5 0,-1.27e-4 0,-1.83e-4 0,-6.9e-5 0,-1.26e-4 0,-1.94e-4 0,-5.8e-5 0,-1.26e-4 0,-1.82e-4 0,-6.8e-5 0,-1.26e-4 0,-1.93e-4 0,-5.9e-5 0,-1.27e-4 0,-1.84e-4 0,-5.7e-5 0,-1.25e-4 0,-1.83e-4 0,-6.8e-5 0,-1.25e-4 0,-1.92e-4 0,-5.7e-5 0,-1.27e-4 0,-1.83e-4 0,-6.9e-5 0,-1.26e-4 0,-1.94e-4 0,-5.8e-5 0,-1.26e-4 0,-1.83e-4 0,-6.8e-5 0,-1.25e-4 0,-1.82e-4 0,-6.9e-5 0,-1.26e-4 0,-1.94e-4 0,-5.7e-5 0,-1.26e-4 0,-1.83e-4 0,-6.8e-5 0,-1.25e-4 0,-1.93e-4 0,-5.7e-5 0,-1.26e-4 0,-1.83e-4 0,-6.8e-5 0,-1.25e-4 0,-1.82e-4 0,-6.9e-5 0,-1.27e-4 0,-1.94e-4 0,-5.7e-5 0,-1.25e-4 0,-1.82e-4 0,-6.9e-5 0,-1.26e-4 0,-1.95e-4 0,-5.6e-5 0,-1.26e-4 0,-1.82e-4 0,-6.8e-5 0,-1.26e-4 0,-1.94e-4 0,-5.7e-5 0,-1.14e-4 0,-1.83e-4 0,-5.6e-5 0,-1.25e-4 0,-1.82e-4 0,-6.9e-5 0,-1.26e-4 0,-1.94e-4 0,-5.7e-5 0,-1.25e-4 0,-1.83e-4 0,-6.7e-5 0,-1.24e-4 0,-1.93e-4 0,-5.6e-5 0,-1.15e-4 0,-1.83e-4 0,-5.6e-5 0,-1.25e-4 0,-1.82e-4 0,-6.8e-5 0,-1.25e-4 0,-1.94e-4 0,-5.6e-5 0,-1.25e-4 0,-1.82e-4 0,-6.9e-5 0,-1.26e-4 0,-1.95e-4 0,-5.6e-5 0,-1.24e-4 0,-1.82e-4 0,-5.6e-5 0,-1.25e-4 0,-1.82e-4 0,-6.8e-5 0,-1.26e-4 0,-1.94e-4 0,-5.7e-5 0,-1.25e-4 0,-1.83e-4 0,-6.7e-5 0,-1.25e-4 0,-1.93e-4 0,-5.6e-5 0,-1.25e-4 0,-1.82e-4 0,-5.8e-5 0,-1.26e-4 0,-1.83e-4 0,-6.8e-5 0,-1.25e-4 0,-1.94e-4 0,-5.6e-5 0,-1.25e-4 0,-1.82e-4 0,-6.9e-5 0,-1.26e-4 0,-1.95e-4 0,-5.6e-5 0,-1.25e-4 0,-1.82e-4 0,-6.9e-5 0,-1.25e-4 0,-1.82e-4 0,-6.9e-5 0,-1.25e-4 0,-1.95e-4 0,-5.6e-5 0,-1.24e-4 0,-1.82e-4 0,-6.8e-5 0,-1.24e-4 0,-1.94e-4 0,-5.7e-5 0,-1.24e-4 0,-1.81e-4 0,-6.9e-5 0,-1.26e-4 0,-1.83e-4 0,-6.9e-5 0,-1.25e-4 0,-1.94e-4 0,-5.8e-5 0,-1.25e-4 0,-1.83e-4 0,-6.8e-5 0,-1.24e-4 0,-1.94e-4 0,-5.7e-5 0,-1.25e-4 0,-1.82e-4 0,-6.8e-5 0,-1.26e-4 0,-1.94e-4 0,-5.7e-5 0,-1.13e-4 0,-1.82e-4 0,-5.7e-5 0,-1.25e-4 0,-1.83e-4 0,-6.8e-5 0,-1.25e-4 0,-1.93e-4 0,-5.8e-5 0,-1.26e-4 0,-1.83e-4 0,-6.8e-5 0,-1.25e-4 0,-1.94e-4 0,-5.7e-5 0,-1.13e-4 0,-1.82e-4 0,-5.7e-5 0,-1.26e-4 0,-1.83e-4 0,-6.8e-5 0,-1.25e-4 0,-1.93e-4 0,-5.7e-5 0,-1.27e-4 0,-1.83e-4 0,-6.9e-5 0,-1.26e-4 0,-1.93e-4 0,-5.9e-5 0,-1.27e-4 0,-1.83e-4 0,-5.8e-5 0,-1.26e-4 0,-1.83e-4 0,-6.8e-5 0,-1.26e-4 0,-1.93e-4 0,-5.7e-5 0,-1.27e-4 0,-1.83e-4 0,-6.9e-5 0,-1.26e-4 0,-1.93e-4 0,-5.8e-5 0,-1.27e-4 0,-1.83e-4 0,-5.7e-5 0,-1.26e-4 0,-1.82e-4 0,-7e-5 0,-1.27e-4 0,-1.95e-4 0,-5.7e-5 0,-1.25e-4 0,-1.82e-4 0,-6.9e-5 0,-1.26e-4 0,-1.93e-4 0,-5.8e-5 0,-1.27e-4 0,-1.84e-4 0,-6.8e-5 0,-1.25e-4 0,-1.82e-4 0,-6.8e-5 0,-1.26e-4 0,-1.93e-4 0,-5.7e-5 0,-1.26e-4 0,-1.83e-4 0,-6.9e-5 0,-1.26e-4 0,-1.94e-4 0,-5.7e-5 0,-1.26e-4 0,-1.82e-4 0,-6.9e-5 0,-1.26e-4 0,-1.82e-4 0,-6.9e-5 0,-1.27e-4 0,-1.95e-4 0,-5.7e-5 0,-1.26e-4 0,-1.82e-4 0,-6.9e-5 0,-1.26e-4 0,-1.94e-4 0,-5.7e-5 0,-1.25e-4 0,-1.83e-4 0,-6.8e-5 0,-1.26e-4 0,-1.94e-4 0,-5.6e-5 0,-1.14e-4 0,-1.83e-4 0,-5.6e-5 0,-1.24e-4 0,-1.81e-4 0,-6.8e-5 0,-1.26e-4 0,-1.95e-4 0,-5.6e-5 0,-1.25e-4 0,-1.82e-4 0,-6.8e-5 0,-1.26e-4 0,-1.94e-4 0,-5.6e-5 0,-1.13e-4 0,-1.83e-4 0,-5.6e-5 0,-1.25e-4 0,-1.82e-4 0,-6.8e-5 0,-1.26e-4 0,-1.94e-4 0,-5.6e-5 0,-1.24e-4 0,-1.82e-4 0,-6.8e-5 0,-1.26e-4 0,-1.94e-4 0,-5.6e-5 0,-1.25e-4 0,-1.82e-4 0,-5.8e-5 0,-1.26e-4 0,-1.83e-4 0,-6.7e-5 0,-1.25e-4 0,-1.94e-4 0,-5.6e-5 0,-1.25e-4 0,-1.82e-4 0,-6.8e-5 0,-1.26e-4 0,-1.94e-4 0,-5.7e-5 0,-1.25e-4 0,-1.82e-4 0,-5.7e-5 0,-1.26e-4 0,-1.83e-4 0,-6.8e-5 0,-1.25e-4 0,-1.94e-4 0,-5.7e-5 0,-1.25e-4 0,-1.83e-4 0,-6.8e-5 0,-1.24e-4 0,-1.93e-4 0,-5.7e-5 0,-1.25e-4 0,-1.82e-4 0,-6.9e-5 0,-1.26e-4 0,-1.84e-4 0,-6.8e-5 0,-1.24e-4 0,-1.93e-4 0,-5.7e-5 0,-1.25e-4 0,-1.82e-4 0,-6.9e-5 0,-1.25e-4 0,-1.95e-4 0,-5.7e-5 0,-1.25e-4 0,-1.82e-4 0,-6.8e-5 0,-1.24e-4 0,-1.82e-4 0,-6.9e-5 0,-1.25e-4 0,-1.94e-4 0,-5.7e-5 0,-1.26e-4 0,-1.83e-4 0,-6.8e-5 0,-1.25e-4 0,-1.93e-4 0,-5.8e-5 0,-1.25e-4 0,-1.82e-4 0,-6.9e-5 0,-1.25e-4 0,-1.95e-4 0,-5.7e-5 0,-1.13e-4 0,-1.82e-4 0,-5.7e-5 0,-1.25e-4 0,-1.83e-4 0,-6.8e-5 0,-1.24e-4 0,-1.93e-4 0,-5.7e-5 0,-1.26e-4 0,-1.83e-4 0,-6.9e-5 0,-1.25e-4 0,-1.93e-4 0,-5.8e-5 0,-1.14e-4 0,-1.83e-4 0,-5.7e-5 0,-1.25e-4 0,-1.83e-4 0,-6.8e-5 0,-1.25e-4 0,-1.93e-4 0,-5.7e-5 0,-1.26e-4 0,-1.83e-4 0,-6.8e-5 0,-1.25e-4 0,-1.93e-4 0,-5.8e-5 0,-1.27e-4 0,-1.83e-4 0,-5.7e-5 0,-1.26e-4 0,-1.82e-4 0,-7e-5 0,-1.26e-4 0,-1.94e-4 0,-5.7e-5 0,-1.26e-4 0,-1.83e-4 0,-6.9e-5 0,-1.26e-4 0,-1.93e-4 0,-5.8e-5 0,-1.27e-4 0,-1.83e-4 0,-5.7e-5 0,-1.26e-4 0,-1.82e-4 0,-6.9e-5 0,-1.27e-4 0,-1.94e-4 0,-5.8e-5 0,-1.26e-4 0,-1.82e-4 0,-7e-5 0,-1.27e-4 0,-1.94e-4 0,-5.7e-5 0,-1.26e-4 0,-1.83e-4 0,-6.9e-5 0,-1.26e-4 0,-1.82e-4 0,-6.9e-5 0,-1.27e-4 0,-1.95e-4 0,-5.7e-5 0,-1.25e-4 0,-1.81e-4 0,-7e-5 0,-1.27e-4 0,-1.95e-4 0,-5.7e-5 0,-1.25e-4 0,-1.83e-4 0,-6.8e-5 0,-1.25e-4 0,-1.82e-4 0,-6.8e-5 0,-1.25e-4 0,-1.93e-4 0,-5.8e-5 0,-1.26e-4 0,-1.82e-4 0,-6.9e-5 0,-1.27e-4 0,-1.95e-4 0,-5.7e-5 0,-1.25e-4 0,-1.82e-4 0,-6.9e-5 0,-1.26e-4 0,-1.95e-4 0,-5.6e-5 0,-1.13e-4 0,-1.82e-4 0,-5.7e-5 0,-1.26e-4 0,-1.82e-4 0,-6.8e-5 0,-1.26e-4 0,-1.95e-4 0,-5.6e-5 0,-1.24e-4 0,-1.82e-4 0,-6.7e-5 0,-1.26e-4 0,-1.94e-4 0,-5.6e-5 0,-1.14e-4 0,-1.82e-4 0,-5.7e-5 0,-1.25e-4 0,-1.83e-4 0,-6.7e-5 0,-1.24e-4 0,-1.94e-4 0,-5.6e-5 0,-1.25e-4 0,-1.82e-4 0,-6.8e-5 0,-1.25e-4 0,-1.94e-4 0,-5.6e-5 0,-1.25e-4 0,-1.82e-4 0,-5.6e-5 0,-1.26e-4 0,-1.83e-4 0,-6.8e-5 0,-1.25e-4 0,-1.93e-4 0,-5.7e-5 0,-1.26e-4 0,-1.83e-4 0,-6.7e-5 0,-1.25e-4 0,-1.94e-4 0,-5.7e-5 0,-1.25e-4 0,-1.82e-4 0,-5.7e-5 0,-1.25e-4 0,-1.83e-4 0,-6.7e-5 0,-1.24e-4 0,-1.93e-4 0,-5.7e-5 0,-1.26e-4 0,-1.83e-4 0,-6.8e-5 0,-1.25e-4 0,-1.94e-4 0,-5.7e-5 0,-1.25e-4 0,-1.82e-4 0,-6.9e-5 0,-1.25e-4 0,-1.83e-4 0,-6.8e-5 0,-1.25e-4 0,-1.94e-4 0,-5.6e-5 0,-1.25e-4 0,-1.82e-4 0,-6.8e-5 0,-1.25e-4 0,-1.93e-4 0,-5.8e-5 0,-1.26e-4 0,-1.83e-4 0,-6.9e-5 0,-1.25e-4 0,-1.84e-4 0,-6.8e-5 0,-1.24e-4 0,-1.92e-4 0,-5.8e-5 0,-1.25e-4 0,-1.83e-4 0,-6.9e-5 0,-1.25e-4 0,-1.94e-4 0,-5.7e-5 0,-1.25e-4 0,-1.83e-4 0,-6.8e-5 0,-1.24e-4 0,-1.92e-4 0,-5.9e-5 0,-1.15e-4 0,-1.84e-4 0,-5.7e-5 0,-1.25e-4 0,-1.83e-4 0,-6.8e-5 0,-1.25e-4 0,-1.93e-4 0,-5.7e-5 0,-1.25e-4 0,-1.83e-4 0,-6.8e-5 0,-1.24e-4 0,-1.93e-4 0,-5.7e-5 0,-1.15e-4 0,-1.83e-4 0,-5.7e-5 0,-1.25e-4 0,-1.82e-4 0,-6.9e-5 0,-1.25e-4 0,-1.94e-4 0,-5.7e-5 0,-1.25e-4 0,-1.83e-4 0,-6.9e-5 0,-1.25e-4 0,-1.93e-4 0,-5.7e-5 0,-1.26e-4 0,-1.83e-4 0,-5.7e-5 0,-1.25e-4 0,-1.82e-4 0,-7e-5 0,-1.26e-4 0,-1.94e-4 0,-5.8e-5 0,-1.26e-4 0,-1.82e-4 0,-6.9e-5 0,-1.26e-4 0,-1.94e-4 0,-5.7e-5 0,-1.26e-4 0,-1.83e-4 0,-5.7e-5 0,-1.26e-4 0,-1.82e-4 0,-6.9e-5 0,-1.26e-4 0,-1.94e-4 0,-5.7e-5 0,-1.26e-4 0,-1.82e-4 0,-7e-5 0,-1.27e-4 0,-1.95e-4 0,-5.7e-5 0,-1.25e-4 0,-1.82e-4 0,-6.8e-5 0,-1.26e-4 0,-1.82e-4 0,-6.8e-5 0,-1.26e-4 0,-1.94e-4 0,-5.8e-5 0,-1.26e-4 0,-1.83e-4 0,-6.8e-5 0,-1.26e-4 0,-1.93e-4 0,-5.7e-5 0,-1.26e-4 0,-1.82e-4 0,-7e-5 0,-1.27e-4 0,-1.83e-4 0,-6.9e-5 0,-1.26e-4 0,-1.94e-4 0,-5.8e-5 0,-1.26e-4 0,-1.82e-4 0,-6.9e-5 0,-1.26e-4 0,-1.95e-4 0,-5.7e-5 0,-1.26e-4 0,-1.82e-4 0,-6.8e-5 0,-1.26e-4 0,-1.94e-4 0,-5.7e-5 0,-1.14e-4 0,-1.82e-4 0,-5.8e-5 0,-1.26e-4 0,-1.83e-4 0,-6.8e-5 0,-1.25e-4 0,-1.94e-4 0,-5.7e-5 0,-1.25e-4 0,-1.82e-4 0,-6.8e-5 0,-1.26e-4 0,-1.95e-4 0,-5.6e-5 0,-1.13e-4 0,-1.82e-4 0,-5.6e-5 0,-1.26e-4 0,-1.82e-4 0,-6.8e-5 0,-1.25e-4 0,-1.94e-4 0,-5.7e-5 0,-1.26e-4 0,-1.83e-4 0,-6.7e-5 0,-1.25e-4 0,-1.94e-4 0,-5.7e-5 0,-1.24e-4 0,-1.82e-4 0,-5.6e-5 0,-1.25e-4 0,-1.83e-4 0,-6.7e-5 0,-1.24e-4 0,-1.93e-4 0,-5.7e-5 0,-1.26e-4 0,-1.83e-4 0,-6.7e-5 0,-1.25e-4 0,-1.93e-4 0,-5.7e-5 0,-1.26e-4 0,-1.83e-4 0,-5.6e-5 0,-1.25e-4 0,-1.83e-4 0,-6.8e-5 0,-1.25e-4 0,-1.93e-4 0,-5.6e-5 0,-1.26e-4 0,-1.83e-4 0,-6.7e-5 0,-1.25e-4 0,-1.93e-4 0,-5.8e-5 0,-1.26e-4 0,-1.84e-4 0,-6.7e-5 0,-1.24e-4 0,-1.81e-4 0,-6.8e-5 0,-1.26e-4 0,-1.94e-4 0,-5.6e-5 0,-1.25e-4 0,-1.83e-4 0,-6.8e-5 0,-1.25e-4 0,-1.93e-4 0,-5.7e-5 0,-1.26e-4 0,-1.83e-4 0,-6.9e-5 0,-1.25e-4 0,-1.82e-4 0,-6.9e-5 0,-1.26e-4 0,-1.95e-4 0,-5.6e-5 0,-1.24e-4 0,-1.82e-4 0,-6.9e-5 0,-1.25e-4 0,-1.93e-4 0,-5.8e-5 0,-1.26e-4 0,-1.84e-4 0,-6.8e-5 0,-1.24e-4 0,-1.93e-4 0,-5.7e-5 0,-1.14e-4 0,-1.82e-4 0,-5.7e-5 0,-1.25e-4 0,-1.82e-4 0,-7e-5 0,-1.26e-4 0,-1.95e-4 0,-5.7e-5 0,-1.25e-4 0,-1.82e-4 0,-6.9e-5 0,-1.25e-4 0,-1.94e-4 0,-5.7e-5 0,-1.14e-4 0,-1.83e-4 0,-5.7e-5 0,-1.25e-4 0,-1.82e-4 0,-6.8e-5 0,-1.25e-4 0,-1.93e-4 0,-5.8e-5 0,-1.25e-4 0,-1.83e-4 0,-6.9e-5 0,-1.25e-4 0,-1.94e-4 0,-5.7e-5 0,-1.25e-4 0,-1.83e-4 0,-5.7e-5 0,-1.24e-4 0,-1.81e-4 0,-6.9e-5 0,-1.26e-4 0,-1.95e-4 0,-5.7e-5 0,-1.25e-4 0,-1.82e-4 0,-6.9e-5 0,-1.25e-4 0,-1.94e-4 0,-5.7e-5 0,-1.26e-4 0,-1.82e-4 0,-5.8e-5 0,-1.26e-4 0,-1.83e-4 0,-6.9e-5 0,-1.25e-4 0,-1.94e-4 0,-5.8e-5 0,-1.25e-4 0,-1.82e-4 0,-6.8e-5 0,-1.26e-4 0,-1.94e-4 0,-5.7e-5 0,-1.26e-4 0,-1.82e-4 0,-6.9e-5 0,-1.27e-4 0,-1.83e-4 0,-6.9e-5 0,-1.26e-4 0,-1.94e-4 0,-5.7e-5 0,-1.26e-4 0,-1.82e-4 0,-6.9e-5 0,-1.26e-4 0,-1.94e-4 0,-5.8e-5 0,-1.26e-4 0,-1.82e-4 0,-6.8e-5 0,-1.27e-4 0,-1.83e-4 0,-6.9e-5 0,-1.26e-4 0,-1.93e-4 0,-5.9e-5 0,-1.27e-4 0,-1.84e-4 0,-6.8e-5 0,-1.25e-4 0,-1.93e-4 0,-5.7e-5 0,-1.26e-4 0,-1.82e-4 0,-6.9e-5 0,-1.26e-4 0,-1.95e-4 0,-5.7e-5 0,-1.14e-4 0,-1.82e-4 0,-5.7e-5 0,-1.26e-4 0,-1.82e-4 0,-6.9e-5 0,-1.26e-4 0,-1.94e-4 0,-5.8e-5 0,-1.27e-4 0,-1.83e-4 0,-6.8e-5 0,-1.26e-4 0,-1.94e-4 0,-5.7e-5 0,-1.14e-4 0,-1.82e-4 0,-5.7e-5 0,-1.26e-4 0,-1.83e-4 0,-6.8e-5 0,-1.26e-4 0,-1.94e-4 0,-5.6e-5 0,-1.25e-4 0,-1.82e-4 0,-6.8e-5 0,-1.25e-4 0,-1.94e-4 0,-5.7e-5 0,-1.26e-4 0,-1.83e-4 0,-5.6e-5 0,-1.25e-4 0,-1.82e-4 0,-6.8e-5 0,-1.25e-4 0,-1.94e-4 0,-5.6e-5 0,-1.26e-4 0,-1.83e-4 0,-6.8e-5 0,-1.25e-4 0,-1.93e-4 0,-5.7e-5 0,-1.25e-4 0,-1.83e-4 0,-5.6e-5 0,-1.24e-4 0,-1.82e-4 0,-6.8e-5 0,-1.26e-4 0,-1.94e-4 0,-5.6e-5 0,-1.25e-4 0,-1.83e-4 0,-6.7e-5 0,-1.24e-4 0,-1.93e-4 0,-5.6e-5 0,-1.26e-4 0,-1.83e-4 0,-6.8e-5 0,-1.25e-4 0,-1.82e-4 0,-6.8e-5 0,-1.26e-4 0,-1.94e-4 0,-5.6e-5 0,-1.25e-4 0,-1.83e-4 0,-6.8e-5 0,-1.25e-4 0,-1.93e-4 0,-5.7e-5 0,-1.25e-4 0,-1.83e-4 0,-6.8e-5 0,-1.24e-4 0,-1.82e-4 0,-6.8e-5 0,-1.26e-4 0,-1.94e-4 0,-5.7e-5 0,-1.25e-4 0,-1.82e-4 0,-6.9e-5 0,-1.26e-4 0,-1.94e-4 0,-5.7e-5 0,-1.25e-4 0,-1.83e-4 0,-6.9e-5 0,-1.25e-4 0,-1.94e-4 0,-5.7e-5 0,-1.13e-4 0,-1.83e-4 0,-5.6e-5 0,-1.24e-4 0,-1.81e-4 0,-6.9e-5 0,-1.26e-4 0,-1.95e-4 0,-5.7e-5 0,-1.24e-4 0,-1.82e-4 0,-6.9e-5 0,-1.26e-4 0,-1.93e-4 0,-5.8e-5 0,-1.14e-4 0,-1.83e-4 0,-5.8e-5 0,-1.25e-4 0,-1.82e-4 0,-6.9e-5 0,-1.26e-4 0,-1.95e-4 0,-5.7e-5 0,-1.24e-4 0,-1.81e-4 0,-7e-5 0,-1.26e-4 0,-1.95e-4 0,-5.7e-5 0,-1.25e-4 0,-1.82e-4 0,-5.8e-5 0,-1.26e-4 0,-1.83e-4 0,-6.8e-5 0,-1.25e-4 0,-1.94e-4 0,-5.7e-5 0,-1.24e-4 0,-1.82e-4 0,-6.8e-5 0,-1.26e-4 0,-1.94e-4 0,-5.7e-5 0,-1.25e-4 0,-1.82e-4 0,-5.8e-5 0,-1.25e-4 0,-1.82e-4 0,-6.9e-5 0,-1.25e-4 0,-1.94e-4 0,-5.8e-5 0,-1.26e-4 0,-1.83e-4 0,-6.9e-5 0,-1.25e-4 0,-1.94e-4 0,-5.7e-5 0,-1.26e-4 0,-1.82e-4 0,-6.8e-5 0,-1.26e-4 0,-1.83e-4 0,-6.9e-5 0,-1.25e-4 0,-1.94e-4 0,-5.7e-5 0,-1.25e-4 0,-1.82e-4 0,-6.8e-5 0,-1.26e-4 0,-1.94e-4 0,-5.8e-5 0,-1.26e-4 0,-1.82e-4 0,-6.9e-5 0,-1.26e-4 0,-1.83e-4 0,-6.8e-5 0,-1.25e-4 0,-1.93e-4 0,-5.7e-5 0,-1.27e-4 0,-1.83e-4 0,-6.9e-5 0,-1.26e-4 0,-1.94e-4 0,-5.7e-5 0,-1.26e-4 0,-1.82e-4 0,-6.9e-5 0,-1.26e-4 0,-1.95e-4 0,-5.7e-5 0,-1.14e-4 0,-1.82e-4 0,-5.7e-5 0,-1.26e-4 0,-1.82e-4 0,-6.8e-5 0,-1.26e-4 0,-1.93e-4 0,-5.7e-5 0,-1.27e-4 0,-1.83e-4 0,-6.9e-5 0,-1.26e-4 0,-1.94e-4 0,-5.8e-5 0,-1.15e-4 0,-1.82e-4 0,-5.8e-5 0,-1.26e-4 0,-1.83e-4 0,-6.9e-5 0,-1.26e-4 0,-1.94e-4 0,-5.7e-5 0,-1.26e-4 0,-1.83e-4 0,-6.8e-5 0,-1.25e-4 0,-1.93e-4 0,-5.7e-5 0,-1.26e-4 0,-1.83e-4 0,-5.7e-5 0,-1.25e-4 0,-1.82e-4 0,-6.9e-5 0,-1.27e-4 0,-1.95e-4 0,-5.6e-5 0,-1.24e-4 0,-1.82e-4 0,-6.8e-5 0,-1.25e-4 0,-1.94e-4 0,-5.6e-5 0,-1.26e-4 0,-1.83e-4 0,-5.6e-5 0,-1.24e-4 0,-1.82e-4 0,-6.8e-5 0,-1.25e-4 0,-1.94e-4 0,-5.6e-5 0,-1.25e-4 0,-1.82e-4 0,-6.9e-5 0,-1.26e-4 0,-1.94e-4 0,-5.6e-5 0,-1.24e-4 0,-1.83e-4 0,-6.7e-5 0,-1.25e-4 0,-1.82e-4 0,-6.7e-5 0,-1.26e-4 0,-1.94e-4 0,-5.7e-5 0,-1.25e-4 0,-1.82e-4 0,-6.8e-5 0,-1.25e-4 0,-1.94e-4 0,-5.6e-5 0,-1.25e-4 0,-1.83e-4 0,-6.8e-5 0,-1.25e-4 0,-1.82e-4 0,-6.8e-5 0,-1.25e-4 0,-1.94e-4 0,-5.6e-5 0,-1.25e-4 0,-1.82e-4 0,-6.8e-5 0,-1.26e-4 0,-1.95e-4 0,-5.6e-5 0,-1.24e-4 0,-1.82e-4 0,-6.8e-5 0,-1.25e-4 0,-1.93e-4 0,-5.7e-5 0,-1.14e-4 0,-1.83e-4 0,-5.7e-5 0,-1.25e-4 0,-1.82e-4 0,-6.9e-5 0,-1.25e-4 0,-1.94e-4 0,-5.7e-5 0,-1.25e-4 0,-1.82e-4 0,-6.9e-5 0,-1.26e-4 0,-1.95e-4 0,-5.7e-5 0,-1.13e-4 0,-1.82e-4 0,-5.7e-5 0,-1.25e-4 0,-1.82e-4 0,-6.9e-5 0,-1.25e-4 0,-1.95e-4 0,-5.7e-5 0,-1.24e-4 0,-1.82e-4 0,-6.8e-5 0,-1.25e-4 0,-1.93e-4 0,-5.8e-5 0,-1.25e-4 0,-1.82e-4 H 4.6771571 c 0,5.7e-5 0,1.24e-4 0,1.82e-4 0,6.8e-5 0,1.25e-4 0,1.93e-4 0,5.8e-5 0,1.25e-4 0,1.82e-4 0,7e-5 0,1.26e-4 0,1.95e-4 0,5.7e-5 0,1.25e-4 0,1.82e-4 0,6.9e-5 0,1.25e-4 0,1.82e-4 0,6.9e-5 0,1.26e-4 0,1.95e-4 0,5.7e-5 0,1.25e-4 0,1.82e-4 0,6.9e-5 0,1.25e-4 0,1.94e-4 0,5.7e-5 0,1.25e-4 0,1.82e-4 0,6.9e-5 0,1.26e-4 0,1.83e-4 0,6.8e-5 0,1.25e-4 0,1.93e-4 0,5.8e-5 0,1.26e-4 0,1.82e-4 0,6.9e-5 0,1.27e-4 0,1.95e-4 0,5.7e-5 0,1.26e-4 0,1.82e-4 0,6.9e-5 0,1.26e-4 0,1.94e-4 0,5.7e-5 0,1.14e-4 0,1.82e-4 0,5.8e-5 0,1.27e-4 0,1.83e-4 0,6.9e-5 0,1.26e-4 0,1.94e-4 0,5.7e-5 0,1.25e-4 0,1.82e-4 0,6.8e-5 0,1.27e-4 0,1.94e-4 0,5.7e-5 0,1.15e-4 0,1.82e-4 0,5.9e-5 0,1.27e-4 0,1.83e-4 0,6.8e-5 0,1.25e-4 0,1.94e-4 0,5.7e-5 0,1.26e-4 0,1.82e-4 0,6.9e-5 0,1.26e-4 0,1.94e-4 0,5.8e-5 0,1.26e-4 0,1.82e-4 0,5.7e-5 0,1.27e-4 0,1.83e-4 0,6.9e-5 0,1.26e-4 0,1.94e-4 0,5.8e-5 0,1.26e-4 0,1.82e-4 0,6.8e-5 0,1.26e-4 0,1.95e-4 0,5.7e-5 0,1.25e-4 0,1.82e-4 0,5.7e-5 0,1.26e-4 0,1.83e-4 0,6.8e-5 0,1.25e-4 0,1.93e-4 0,5.7e-5 0,1.26e-4 0,1.83e-4 0,6.8e-5 0,1.25e-4 0,1.94e-4 0,5.7e-5 0,1.25e-4 0,1.83e-4 0,6.7e-5 0,1.24e-4 0,1.82e-4 0,6.8e-5 0,1.25e-4 0,1.94e-4 0,5.6e-5 0,1.26e-4 0,1.83e-4 0,6.7e-5 0,1.25e-4 0,1.93e-4 0,5.6e-5 0,1.25e-4 0,1.82e-4 0,6.8e-5 0,1.25e-4 0,1.82e-4 0,6.9e-5 0,1.26e-4 0,1.95e-4 0,5.6e-5 0,1.25e-4 0,1.82e-4 0,6.8e-5 0,1.25e-4 0,1.94e-4 0,5.6e-5 0,1.26e-4 0,1.83e-4 0,6.8e-5 0,1.25e-4 0,1.93e-4 0,5.7e-5 0,1.14e-4 0,1.83e-4 0,5.6e-5 0,1.24e-4 0,1.82e-4 0,6.8e-5 0,1.26e-4 0,1.94e-4 0,5.7e-5 0,1.25e-4 0,1.82e-4 0,6.9e-5 0,1.25e-4 0,1.94e-4 0,5.7e-5 0,1.15e-4 0,1.83e-4 0,5.6e-5 0,1.25e-4 0,1.82e-4 0,6.9e-5 0,1.25e-4 0,1.94e-4 0,5.7e-5 0,1.25e-4 0,1.83e-4 0,6.9e-5 0,1.25e-4 0,1.94e-4 0,5.7e-5 0,1.24e-4 0,1.82e-4 0,5.7e-5 0,1.25e-4 0,1.82e-4 0,6.8e-5 0,1.26e-4 0,1.94e-4 0,5.8e-5 0,1.25e-4 0,1.82e-4 0,6.9e-5 0,1.26e-4 0,1.94e-4 0,5.7e-5 0,1.25e-4 0,1.83e-4 0,5.7e-5 0,1.25e-4 0,1.82e-4 0,6.9e-5 0,1.25e-4 0,1.95e-4 0,5.7e-5 0,1.24e-4 0,1.81e-4 0,6.9e-5 0,1.26e-4 0,1.95e-4 0,5.7e-5 0,1.24e-4 0,1.82e-4 0,6.9e-5 0,1.25e-4 0,1.83e-4 0,6.7e-5 0,1.24e-4 0,1.93e-4 0,5.8e-5 0,1.25e-4 0,1.82e-4 0,6.9e-5 0,1.26e-4 0,1.95e-4 0,5.7e-5 0,1.25e-4 0,1.81e-4 0,7e-5 0,1.26e-4 0,1.83e-4 0,6.9e-5 0,1.25e-4 0,1.94e-4 0,5.8e-5 0,1.26e-4 0,1.83e-4 0,6.8e-5 0,1.25e-4 0,1.94e-4 0,5.7e-5 0,1.25e-4 0,1.82e-4 0,6.8e-5 0,1.26e-4 0,1.94e-4 0,5.8e-5 0,1.14e-4 0,1.82e-4 0,5.8e-5 0,1.26e-4 0,1.83e-4 0,6.8e-5 0,1.25e-4 0,1.93e-4 0,5.8e-5 0,1.27e-4 0,1.83e-4 0,6.8e-5 0,1.26e-4 0,1.94e-4 0,5.7e-5 0,1.14e-4 0,1.82e-4 0,5.7e-5 0,1.27e-4 0,1.83e-4 0,6.9e-5 0,1.26e-4 0,1.93e-4 0,5.8e-5 0,1.27e-4 0,1.83e-4 0,6.8e-5 0,1.26e-4 0,1.94e-4 0,5.8e-5 0,1.26e-4 0,1.82e-4 0,5.8e-5 0,1.26e-4 0,1.83e-4 0,6.8e-5 0,1.25e-4 0,1.93e-4 0,5.7e-5 0,1.27e-4 0,1.83e-4 0,6.9e-5 0,1.26e-4 0,1.94e-4 0,5.7e-5 0,1.26e-4 0,1.82e-4 0,5.7e-5 0,1.26e-4 0,1.83e-4 0,6.9e-5 0,1.26e-4 0,1.94e-4 0,5.7e-5 0,1.26e-4 0,1.82e-4 0,6.8e-5 0,1.26e-4 0,1.94e-4 0,5.7e-5 0,1.26e-4 0,1.83e-4 0,6.8e-5 0,1.25e-4 0,1.82e-4 0,6.8e-5 0,1.26e-4 0,1.94e-4 0,5.6e-5 0,1.25e-4 0,1.83e-4 0,6.8e-5 0,1.25e-4 0,1.94e-4 0,5.6e-5 0,1.25e-4 0,1.82e-4 0,6.8e-5 0,1.25e-4 0,1.82e-4 0,6.9e-5 0,1.26e-4 0,1.95e-4 0,5.6e-5 0,1.25e-4 0,1.82e-4 0,6.8e-5 0,1.25e-4 0,1.93e-4 0,5.7e-5 0,1.25e-4 0,1.84e-4 0,6.7e-5 0,1.24e-4 0,1.93e-4 0,5.6e-5 0,1.15e-4 0,1.83e-4 0,5.6e-5 0,1.24e-4 0,1.82e-4 0,6.8e-5 0,1.25e-4 0,1.94e-4 0,5.6e-5 0,1.25e-4 0,1.82e-4 0,6.8e-5 0,1.25e-4 0,1.94e-4 0,5.6e-5 0,1.14e-4 0,1.83e-4 0,5.6e-5 0,1.25e-4 0,1.82e-4 0,6.8e-5 0,1.26e-4 0,1.94e-4 0,5.7e-5 0,1.24e-4 0,1.82e-4 0,6.9e-5 0,1.25e-4 0,1.94e-4 0,5.7e-5 0,1.25e-4 0,1.83e-4 0,5.6e-5 0,1.25e-4 0,1.82e-4 0,6.9e-5 0,1.25e-4 0,1.94e-4 0,5.7e-5 0,1.25e-4 0,1.82e-4 0,6.9e-5 0,1.26e-4 0,1.95e-4 0,5.7e-5 0,1.24e-4 0,1.81e-4 0,5.8e-5 0,1.26e-4 0,1.83e-4 0,6.9e-5 0,1.25e-4 0,1.94e-4 0,5.8e-5 0,1.25e-4 0,1.83e-4 0,6.8e-5 0,1.25e-4 0,1.93e-4 0,5.7e-5 0,1.25e-4 0,1.82e-4 0,6.9e-5 0,1.26e-4 0,1.83e-4 0,6.9e-5 0,1.25e-4 0,1.94e-4 0,5.7e-5 0,1.25e-4 0,1.82e-4 0,6.9e-5 0,1.25e-4 0,1.95e-4 0,5.7e-5 0,1.25e-4 0,1.82e-4 0,6.8e-5 0,1.25e-4 0,1.82e-4 0,6.9e-5 0,1.25e-4 0,1.93e-4 0,5.8e-5 0,1.26e-4 0,1.84e-4 0,6.8e-5 0,1.24e-4 0,1.93e-4 0,5.8e-5 0,1.26e-4 0,1.82e-4 0,6.9e-5 0,1.26e-4 0,1.95e-4 0,5.7e-5 0,1.13e-4 0,1.82e-4 0,5.7e-5 0,1.26e-4 0,1.83e-4 0,6.8e-5 0,1.25e-4 0,1.93e-4 0,5.8e-5 0,1.27e-4 0,1.83e-4 0,6.8e-5 0,1.26e-4 0,1.94e-4 0,5.7e-5 0,1.14e-4 0,1.81e-4 0,5.8e-5 0,1.26e-4 0,1.84e-4 0,6.8e-5 0,1.26e-4 0,1.93e-4 0,5.7e-5 0,1.27e-4 0,1.83e-4 0,6.8e-5 0,1.25e-4 0,1.93e-4 0,5.8e-5 0,1.27e-4 0,1.83e-4 0,5.7e-5 0,1.26e-4 0,1.83e-4 0,6.8e-5 0,1.26e-4 0,1.93e-4 0,5.7e-5 0,1.26e-4 0,1.83e-4 0,6.9e-5 0,1.26e-4 0,1.93e-4 0,5.8e-5 0,1.27e-4 0,1.83e-4 0,5.8e-5 0,1.25e-4 0,1.82e-4 0,6.9e-5 0,1.27e-4 0,1.94e-4 0,5.7e-5 0,1.26e-4 0,1.83e-4 0,6.9e-5 0,1.26e-4 0,1.94e-4 0,5.6e-5 0,1.26e-4 0,1.82e-4 0,6.9e-5 0,1.26e-4 0,1.82e-4 0,6.9e-5 0,1.27e-4 0,1.95e-4 0,5.7e-5 0,1.25e-4 0,1.82e-4 0,6.9e-5 0,1.26e-4 0,1.94e-4 0,5.7e-5 0,1.25e-4 0,1.83e-4 0,6.8e-5 0,1.25e-4 0,1.82e-4 0,6.8e-5 0,1.26e-4 0,1.94e-4 0,5.6e-5 0,1.25e-4 0,1.82e-4 0,6.9e-5 0,1.26e-4 0,1.95e-4 0,5.6e-5 0,1.24e-4 0,1.82e-4 0,6.8e-5 0,1.25e-4 0,1.94e-4 0,5.6e-5 0,1.13e-4 0,1.83e-4 0,5.6e-5 0,1.25e-4 0,1.82e-4 0,6.7e-5 0,1.25e-4 0,1.93e-4 0,5.7e-5 0,1.25e-4 0,1.83e-4 0,6.8e-5 0,1.26e-4 0,1.94e-4 0,5.6e-5 0,1.14e-4 0,1.82e-4 0,5.7e-5 0,1.25e-4 0,1.82e-4 0,6.8e-5 0,1.25e-4 0,1.95e-4 0,5.6e-5 0,1.25e-4 0,1.82e-4 0,6.8e-5 0,1.25e-4 0,1.94e-4 0,5.6e-5 0,1.25e-4 0,1.82e-4 0,5.7e-5 0,1.26e-4 0,1.83e-4 0,6.8e-5 0,1.25e-4 0,1.94e-4 0,5.6e-5 0,1.24e-4 0,1.82e-4 0,6.8e-5 0,1.24e-4 0,1.94e-4 0,5.7e-5 0,1.25e-4 0,1.82e-4 0,5.7e-5 0,1.26e-4 0,1.83e-4 0,6.8e-5 0,1.24e-4 0,1.93e-4 0,5.8e-5 0,1.26e-4 0,1.83e-4 0,6.9e-5 0,1.25e-4 0,1.94e-4 0,5.7e-5 0,1.25e-4 0,1.82e-4 0,6.8e-5 0,1.26e-4 0,1.83e-4 0,6.9e-5 0,1.25e-4 0,1.93e-4 0,5.8e-5 0,1.26e-4 0,1.83e-4 0,6.8e-5 0,1.25e-4 0,1.93e-4 0,5.8e-5 0,1.26e-4 0,1.83e-4 0,6.9e-5 0,1.25e-4 0,1.84e-4 0,6.8e-5 0,1.24e-4 0,1.92e-4 0,5.8e-5 0,1.26e-4 0,1.83e-4 0,6.9e-5 0,1.25e-4 0,1.94e-4 0,5.8e-5 0,1.25e-4 0,1.83e-4 0,6.8e-5 0,1.24e-4 0,1.92e-4 0,5.9e-5 0,1.15e-4 0,1.84e-4 0,5.7e-5 0,1.25e-4 0,1.83e-4 0,6.8e-5 0,1.25e-4 0,1.93e-4 0,5.7e-5 0,1.26e-4 0,1.82e-4 0,6.9e-5 0,1.26e-4 0,1.94e-4 0,5.8e-5 0,1.14e-4 0,1.83e-4 0,5.7e-5 0,1.25e-4 0,1.82e-4 0,6.9e-5 0,1.26e-4 0,1.94e-4 0,5.7e-5 0,1.26e-4 0,1.83e-4 0,6.9e-5 0,1.26e-4 0,1.93e-4 0,5.8e-5 0,1.26e-4 0,1.83e-4 0,5.7e-5 0,1.25e-4 0,1.82e-4 0,6.9e-5 0,1.27e-4 0,1.94e-4 0,5.7e-5 0,1.26e-4 0,1.83e-4 0,6.8e-5 0,1.25e-4 0,1.93e-4 0,5.7e-5 0,1.27e-4 0,1.83e-4 0,5.7e-5 0,1.26e-4 0,1.82e-4 0,6.9e-5 0,1.26e-4 0,1.94e-4 0,5.7e-5 0,1.26e-4 0,1.82e-4 0,7e-5 0,1.27e-4 0,1.94e-4 0,5.8e-5 0,1.26e-4 0,1.83e-4 0,6.8e-5 0,1.26e-4 0,1.82e-4 0,6.8e-5 0,1.27e-4 0,1.94e-4 0,5.8e-5 0,1.26e-4 0,1.82e-4 0,6.9e-5 0,1.27e-4 0,1.95e-4 0,5.6e-5 0,1.25e-4 0,1.82e-4 0,6.9e-5 0,1.26e-4 0,1.82e-4 0,6.9e-5 0,1.26e-4 0,1.95e-4 0,5.7e-5 0,1.25e-4 0,1.82e-4 0,6.8e-5 0,1.26e-4 0,1.95e-4 0,5.6e-5 0,1.24e-4 0,1.82e-4 0,6.8e-5 0,1.25e-4 0,1.93e-4 0,5.7e-5 0,1.14e-4 0,1.82e-4 0,5.8e-5 0,1.26e-4 0,1.83e-4 0,6.8e-5 0,1.25e-4 0,1.95e-4 0,5.6e-5 0,1.24e-4 0,1.81e-4 0,6.8e-5 0,1.26e-4 0,1.95e-4 0,5.6e-5 0,1.13e-4 0,1.82e-4 0,5.7e-5 0,1.26e-4 0,1.83e-4 0,6.7e-5 0,1.24e-4 0,1.94e-4 0,5.6e-5 0,1.24e-4 0,1.82e-4 0,6.7e-5 0,1.25e-4 0,1.94e-4 0,5.6e-5 0,1.25e-4 0,1.82e-4 0,5.6e-5 0,1.25e-4 0,1.83e-4 0,6.7e-5 0,1.24e-4 0,1.93e-4 0,5.7e-5 0,1.26e-4 0,1.83e-4 0,6.8e-5 0,1.24e-4 0,1.94e-4 0,5.6e-5 0,1.25e-4 0,1.82e-4 0,5.6e-5 0,1.25e-4 0,1.83e-4 0,6.8e-5 0,1.25e-4 0,1.93e-4 0,5.7e-5 0,1.26e-4 0,1.83e-4 0,6.8e-5 0,1.25e-4 0,1.93e-4 0,5.8e-5 0,1.26e-4 0,1.83e-4 0,6.9e-5 0,1.25e-4 0,1.83e-4 0,6.8e-5 0,1.24e-4 0,1.93e-4 0,5.7e-5 0,1.26e-4 0,1.83e-4 0,6.9e-5 0,1.25e-4 0,1.93e-4 0,5.8e-5 0,1.26e-4 0,1.83e-4 0,6.9e-5 0,1.25e-4 0,1.82e-4 0,7e-5 0,1.26e-4 0,1.95e-4 0,5.7e-5 0,1.24e-4 0,1.82e-4 0,6.8e-5 0,1.25e-4 0,1.93e-4 0,5.7e-5 0,1.26e-4 0,1.83e-4 0,6.9e-5 0,1.25e-4 0,1.94e-4 0,5.8e-5 0,1.14e-4 0,1.82e-4 0,5.7e-5 0,1.25e-4 0,1.82e-4 0,7e-5 0,1.26e-4 0,1.95e-4 0,5.7e-5 0,1.25e-4 0,1.82e-4 0,6.9e-5 0,1.25e-4 0,1.93e-4 0,5.8e-5 0,1.15e-4 0,1.84e-4 0,5.7e-5 0,1.25e-4 0,1.82e-4 0,6.9e-5 0,1.25e-4 0,1.93e-4 0,5.8e-5 0,1.26e-4 0,1.83e-4 0,6.9e-5 0,1.26e-4 0,1.94e-4 0,5.7e-5 0,1.26e-4 0,1.83e-4 0,5.7e-5 0,1.25e-4 0,1.82e-4 0,6.8e-5 0,1.26e-4 0,1.94e-4 0,5.7e-5 0,1.26e-4 0,1.82e-4 0,6.9e-5 0,1.27e-4 0,1.94e-4 0,5.7e-5 0,1.25e-4 0,1.83e-4 0,5.7e-5 0,1.26e-4 0,1.82e-4 0,6.8e-5 0,1.26e-4 0,1.94e-4 0,5.8e-5 0,1.26e-4 0,1.82e-4 0,6.8e-5 0,1.26e-4 0,1.94e-4 0,5.7e-5 0,1.26e-4 0,1.82e-4 0,7e-5 0,1.27e-4 0,1.83e-4 0,6.8e-5 0,1.26e-4 0,1.94e-4 0,5.7e-5 0,1.26e-4 0,1.82e-4 0,6.9e-5 0,1.27e-4 0,1.95e-4 0,5.7e-5 0,1.25e-4 0,1.81e-4 0,6.9e-5 0,1.27e-4 0,1.83e-4 0,6.8e-5 0,1.26e-4 0,1.94e-4 0,5.8e-5 0,1.26e-4 0,1.83e-4 0,6.8e-5 0,1.25e-4 0,1.94e-4 0,5.6e-5 0,1.25e-4 0,1.82e-4 0,6.8e-5 0,1.26e-4 0,1.95e-4 0,5.6e-5 0,1.13e-4 0,1.82e-4 0,5.6e-5 0,1.25e-4 0,1.82e-4 0,6.8e-5 0,1.25e-4 0,1.94e-4 0,5.7e-5 0,1.26e-4 0,1.83e-4 0,6.7e-5 0,1.25e-4 0,1.93e-4 0,5.7e-5 0,1.14e-4 0,1.82e-4 0,5.7e-5 0,1.26e-4 0,1.84e-4 0,6.7e-5 0,1.24e-4 0,1.93e-4 0,5.7e-5 0,1.25e-4 0,1.82e-4 0,6.8e-5 0,1.25e-4 0,1.95e-4 0,5.6e-5 0,1.25e-4 0,1.82e-4 0,5.6e-5 0,1.25e-4 0,1.83e-4 0,6.7e-5 0,1.24e-4 0,1.93e-4 0,5.6e-5 0,1.26e-4 0,1.83e-4 0,6.7e-5 0,1.25e-4 0,1.93e-4 0,5.7e-5 0,1.25e-4 0,1.83e-4 0,5.6e-5 0,1.24e-4 0,1.83e-4 0,6.7e-5 0,1.24e-4 0,1.93e-4 0,5.6e-5 0,1.26e-4 0,1.83e-4 0,6.8e-5 0,1.25e-4 0,1.93e-4 0,5.7e-5 0,1.26e-4 0,1.83e-4 0,6.9e-5 0,1.25e-4 0,1.82e-4 0,6.9e-5 0,1.26e-4 0,1.94e-4 0,5.7e-5 0,1.25e-4 0,1.83e-4 0,6.8e-5 0,1.25e-4 0,1.93e-4 0,5.8e-5 0,1.26e-4 0,1.83e-4 0,6.9e-5 0,1.25e-4 0,1.82e-4 0,6.8e-5 0,1.26e-4 0,1.94e-4 0,5.7e-5 0,1.25e-4 0,1.82e-4 0,7e-5 0,1.26e-4 0,1.94e-4 0,5.8e-5 0,1.25e-4 0,1.83e-4 0,6.9e-5 0,1.25e-4 0,1.94e-4 0,5.7e-5 0,1.14e-4 0,1.83e-4 0,5.7e-5 0,1.24e-4 0,1.81e-4 0,7e-5 0,1.26e-4 0,1.94e-4 0,5.8e-5 0,1.26e-4 0,1.82e-4 0,7e-5 0,1.26e-4 0,1.95e-4 0,5.7e-5 0,1.13e-4 0,1.82e-4 0,5.7e-5 0,1.26e-4 0,1.82e-4 0,6.9e-5 0,1.26e-4 0,1.95e-4 0,5.7e-5 0,1.26e-4 0,1.82e-4 0,6.9e-5 0,1.26e-4 0,1.94e-4 0,5.7e-5 0,1.25e-4 0,1.83e-4 0,5.7e-5 0,1.26e-4 0,1.82e-4 0,6.8e-5 0,1.26e-4 0,1.93e-4 0,5.8e-5 0,1.26e-4 0,1.83e-4 0,6.8e-5 0,1.26e-4 0,1.94e-4 0,5.7e-5 0,1.26e-4 0,1.82e-4 0,5.8e-5 0,1.26e-4 0,1.82e-4 0,6.9e-5 0,1.26e-4 0,1.95e-4 0,5.7e-5 0,1.26e-4 0,1.82e-4 0,6.9e-5 0,1.26e-4 0,1.94e-4 0,5.7e-5 0,1.26e-4 0,1.82e-4 0,6.8e-5 0,1.27e-4 0,1.83e-4 0,6.9e-5 0,1.26e-4 0,1.93e-4 0,5.8e-5 0,1.26e-4 0,1.83e-4 0,6.8e-5 0,1.25e-4 0,1.94e-4 0,5.7e-5 0,1.26e-4 0,1.82e-4 0,6.9e-5 0,1.26e-4 0,1.83e-4 0,6.8e-5 0,1.26e-4 0,1.94e-4 0,5.6e-5 0,1.26e-4 0,1.82e-4 0,6.9e-5 0,1.26e-4 0,1.95e-4 0,5.7e-5 0,1.25e-4 0,1.82e-4 0,6.7e-5 0,1.25e-4 0,1.94e-4 0,5.7e-5 0,1.14e-4 0,1.82e-4 0,5.7e-5 0,1.26e-4 0,1.83e-4 0,6.8e-5 0,1.25e-4 0,1.93e-4 0,5.7e-5 0,1.26e-4 0,1.83e-4 0,6.8e-5 0,1.25e-4 0,1.94e-4 0,5.7e-5 0,1.14e-4 0,1.82e-4 0,5.7e-5 0,1.25e-4 0,1.83e-4 0,6.8e-5 0,1.25e-4 0,1.94e-4 0,5.6e-5 0,1.26e-4 0,1.83e-4 0,6.7e-5 0,1.24e-4 0,1.92e-4 0,5.8e-5 0,1.26e-4 0,1.83e-4 0,5.7e-5 0,1.25e-4 0,1.84e-4 0,6.7e-5 0,1.25e-4 0,1.93e-4 0,5.6e-5 0,1.24e-4 0,1.82e-4 0,6.8e-5 0,1.25e-4 0,1.94e-4 0,5.6e-5 0,1.26e-4 0,1.83e-4 0,5.6e-5 0,1.25e-4 0,1.82e-4 0,6.8e-5 0,1.25e-4 0,1.94e-4 0,5.6e-5 0,1.25e-4 0,1.83e-4 0,6.8e-5 0,1.25e-4 0,1.93e-4 0,5.7e-5 0,1.25e-4 0,1.83e-4 0,6.8e-5 0,1.24e-4 0,1.82e-4 0,6.8e-5 0,1.26e-4 0,1.94e-4 0,5.7e-5 0,1.25e-4 0,1.82e-4 0,6.9e-5 0,1.25e-4 0,1.94e-4 0,5.7e-5 0,1.25e-4 0,1.83e-4 0,6.9e-5 0,1.25e-4 0,1.82e-4 0,6.9e-5 0,1.25e-4 0,1.94e-4 0,5.7e-5 0,1.25e-4 0,1.82e-4 0,7e-5 0,1.26e-4 0,1.94e-4 0,5.8e-5 0,1.25e-4 0,1.83e-4 0,6.8e-5 0,1.24e-4 0,1.93e-4 0,5.7e-5 0,1.14e-4 0,1.83e-4 0,5.7e-5 0,1.25e-4 0,1.82e-4 0,6.9e-5 0,1.26e-4 0,1.94e-4 0,5.8e-5 0,1.25e-4 0,1.82e-4 0,7e-5 0,1.26e-4 0,1.95e-4 0,5.7e-5 0,1.13e-4 0,1.82e-4 0,5.8e-5 0,1.25e-4 0,1.82e-4 0,6.9e-5 0,1.25e-4 0,1.94e-4 0,5.8e-5 0,1.26e-4 0,1.83e-4 0,6.8e-5 0,1.25e-4 0,1.93e-4 0,5.8e-5 0,1.26e-4 0,1.82e-4 0,5.9e-5 0,1.27e-4 0,1.83e-4 0,6.9e-5 0,1.26e-4 0,1.95e-4 0,5.7e-5 0,1.25e-4 0,1.82e-4 0,6.8e-5 0,1.25e-4 0,1.94e-4 0,5.7e-5 0,1.26e-4 0,1.82e-4 0,5.7e-5 0,1.27e-4 0,1.83e-4 0,6.8e-5 0,1.26e-4 0,1.92e-4 0,5.9e-5 0,1.27e-4 0,1.84e-4 0,6.8e-5 0,1.25e-4 0,1.94e-4 0,5.7e-5 0,1.25e-4 0,1.82e-4 0,6.8e-5 0,1.26e-4 0,1.82e-4 0,6.9e-5 0,1.26e-4 0,1.94e-4 0,5.7e-5 0,1.27e-4 0,1.83e-4 0,6.9e-5 0,1.26e-4 0,1.93e-4 0,5.8e-5 0,1.27e-4 0,1.83e-4 0,6.8e-5 0,1.26e-4 0,1.83e-4 0,6.9e-5 0,1.26e-4 0,1.94e-4 0,5.7e-5 0,1.25e-4 0,1.82e-4 0,6.8e-5 0,1.26e-4 0,1.94e-4 0,5.6e-5 0,1.26e-4 0,1.82e-4 0,6.9e-5 0,1.26e-4 0,1.94e-4 0,5.7e-5 0,1.14e-4 0,1.83e-4 0,5.6e-5 0,1.25e-4 0,1.82e-4 0,6.9e-5 0,1.26e-4 0,1.95e-4 0,5.6e-5 0,1.25e-4 0,1.82e-4 0,6.8e-5 0,1.25e-4 0,1.93e-4 0,5.8e-5 0,1.15e-4 0,1.84e-4 0,5.6e-5 0,1.24e-4 0,1.82e-4 0,6.7e-5 0,1.25e-4 0,1.93e-4 0,5.6e-5 0,1.25e-4 0,1.83e-4 0,6.8e-5 0,1.25e-4 0,1.94e-4 0,5.6e-5 0,1.25e-4 0,1.82e-4 0,5.6e-5 0,1.25e-4 0,1.82e-4 0,6.9e-5 0,1.26e-4 0,1.95e-4 0,5.6e-5 0,1.25e-4 0,1.82e-4 0,6.8e-5 0,1.25e-4 0,1.93e-4 0,5.7e-5 0,1.26e-4 0,1.84e-4 0,5.6e-5 0,1.24e-4 0,1.82e-4 0,6.7e-5 0,1.25e-4 0,1.93e-4 0,5.7e-5 0,1.25e-4 0,1.82e-4 0,6.9e-5 0,1.26e-4 0,1.95e-4 0,5.6e-5 0,1.25e-4 0,1.83e-4 0,6.8e-5 0,1.24e-4 0,1.81e-4 0,6.9e-5 0,1.26e-4 0,1.95e-4 0,5.6e-5 0,1.25e-4 0,1.82e-4 0,6.9e-5 0,1.26e-4 0,1.94e-4 0,5.7e-5 0,1.24e-4 0,1.82e-4 0,6.9e-5 0,1.26e-4 0,1.83e-4 0,6.8e-5 0,1.25e-4 0,1.94e-4 0,5.7e-5 0,1.24e-4 0,1.82e-4 0,6.8e-5 0,1.25e-4 0,1.94e-4 0,5.7e-5 0,1.25e-4 0,1.82e-4 0,7e-5 0,1.26e-4 0,1.94e-4 0,5.7e-5 0,1.14e-4 0,1.82e-4 0,5.8e-5 0,1.26e-4 0,1.83e-4 0,6.9e-5 0,1.25e-4 0,1.94e-4 0,5.8e-5 0,1.25e-4 0,1.83e-4 0,6.8e-5 0,1.25e-4 0,1.93e-4 0,5.7e-5 0,1.14e-4 0,1.82e-4 0,5.9e-5 0,1.26e-4 0,1.83e-4 0,6.9e-5 0,1.25e-4 0,1.94e-4 0,5.7e-5 0,1.25e-4 0,1.82e-4 0,6.9e-5 0,1.25e-4 0,1.95e-4 0,5.7e-5 0,1.25e-4 0,1.82e-4 0,5.7e-5 0,1.25e-4 0,1.82e-4 0,6.9e-5 0,1.25e-4 0,1.94e-4 0,5.8e-5 0,1.26e-4 0,1.83e-4 0,6.8e-5 0,1.25e-4 0,1.93e-4 0,5.7e-5 0,1.26e-4 0,1.82e-4 0,5.8e-5 0,1.26e-4 0,1.84e-4 0,6.8e-5 0,1.25e-4 0,1.93e-4 0,5.7e-5 0,1.26e-4 0,1.82e-4 0,6.9e-5 0,1.26e-4 0,1.94e-4 0,5.8e-5 0,1.27e-4 0,1.83e-4 0,6.9e-5 0,1.26e-4 0,1.83e-4 0,6.8e-5 0,1.25e-4 0,1.93e-4 0,5.7e-5 0,1.27e-4 0,1.83e-4 0,6.8e-5 0,1.26e-4 0,1.93e-4 0,5.7e-5 0,1.26e-4 0,1.83e-4 0,6.8e-5 0,1.25e-4 0,1.81e-4 0,7e-5 0,1.27e-4 0,1.95e-4 0,5.7e-5 0,1.26e-4 0,1.83e-4 0,6.8e-5 0,1.25e-4 0,1.93e-4 0,5.7e-5 0,1.27e-4 0,1.83e-4 0,6.9e-5 0,1.26e-4 0,1.94e-4 0,5.7e-5 0,1.15e-4 0,1.82e-4 0,5.7e-5 0,1.25e-4 0,1.82e-4 0,6.9e-5 0,1.27e-4 0,1.95e-4 0,5.6e-5 0,1.25e-4 0,1.82e-4 0,6.8e-5 0,1.26e-4 0,1.94e-4 0,5.6e-5 0,1.14e-4 0,1.83e-4 0,5.6e-5 0,1.25e-4 0,1.82e-4 0,6.9e-5 0,1.26e-4 0,1.94e-4 0,5.7e-5 0,1.25e-4 0,1.82e-4 0,6.9e-5 0,1.26e-4 0,1.94e-4 0,5.7e-5 0,1.25e-4 0,1.84e-4 0,5.6e-5 0,1.25e-4 0,1.82e-4 0,6.6e-5 0,1.25e-4 0,1.93e-4 0,5.7e-5 0,1.25e-4 0,1.82e-4 0,6.9e-5 0,1.26e-4 0,1.95e-4 0,5.6e-5 0,1.24e-4 0,1.82e-4 z M 6.3867842,9.384307 C 6.4466222,8.081867 7.5120993,7.109797 8.7308629,7.159436 L 8.8004689,5.4503202 C 6.6011942,5.3607447 4.7792301,7.103694 4.6780579,9.305806 Z m 2.380558,-2.224168 c 0.3024905,-5.92e-4 0.6031447,0.05279 0.8886542,0.15811 L 10.247984,5.713433 C 9.7724691,5.5380125 9.2702579,5.4486204 8.7639876,5.4496125 Z M 10.716445,6.899329 C 11.354472,5.6275159 12.633721,4.85227 14.004538,4.8792621 l 0.03363,-1.7101838 C 11.991243,3.1287555 10.113423,4.2866466 9.1875247,6.132353 Z m 3.341348,-2.0206702 c 1.860826,-0.079472 3.469979,1.4035346 3.55653,3.3648602 l 1.70882,-0.07535 C 19.196902,5.3047877 16.828845,3.0482238 13.984807,3.1696826 Z m 3.555618,3.3279142 c 3.42e-4,0.318854 -0.04857,0.635496 -0.144481,0.9381 l 1.630475,0.517081 c 0.149273,-0.470715 0.224993,-0.962286 0.224536,-1.456641 z m 0.546116,2.042794 c 1.035668,0.152578 1.842695,1.052087 1.880441,2.165985 l 1.709616,-0.05793 C 21.684804,10.448355 20.292328,8.834505 18.408807,8.557079 Z m 1.880898,2.09802 c -0.05941,1.303195 -1.125528,2.275802 -2.344908,2.22574 l -0.07025,1.709161 c 2.200425,0.09031 4.023392,-1.65374 4.123857,-3.857015 z m -7.185134,7.64173 v -6.842115 h -1.710529 v 6.842115 z m -0.242897,0.597089 2.223689,-2.280704 -1.224739,-1.194178 -2.223687,2.280704 z m 0,-1.194178 -2.223685,-2.280704 -1.2247517,1.194178 2.2236997,2.280704 z"
     fill="#000000"
     id="path1"
     style="fill:#e2e2e2;fill-opacity:1;stroke-width:1.14035" />
</svg>
