<?xml version="1.0" encoding="UTF-8" standalone="no"?>
<!-- Uploaded to: SVG Repo, www.svgrepo.com, Generator: SVG Repo Mixer Tools -->

<svg
   width="800px"
   height="800px"
   viewBox="0 0 24 24"
   fill="none"
   version="1.1"
   id="svg1"
   sodipodi:docname="cloud-upload.svg"
   inkscape:version="1.3.2 (091e20e, 2023-11-25, custom)"
   xmlns:inkscape="http://www.inkscape.org/namespaces/inkscape"
   xmlns:sodipodi="http://sodipodi.sourceforge.net/DTD/sodipodi-0.dtd"
   xmlns="http://www.w3.org/2000/svg"
   xmlns:svg="http://www.w3.org/2000/svg">
  <defs
     id="defs1" />
  <sodipodi:namedview
     id="namedview1"
     pagecolor="#505050"
     bordercolor="#eeeeee"
     borderopacity="1"
     inkscape:showpageshadow="0"
     inkscape:pageopacity="0"
     inkscape:pagecheckerboard="0"
     inkscape:deskcolor="#505050"
     inkscape:zoom="1.00625"
     inkscape:cx="400"
     inkscape:cy="400"
     inkscape:window-width="1920"
     inkscape:window-height="1009"
     inkscape:window-x="-8"
     inkscape:window-y="-8"
     inkscape:window-maximized="1"
     inkscape:current-layer="svg1" />
  <path
     d="M 6.3747207,16.277595 C 6.8466785,16.25821 7.2135527,15.859884 7.1941668,15.387893 7.1747807,14.9159 6.776467,14.549048 6.3045205,14.568435 Z M 3.1052609,12.381694 2.2503956,12.355586 c -6.615e-4,0.02167 -4.904e-4,0.04333 4.904e-4,0.065 z m 2.427161,-2.945542 0.1730942,0.837601 C 6.1027465,10.191643 6.3876865,9.841787 6.3876865,9.436152 Z m 0,-0.09579 -0.8543636,-0.03925 c -6.044e-4,0.01306 -9.019e-4,0.02616 -9.019e-4,0.03925 z M 8.765664,6.3001835 8.730854,7.154742 c 0.01215,4.89e-4 0.02431,7.29e-4 0.03648,7.06e-4 z M 9.951995,6.5111488 9.655994,7.313557 c 0.408623,0.150732 0.86522,-0.02965 1.060448,-0.41892 z m 4.069304,-2.4916711 -0.01676,0.8550936 c 0.01779,3.535e-4 0.03558,1.483e-4 0.05326,-6.043e-4 z m 4.447376,4.1816733 0.855264,-7.29e-4 c 0,-0.01232 -2.27e-4,-0.02465 -7.98e-4,-0.03694 z m -0.18451,1.19737 -0.815237,-0.258541 c -0.07583,0.239031 -0.04288,0.499293 0.08997,0.711957 0.132965,0.212562 0.352597,0.356132 0.600623,0.392738 z m 2.610609,2.983175 0.854354,0.03889 c 0.0011,-0.02258 0.0011,-0.04527 4.55e-4,-0.06785 z m -3.199259,2.18674 c -0.471992,-0.01938 -0.870204,0.347465 -0.889589,0.819458 -0.0195,0.471991 0.347466,0.870317 0.819343,0.889702 z M 12.855289,13.14231 c 0,-0.472334 -0.382931,-0.855263 -0.855266,-0.855263 -0.472334,0 -0.855263,0.382929 -0.855263,0.855263 z m -1.710529,6.842117 c 0,0.472334 0.382929,0.855265 0.855263,0.855265 0.472335,0 0.855266,-0.382931 0.855266,-0.855265 z M 12.612393,13.7394 c 0.32979,-0.338229 0.322834,-0.879669 -0.01529,-1.209459 -0.338228,-0.32979 -0.879667,-0.322947 -1.209458,0.01529 z m -3.448438,1.086527 c -0.329744,0.338229 -0.322891,0.879669 0.01532,1.209459 0.338206,0.329789 0.87968,0.322833 1.209436,-0.01529 z m 3.448438,-2.280705 c -0.32979,-0.338228 -0.871229,-0.345071 -1.209458,-0.01529 -0.338229,0.32979 -0.345071,0.871229 -0.01529,1.209457 z m 0.99895,3.474883 c 0.329789,0.338114 0.871229,0.34507 1.209457,0.01529 0.338114,-0.32979 0.345071,-0.87123 0.01529,-1.209458 z M 6.3045205,14.568435 C 5.0851642,14.618493 4.0190371,13.64589 3.9596475,12.342694 l -1.7087615,0.07788 c 0.1004305,2.203275 1.9234671,3.94733 4.1238347,3.857015 z M 3.9601264,12.407808 c 0.032409,-1.059045 0.7688373,-1.932326 1.7453897,-2.134055 L 5.3593278,8.598586 C 3.5803889,8.966224 2.3061588,10.533069 2.2503956,12.355581 Z M 6.3876865,9.436152 c 0,-5.7e-5 0,-1.25e-4 0,-1.82e-4 0,-6.8e-5 0,-1.25e-4 0,-1.95e-4 0,-5.6e-5 0,-1.24e-4 0,-1.82e-4 0,-6.8e-5 0,-1.25e-4 0,-1.94e-4 0,-5.6e-5 0,-1.24e-4 0,-1.82e-4 0,-5.7e-5 0,-1.25e-4 0,-1.83e-4 0,-6.8e-5 0,-1.24e-4 0,-1.94e-4 0,-5.6e-5 0,-1.24e-4 0,-1.82e-4 0,-6.8e-5 0,-1.24e-4 0,-1.94e-4 0,-5.7e-5 0,-1.25e-4 0,-1.82e-4 0,-6.8e-5 0,-1.25e-4 0,-1.83e-4 0,-6.8e-5 0,-1.24e-4 0,-1.93e-4 0,-5.8e-5 0,-1.26e-4 0,-1.83e-4 0,-6.8e-5 0,-1.25e-4 0,-1.94e-4 0,-5.7e-5 0,-1.25e-4 0,-1.82e-4 0,-6.8e-5 0,-1.25e-4 0,-1.83e-4 0,-6.8e-5 0,-1.25e-4 0,-1.94e-4 0,-5.6e-5 0,-1.25e-4 0,-1.82e-4 0,-6.8e-5 0,-1.25e-4 0,-1.93e-4 0,-5.8e-5 0,-1.26e-4 0,-1.84e-4 0,-6.8e-5 0,-1.24e-4 0,-1.93e-4 0,-5.7e-5 0,-1.14e-4 0,-1.82e-4 0,-5.7e-5 0,-1.26e-4 0,-1.84e-4 0,-6.8e-5 0,-1.24e-4 0,-1.92e-4 0,-5.8e-5 0,-1.26e-4 0,-1.83e-4 0,-6.9e-5 0,-1.25e-4 0,-1.93e-4 0,-5.9e-5 0,-1.15e-4 0,-1.83e-4 0,-5.8e-5 0,-1.26e-4 0,-1.83e-4 0,-6.9e-5 0,-1.25e-4 0,-1.93e-4 0,-5.8e-5 0,-1.27e-4 0,-1.83e-4 0,-6.9e-5 0,-1.26e-4 0,-1.94e-4 0,-5.8e-5 0,-1.26e-4 0,-1.82e-4 0,-5.8e-5 0,-1.26e-4 0,-1.82e-4 0,-7e-5 0,-1.27e-4 0,-1.95e-4 0,-5.7e-5 0,-1.25e-4 0,-1.82e-4 0,-6.9e-5 0,-1.26e-4 0,-1.94e-4 0,-5.7e-5 0,-1.26e-4 0,-1.83e-4 0,-5.7e-5 0,-1.25e-4 0,-1.82e-4 0,-6.9e-5 0,-1.26e-4 0,-1.94e-4 0,-5.7e-5 0,-1.25e-4 0,-1.82e-4 0,-7e-5 0,-1.26e-4 0,-1.94e-4 0,-5.8e-5 0,-1.26e-4 0,-1.83e-4 0,-6.9e-5 0,-1.25e-4 0,-1.82e-4 0,-6.9e-5 0,-1.26e-4 0,-1.94e-4 0,-5.8e-5 0,-1.26e-4 0,-1.82e-4 0,-7e-5 0,-1.26e-4 0,-1.94e-4 0,-5.8e-5 0,-1.26e-4 0,-1.83e-4 0,-6.8e-5 0,-1.26e-4 0,-1.82e-4 0,-6.8e-5 0,-1.26e-4 0,-1.94e-4 0,-5.8e-5 0,-1.26e-4 0,-1.82e-4 0,-6.8e-5 0,-1.27e-4 0,-1.95e-4 0,-5.6e-5 0,-1.25e-4 0,-1.82e-4 0,-6.8e-5 0,-1.26e-4 0,-1.94e-4 0,-5.6e-5 0,-1.14e-4 0,-1.83e-4 0,-5.6e-5 0,-1.25e-4 0,-1.82e-4 0,-6.8e-5 0,-1.26e-4 0,-1.94e-4 0,-5.6e-5 0,-1.25e-4 0,-1.82e-4 0,-6.8e-5 0,-1.26e-4 0,-1.94e-4 0,-5.7e-5 0,-1.14e-4 0,-1.82e-4 0,-5.7e-5 0,-1.26e-4 0,-1.83e-4 0,-6.8e-5 0,-1.25e-4 0,-1.94e-4 0,-5.7e-5 0,-1.26e-4 0,-1.82e-4 0,-6.8e-5 0,-1.26e-4 0,-1.94e-4 0,-5.7e-5 0,-1.26e-4 0,-1.82e-4 0,-5.7e-5 0,-1.27e-4 0,-1.83e-4 0,-6.8e-5 0,-1.26e-4 0,-1.94e-4 0,-5.7e-5 0,-1.26e-4 0,-1.82e-4 0,-6.8e-5 0,-1.26e-4 0,-1.95e-4 0,-5.6e-5 0,-1.24e-4 0,-1.82e-4 0,-5.6e-5 0,-1.26e-4 0,-1.82e-4 0,-6.8e-5 0,-1.26e-4 0,-1.94e-4 0,-5.7e-5 0,-1.25e-4 0,-1.83e-4 0,-6.8e-5 0,-1.24e-4 0,-1.94e-4 0,-5.6e-5 0,-1.24e-4 0,-1.82e-4 0,-6.8e-5 0,-1.24e-4 0,-1.83e-4 0,-6.8e-5 0,-1.24e-4 0,-1.93e-4 0,-5.7e-5 0,-1.25e-4 0,-1.83e-4 0,-6.8e-5 0,-1.24e-4 0,-1.93e-4 0,-5.8e-5 0,-1.26e-4 0,-1.83e-4 0,-6.8e-5 0,-1.25e-4 0,-1.83e-4 0,-6.8e-5 0,-1.24e-4 0,-1.93e-4 0,-5.7e-5 0,-1.26e-4 0,-1.83e-4 0,-6.8e-5 0,-1.25e-4 0,-1.94e-4 0,-5.6e-5 0,-1.25e-4 0,-1.82e-4 0,-6.8e-5 0,-1.25e-4 0,-1.94e-4 0,-5.7e-5 0,-1.14e-4 0,-1.83e-4 0,-5.6e-5 0,-1.24e-4 0,-1.82e-4 0,-6.8e-5 0,-1.25e-4 0,-1.94e-4 0,-5.6e-5 0,-1.25e-4 0,-1.83e-4 0,-6.8e-5 0,-1.24e-4 0,-1.92e-4 0,-5.8e-5 0,-1.15e-4 0,-1.84e-4 0,-5.6e-5 0,-1.24e-4 0,-1.82e-4 0,-6.9e-5 0,-1.25e-4 0,-1.93e-4 0,-5.8e-5 0,-1.26e-4 0,-1.84e-4 0,-6.8e-5 0,-1.24e-4 0,-1.92e-4 0,-5.8e-5 0,-1.27e-4 0,-1.83e-4 0,-5.8e-5 0,-1.26e-4 0,-1.82e-4 0,-7e-5 0,-1.26e-4 0,-1.94e-4 0,-5.8e-5 0,-1.26e-4 0,-1.82e-4 0,-7e-5 0,-1.27e-4 0,-1.95e-4 0,-5.7e-5 0,-1.25e-4 0,-1.82e-4 0,-5.8e-5 0,-1.26e-4 0,-1.82e-4 0,-6.9e-5 0,-1.27e-4 0,-1.95e-4 0,-5.7e-5 0,-1.25e-4 0,-1.82e-4 0,-6.9e-5 0,-1.26e-4 0,-1.94e-4 0,-5.7e-5 0,-1.25e-4 0,-1.83e-4 0,-6.9e-5 0,-1.25e-4 0,-1.82e-4 0,-6.9e-5 0,-1.25e-4 0,-1.94e-4 0,-5.7e-5 0,-1.25e-4 0,-1.82e-4 0,-6.9e-5 0,-1.26e-4 0,-1.94e-4 0,-5.8e-5 0,-1.26e-4 0,-1.82e-4 0,-7e-5 0,-1.26e-4 0,-1.83e-4 0,-6.9e-5 0,-1.25e-4 0,-1.94e-4 0,-5.8e-5 0,-1.26e-4 0,-1.82e-4 0,-6.8e-5 0,-1.26e-4 0,-1.94e-4 0,-5.8e-5 0,-1.26e-4 0,-1.82e-4 0,-6.8e-5 0,-1.27e-4 0,-1.95e-4 0,-5.6e-5 0,-1.14e-4 0,-1.82e-4 0,-5.8e-5 0,-1.26e-4 0,-1.82e-4 0,-6.8e-5 0,-1.26e-4 0,-1.95e-4 0,-5.6e-5 0,-1.25e-4 0,-1.82e-4 0,-6.8e-5 0,-1.26e-4 0,-1.94e-4 0,-5.6e-5 0,-1.14e-4 0,-1.82e-4 0,-5.6e-5 0,-1.26e-4 0,-1.83e-4 0,-6.8e-5 0,-1.25e-4 0,-1.93e-4 0,-5.7e-5 0,-1.26e-4 0,-1.83e-4 0,-6.8e-5 0,-1.25e-4 0,-1.94e-4 0,-5.7e-5 0,-1.26e-4 0,-1.82e-4 0,-5.7e-5 0,-1.26e-4 0,-1.83e-4 0,-6.8e-5 0,-1.25e-4 0,-1.93e-4 0,-5.8e-5 0,-1.27e-4 0,-1.83e-4 0,-6.8e-5 0,-1.26e-4 0,-1.94e-4 0,-5.7e-5 0,-1.26e-4 0,-1.82e-4 0,-5.7e-5 0,-1.26e-4 0,-1.83e-4 0,-6.8e-5 0,-1.26e-4 0,-1.94e-4 0,-5.6e-5 0,-1.26e-4 0,-1.82e-4 0,-6.8e-5 0,-1.26e-4 0,-1.94e-4 0,-5.7e-5 0,-1.25e-4 0,-1.83e-4 0,-6.8e-5 0,-1.24e-4 0,-1.82e-4 0,-6.8e-5 0,-1.26e-4 0,-1.94e-4 0,-5.6e-5 0,-1.24e-4 0,-1.83e-4 0,-6.8e-5 0,-1.24e-4 0,-1.93e-4 0,-5.7e-5 0,-1.25e-4 0,-1.83e-4 0,-6.8e-5 0,-1.24e-4 0,-1.82e-4 0,-6.9e-5 0,-1.25e-4 0,-1.94e-4 0,-5.7e-5 0,-1.25e-4 0,-1.83e-4 0,-6.8e-5 0,-1.24e-4 0,-1.93e-4 0,-5.7e-5 0,-1.26e-4 0,-1.83e-4 0,-6.8e-5 0,-1.25e-4 0,-1.94e-4 0,-5.6e-5 0,-1.13e-4 0,-1.82e-4 0,-5.7e-5 0,-1.25e-4 0,-1.82e-4 0,-6.9e-5 0,-1.26e-4 0,-1.95e-4 0,-5.6e-5 0,-1.24e-4 0,-1.82e-4 0,-6.8e-5 0,-1.25e-4 0,-1.94e-4 0,-5.6e-5 0,-1.14e-4 0,-1.83e-4 0,-5.6e-5 0,-1.24e-4 0,-1.82e-4 0,-6.8e-5 0,-1.25e-4 0,-1.94e-4 0,-5.6e-5 0,-1.24e-4 0,-1.82e-4 0,-6.9e-5 0,-1.25e-4 0,-1.93e-4 0,-5.8e-5 0,-1.26e-4 0,-1.84e-4 0,-5.6e-5 0,-1.24e-4 0,-1.82e-4 0,-6.8e-5 0,-1.25e-4 0,-1.93e-4 0,-5.8e-5 0,-1.26e-4 0,-1.82e-4 0,-7e-5 0,-1.26e-4 0,-1.94e-4 0,-5.8e-5 0,-1.26e-4 0,-1.82e-4 0,-5.9e-5 0,-1.27e-4 0,-1.83e-4 0,-6.9e-5 0,-1.26e-4 0,-1.94e-4 0,-5.8e-5 0,-1.26e-4 0,-1.82e-4 0,-6.9e-5 0,-1.27e-4 0,-1.95e-4 0,-5.7e-5 0,-1.25e-4 0,-1.82e-4 0,-6.9e-5 0,-1.26e-4 0,-1.82e-4 0,-6.9e-5 0,-1.26e-4 0,-1.95e-4 0,-5.7e-5 0,-1.25e-4 0,-1.82e-4 0,-6.9e-5 0,-1.25e-4 0,-1.94e-4 0,-5.7e-5 0,-1.25e-4 0,-1.82e-4 0,-6.9e-5 0,-1.26e-4 0,-1.83e-4 0,-6.9e-5 0,-1.25e-4 0,-1.93e-4 0,-5.8e-5 0,-1.26e-4 0,-1.83e-4 0,-6.9e-5 0,-1.25e-4 0,-1.94e-4 0,-5.8e-5 0,-1.26e-4 0,-1.82e-4 0,-6.8e-5 0,-1.26e-4 0,-1.94e-4 0,-5.8e-5 0,-1.14e-4 0,-1.82e-4 0,-5.8e-5 0,-1.27e-4 0,-1.83e-4 0,-6.8e-5 0,-1.26e-4 0,-1.94e-4 0,-5.8e-5 0,-1.26e-4 0,-1.82e-4 0,-6.8e-5 0,-1.26e-4 0,-1.95e-4 0,-5.6e-5 0,-1.14e-4 0,-1.82e-4 0,-5.6e-5 0,-1.26e-4 0,-1.82e-4 0,-6.8e-5 0,-1.26e-4 0,-1.94e-4 0,-5.6e-5 0,-1.26e-4 0,-1.83e-4 0,-6.8e-5 0,-1.25e-4 0,-1.93e-4 0,-5.7e-5 0,-1.26e-4 0,-1.83e-4 0,-5.6e-5 0,-1.25e-4 0,-1.83e-4 0,-6.8e-5 0,-1.25e-4 0,-1.93e-4 0,-5.7e-5 0,-1.26e-4 0,-1.83e-4 0,-6.8e-5 0,-1.25e-4 0,-1.93e-4 0,-5.8e-5 0,-1.27e-4 0,-1.83e-4 0,-5.7e-5 0,-1.26e-4 0,-1.82e-4 0,-6.9e-5 0,-1.26e-4 0,-1.94e-4 0,-5.7e-5 0,-1.26e-4 0,-1.83e-4 0,-6.8e-5 0,-1.26e-4 0,-1.94e-4 0,-5.6e-5 0,-1.26e-4 0,-1.82e-4 0,-6.8e-5 0,-1.26e-4 0,-1.82e-4 0,-6.9e-5 0,-1.27e-4 0,-1.95e-4 0,-5.6e-5 0,-1.24e-4 0,-1.82e-4 0,-6.8e-5 0,-1.26e-4 0,-1.94e-4 0,-5.6e-5 0,-1.24e-4 0,-1.83e-4 0,-6.8e-5 0,-1.24e-4 0,-1.82e-4 0,-6.8e-5 0,-1.26e-4 0,-1.94e-4 0,-5.6e-5 0,-1.24e-4 0,-1.82e-4 0,-6.9e-5 0,-1.25e-4 0,-1.94e-4 0,-5.7e-5 0,-1.25e-4 0,-1.83e-4 0,-6.8e-5 0,-1.24e-4 0,-1.93e-4 0,-5.7e-5 0,-1.13e-4 0,-1.83e-4 0,-5.7e-5 0,-1.25e-4 0,-1.82e-4 0,-6.8e-5 0,-1.25e-4 0,-1.94e-4 0,-5.7e-5 0,-1.25e-4 0,-1.82e-4 0,-6.9e-5 0,-1.26e-4 0,-1.95e-4 0,-5.6e-5 0,-1.13e-4 0,-1.82e-4 0,-5.7e-5 0,-1.25e-4 0,-1.82e-4 0,-6.8e-5 0,-1.26e-4 0,-1.95e-4 0,-5.6e-5 0,-1.24e-4 0,-1.82e-4 0,-6.8e-5 0,-1.25e-4 0,-1.94e-4 0,-5.6e-5 0,-1.24e-4 0,-1.82e-4 0,-5.7e-5 0,-1.25e-4 0,-1.83e-4 0,-6.8e-5 0,-1.24e-4 0,-1.94e-4 0,-5.6e-5 0,-1.24e-4 0,-1.82e-4 0,-6.8e-5 0,-1.25e-4 0,-1.93e-4 0,-5.8e-5 0,-1.26e-4 0,-1.82e-4 0,-5.8e-5 0,-1.26e-4 0,-1.84e-4 0,-6.8e-5 0,-1.24e-4 0,-1.92e-4 0,-5.9e-5 0,-1.27e-4 0,-1.83e-4 0,-6.9e-5 0,-1.26e-4 0,-1.94e-4 0,-5.8e-5 0,-1.26e-4 0,-1.82e-4 0,-6.9e-5 0,-1.27e-4 0,-1.83e-4 0,-6.9e-5 0,-1.26e-4 0,-1.94e-4 0,-5.8e-5 0,-1.26e-4 0,-1.82e-4 0,-6.9e-5 0,-1.26e-4 0,-1.95e-4 0,-5.7e-5 0,-1.25e-4 0,-1.82e-4 0,-6.9e-5 0,-1.25e-4 0,-1.82e-4 0,-6.9e-5 0,-1.26e-4 0,-1.94e-4 0,-5.7e-5 0,-1.26e-4 0,-1.83e-4 0,-6.9e-5 0,-1.25e-4 0,-1.93e-4 0,-5.8e-5 0,-1.26e-4 0,-1.83e-4 0,-6.9e-5 0,-1.25e-4 0,-1.94e-4 0,-5.8e-5 0,-1.14e-4 0,-1.82e-4 0,-5.8e-5 0,-1.26e-4 0,-1.83e-4 0,-6.9e-5 0,-1.25e-4 0,-1.93e-4 0,-5.8e-5 0,-1.27e-4 0,-1.83e-4 0,-6.8e-5 0,-1.26e-4 0,-1.94e-4 0,-5.8e-5 0,-1.14e-4 0,-1.82e-4 0,-5.8e-5 0,-1.26e-4 0,-1.83e-4 0,-6.8e-5 0,-1.26e-4 0,-1.94e-4 0,-5.6e-5 0,-1.26e-4 0,-1.82e-4 0,-6.8e-5 0,-1.26e-4 0,-1.94e-4 0,-5.7e-5 0,-1.26e-4 0,-1.83e-4 0,-5.6e-5 0,-1.25e-4 0,-1.82e-4 0,-6.8e-5 0,-1.26e-4 0,-1.94e-4 0,-5.6e-5 0,-1.25e-4 0,-1.83e-4 0,-6.8e-5 0,-1.25e-4 0,-1.93e-4 0,-5.7e-5 0,-1.26e-4 0,-1.83e-4 0,-5.6e-5 0,-1.25e-4 0,-1.82e-4 0,-6.9e-5 0,-1.26e-4 0,-1.94e-4 0,-5.7e-5 0,-1.26e-4 0,-1.82e-4 0,-6.9e-5 0,-1.26e-4 0,-1.94e-4 0,-5.7e-5 0,-1.26e-4 0,-1.83e-4 0,-6.8e-5 0,-1.26e-4 0,-1.82e-4 0,-6.8e-5 0,-1.26e-4 0,-1.94e-4 0,-5.7e-5 0,-1.26e-4 0,-1.82e-4 0,-6.9e-5 0,-1.27e-4 0,-1.95e-4 0,-5.6e-5 0,-1.24e-4 0,-1.82e-4 0,-6.8e-5 0,-1.26e-4 0,-1.82e-4 0,-6.8e-5 0,-1.26e-4 0,-1.95e-4 0,-5.6e-5 0,-1.24e-4 0,-1.82e-4 0,-6.8e-5 0,-1.26e-4 0,-1.94e-4 0,-5.6e-5 0,-1.24e-4 0,-1.82e-4 0,-6.9e-5 0,-1.25e-4 0,-1.94e-4 0,-5.7e-5 0,-1.13e-4 0,-1.83e-4 0,-5.6e-5 0,-1.24e-4 0,-1.82e-4 0,-6.8e-5 0,-1.25e-4 0,-1.94e-4 0,-5.7e-5 0,-1.25e-4 0,-1.82e-4 0,-6.8e-5 0,-1.25e-4 0,-1.94e-4 0,-5.7e-5 0,-1.13e-4 0,-1.82e-4 0,-5.8e-5 0,-1.26e-4 0,-1.83e-4 0,-6.8e-5 0,-1.25e-4 0,-1.94e-4 0,-5.7e-5 0,-1.25e-4 0,-1.82e-4 0,-6.8e-5 0,-1.26e-4 0,-1.95e-4 0,-5.6e-5 0,-1.24e-4 0,-1.82e-4 0,-5.6e-5 0,-1.25e-4 0,-1.82e-4 0,-6.8e-5 0,-1.25e-4 0,-1.94e-4 0,-5.7e-5 0,-1.25e-4 0,-1.83e-4 0,-6.8e-5 0,-1.24e-4 0,-1.94e-4 0,-5.6e-5 0,-1.24e-4 0,-1.82e-4 0,-5.6e-5 0,-1.25e-4 0,-1.83e-4 0,-6.8e-5 0,-1.24e-4 0,-1.92e-4 0,-5.8e-5 0,-1.26e-4 0,-1.84e-4 0,-6.8e-5 0,-1.24e-4 0,-1.93e-4 0,-5.8e-5 0,-1.26e-4 0,-1.82e-4 0,-6.9e-5 0,-1.26e-4 0,-1.84e-4 0,-6.8e-5 0,-1.24e-4 0,-1.92e-4 0,-5.8e-5 0,-1.27e-4 0,-1.83e-4 0,-6.9e-5 0,-1.26e-4 0,-1.94e-4 0,-5.8e-5 0,-1.26e-4 0,-1.82e-4 0,-6.9e-5 0,-1.26e-4 0,-1.83e-4 0,-6.9e-5 0,-1.26e-4 0,-1.94e-4 0,-5.7e-5 0,-1.25e-4 0,-1.82e-4 0,-6.9e-5 0,-1.26e-4 0,-1.94e-4 0,-5.7e-5 0,-1.26e-4 0,-1.83e-4 0,-6.9e-5 0,-1.25e-4 0,-1.93e-4 0,-5.8e-5 0,-1.15e-4 0,-1.83e-4 0,-5.7e-5 0,-1.25e-4 0,-1.83e-4 0,-6.9e-5 0,-1.25e-4 0,-1.93e-4 0,-5.8e-5 0,-1.26e-4 0,-1.83e-4 0,-6.9e-5 0,-1.25e-4 0,-1.93e-4 0,-5.8e-5 0,-1.15e-4 0,-1.83e-4 0,-5.8e-5 0,-1.26e-4 0,-1.82e-4 0,-7e-5 0,-1.26e-4 0,-1.94e-4 0,-5.8e-5 0,-1.26e-4 0,-1.83e-4 0,-6.8e-5 0,-1.26e-4 0,-1.94e-4 0,-5.6e-5 0,-1.26e-4 0,-1.82e-4 0,-5.8e-5 0,-1.26e-4 0,-1.82e-4 0,-6.9e-5 0,-1.27e-4 0,-1.95e-4 0,-5.6e-5 0,-1.25e-4 0,-1.82e-4 0,-6.8e-5 0,-1.26e-4 0,-1.94e-4 0,-5.6e-5 0,-1.25e-4 0,-1.83e-4 0,-5.6e-5 0,-1.25e-4 0,-1.82e-4 0,-6.8e-5 0,-1.26e-4 0,-1.94e-4 0,-5.6e-5 0,-1.25e-4 0,-1.82e-4 0,-6.9e-5 0,-1.26e-4 0,-1.94e-4 0,-5.7e-5 0,-1.26e-4 0,-1.83e-4 0,-6.8e-5 0,-1.25e-4 0,-1.82e-4 0,-6.8e-5 0,-1.25e-4 0,-1.94e-4 0,-5.7e-5 0,-1.26e-4 0,-1.82e-4 0,-6.8e-5 0,-1.26e-4 0,-1.94e-4 0,-5.7e-5 0,-1.26e-4 0,-1.82e-4 0,-6.9e-5 0,-1.27e-4 0,-1.83e-4 0,-6.8e-5 0,-1.26e-4 0,-1.94e-4 0,-5.7e-5 0,-1.26e-4 0,-1.82e-4 0,-6.8e-5 0,-1.26e-4 0,-1.95e-4 0,-5.6e-5 0,-1.24e-4 0,-1.82e-4 0,-6.8e-5 0,-1.26e-4 0,-1.94e-4 0,-5.6e-5 0,-1.14e-4 0,-1.82e-4 0,-5.7e-5 0,-1.25e-4 0,-1.83e-4 0,-6.8e-5 0,-1.24e-4 0,-1.94e-4 0,-5.6e-5 0,-1.24e-4 0,-1.82e-4 0,-6.8e-5 0,-1.25e-4 0,-1.94e-4 0,-5.7e-5 0,-1.13e-4 0,-1.82e-4 0,-5.7e-5 0,-1.25e-4 0,-1.83e-4 0,-6.8e-5 0,-1.24e-4 0,-1.93e-4 0,-5.8e-5 0,-1.26e-4 0,-1.83e-4 0,-6.8e-5 0,-1.25e-4 0,-1.94e-4 0,-5.7e-5 0,-1.25e-4 0,-1.82e-4 0,-5.7e-5 0,-1.26e-4 0,-1.83e-4 0,-6.8e-5 0,-1.25e-4 0,-1.94e-4 0,-5.7e-5 0,-1.25e-4 0,-1.82e-4 0,-6.8e-5 0,-1.25e-4 0,-1.94e-4 0,-5.7e-5 0,-1.25e-4 0,-1.83e-4 0,-5.6e-5 0,-1.24e-4 0,-1.82e-4 0,-6.8e-5 0,-1.25e-4 0,-1.94e-4 0,-5.6e-5 0,-1.25e-4 0,-1.83e-4 0,-6.8e-5 0,-1.24e-4 0,-1.92e-4 0,-5.8e-5 0,-1.26e-4 0,-1.84e-4 0,-6.8e-5 0,-1.24e-4 0,-1.82e-4 0,-6.9e-5 0,-1.25e-4 0,-1.93e-4 0,-5.8e-5 0,-1.26e-4 0,-1.84e-4 0,-6.8e-5 0,-1.24e-4 0,-1.92e-4 0,-5.8e-5 0,-1.27e-4 0,-1.83e-4 0,-6.9e-5 0,-1.26e-4 0,-1.82e-4 0,-7e-5 0,-1.26e-4 0,-1.94e-4 0,-5.8e-5 0,-1.26e-4 0,-1.83e-4 0,-6.9e-5 0,-1.26e-4 0,-1.94e-4 0,-5.7e-5 0,-1.26e-4 0,-1.82e-4 0,-6.9e-5 0,-1.26e-4 0,-1.94e-4 0,-5.7e-5 0,-1.15e-4 0,-1.83e-4 0,-5.7e-5 0,-1.25e-4 0,-1.82e-4 0,-6.9e-5 0,-1.26e-4 0,-1.94e-4 0,-5.7e-5 0,-1.25e-4 0,-1.83e-4 0,-6.9e-5 0,-1.25e-4 0,-1.93e-4 0,-5.8e-5 0,-1.15e-4 0,-1.83e-4 0,-5.7e-5 0,-1.25e-4 0,-1.82e-4 0,-6.9e-5 0,-1.26e-4 0,-1.94e-4 0,-5.8e-5 0,-1.26e-4 0,-1.82e-4 0,-7e-5 0,-1.26e-4 0,-1.94e-4 0,-5.8e-5 0,-1.26e-4 0,-1.83e-4 0,-5.8e-5 0,-1.26e-4 0,-1.82e-4 0,-6.8e-5 0,-1.26e-4 0,-1.94e-4 0,-5.8e-5 0,-1.26e-4 0,-1.82e-4 0,-6.9e-5 0,-1.27e-4 0,-1.95e-4 0,-5.6e-5 0,-1.25e-4 0,-1.82e-4 0,-5.8e-5 0,-1.26e-4 0,-1.82e-4 0,-6.8e-5 0,-1.26e-4 0,-1.95e-4 0,-5.6e-5 0,-1.25e-4 0,-1.82e-4 0,-6.8e-5 0,-1.26e-4 0,-1.94e-4 0,-5.6e-5 0,-1.25e-4 0,-1.82e-4 0,-6.9e-5 0,-1.26e-4 0,-1.83e-4 0,-6.8e-5 0,-1.25e-4 0,-1.94e-4 0,-5.6e-5 0,-1.25e-4 0,-1.82e-4 0,-6.8e-5 0,-1.25e-4 0,-1.94e-4 0,-5.7e-5 0,-1.26e-4 0,-1.82e-4 0,-6.8e-5 0,-1.26e-4 0,-1.83e-4 0,-6.8e-5 0,-1.25e-4 0,-1.93e-4 0,-5.8e-5 0,-1.27e-4 0,-1.83e-4 0,-6.8e-5 0,-1.26e-4 0,-1.94e-4 0,-5.7e-5 0,-1.26e-4 0,-1.82e-4 0,-6.8e-5 0,-1.26e-4 0,-1.95e-4 0,-5.6e-5 0,-1.14e-4 0,-1.82e-4 0,-5.6e-5 0,-1.26e-4 0,-1.82e-4 0,-6.8e-5 0,-1.26e-4 0,-1.94e-4 0,-5.7e-5 0,-1.25e-4 0,-1.83e-4 0,-6.8e-5 0,-1.24e-4 0,-1.94e-4 0,-5.6e-5 0,-1.14e-4 0,-1.82e-4 0,-5.6e-5 0,-1.25e-4 0,-1.83e-4 0,-6.8e-5 0,-1.24e-4 0,-1.93e-4 0,-5.7e-5 0,-1.25e-4 0,-1.83e-4 0,-6.8e-5 0,-1.24e-4 0,-1.93e-4 0,-5.8e-5 0,-1.26e-4 0,-1.83e-4 0,-5.7e-5 0,-1.25e-4 0,-1.83e-4 0,-6.8e-5 0,-1.24e-4 0,-1.93e-4 0,-5.7e-5 0,-1.26e-4 0,-1.83e-4 0,-6.8e-5 0,-1.25e-4 0,-1.94e-4 0,-5.7e-5 0,-1.25e-4 0,-1.82e-4 0,-5.7e-5 0,-1.25e-4 0,-1.82e-4 0,-6.9e-5 0,-1.26e-4 0,-1.95e-4 0,-5.6e-5 0,-1.24e-4 0,-1.82e-4 0,-6.8e-5 0,-1.25e-4 0,-1.94e-4 0,-5.6e-5 0,-1.25e-4 0,-1.83e-4 0,-6.8e-5 0,-1.24e-4 0,-1.82e-4 0,-6.8e-5 0,-1.25e-4 0,-1.94e-4 0,-5.6e-5 0,-1.24e-4 0,-1.83e-4 0,-6.8e-5 0,-1.24e-4 0,-1.93e-4 0,-5.7e-5 0,-1.25e-4 0,-1.83e-4 0,-6.8e-5 0,-1.24e-4 0,-1.82e-4 0,-6.8e-5 0,-1.25e-4 0,-1.94e-4 0,-5.7e-5 0,-1.25e-4 0,-1.82e-4 0,-6.9e-5 0,-1.25e-4 0,-1.93e-4 0,-5.8e-5 0,-1.26e-4 0,-1.84e-4 0,-6.8e-5 0,-1.25e-4 0,-1.93e-4 0,-5.7e-5 0,-1.14e-4 0,-1.82e-4 0,-5.8e-5 0,-1.26e-4 0,-1.82e-4 0,-6.9e-5 0,-1.27e-4 0,-1.95e-4 0,-5.7e-5 0,-1.25e-4 0,-1.82e-4 0,-6.9e-5 0,-1.26e-4 0,-1.94e-4 0,-5.7e-5 0,-1.14e-4 0,-1.83e-4 0,-5.7e-5 0,-1.25e-4 0,-1.82e-4 0,-6.9e-5 0,-1.26e-4 0,-1.94e-4 0,-5.7e-5 0,-1.25e-4 0,-1.82e-4 0,-7e-5 0,-1.26e-4 0,-1.94e-4 0,-5.8e-5 0,-1.26e-4 0,-1.82e-4 0,-5.8e-5 0,-1.26e-4 0,-1.83e-4 0,-6.9e-5 0,-1.25e-4 0,-1.94e-4 0,-5.8e-5 0,-1.26e-4 0,-1.82e-4 0,-6.9e-5 0,-1.26e-4 0,-1.94e-4 0,-5.8e-5 0,-1.26e-4 0,-1.82e-4 0,-5.9e-5 0,-1.27e-4 0,-1.83e-4 0,-6.9e-5 0,-1.26e-4 0,-1.94e-4 0,-5.8e-5 0,-1.26e-4 0,-1.82e-4 0,-6.8e-5 0,-1.26e-4 0,-1.95e-4 0,-5.7e-5 0,-1.25e-4 0,-1.82e-4 0,-6.8e-5 0,-1.26e-4 0,-1.82e-4 0,-6.8e-5 0,-1.26e-4 0,-1.94e-4 0,-5.8e-5 0,-1.26e-4 0,-1.83e-4 0,-6.8e-5 0,-1.25e-4 0,-1.94e-4 0,-5.6e-5 0,-1.25e-4 0,-1.82e-4 0,-6.8e-5 0,-1.25e-4 0,-1.83e-4 0,-6.8e-5 0,-1.25e-4 0,-1.93e-4 0,-5.7e-5 0,-1.26e-4 0,-1.83e-4 0,-6.8e-5 0,-1.25e-4 0,-1.93e-4 0,-5.8e-5 0,-1.27e-4 0,-1.83e-4 0,-6.8e-5 0,-1.26e-4 0,-1.94e-4 0,-5.7e-5 0,-1.14e-4 0,-1.82e-4 0,-5.7e-5 0,-1.27e-4 0,-1.83e-4 0,-6.8e-5 0,-1.26e-4 0,-1.94e-4 0,-5.6e-5 0,-1.26e-4 0,-1.82e-4 0,-6.8e-5 0,-1.26e-4 0,-1.94e-4 0,-5.7e-5 0,-1.15e-4 0,-1.83e-4 0,-5.6e-5 0,-1.25e-4 0,-1.82e-4 0,-6.8e-5 0,-1.26e-4 0,-1.94e-4 0,-5.6e-5 0,-1.26e-4 0,-1.83e-4 0,-6.8e-5 0,-1.25e-4 0,-1.93e-4 0,-5.7e-5 0,-1.25e-4 0,-1.83e-4 0,-5.6e-5 0,-1.24e-4 0,-1.82e-4 0,-6.9e-5 0,-1.26e-4 0,-1.94e-4 0,-5.7e-5 0,-1.25e-4 0,-1.83e-4 0,-6.8e-5 0,-1.24e-4 0,-1.93e-4 0,-5.7e-5 0,-1.26e-4 0,-1.83e-4 0,-5.7e-5 0,-1.25e-4 0,-1.82e-4 0,-6.9e-5 0,-1.25e-4 0,-1.94e-4 0,-5.7e-5 0,-1.25e-4 0,-1.82e-4 0,-6.9e-5 0,-1.26e-4 0,-1.95e-4 0,-5.6e-5 0,-1.24e-4 0,-1.82e-4 0,-6.8e-5 0,-1.25e-4 0,-1.82e-4 0,-6.8e-5 0,-1.26e-4 0,-1.95e-4 0,-5.6e-5 0,-1.24e-4 0,-1.82e-4 0,-6.8e-5 0,-1.25e-4 0,-1.94e-4 0,-5.6e-5 0,-1.24e-4 0,-1.83e-4 0,-6.8e-5 0,-1.24e-4 0,-1.82e-4 0,-6.8e-5 0,-1.24e-4 0,-1.94e-4 0,-5.6e-5 0,-1.24e-4 0,-1.82e-4 0,-6.8e-5 0,-1.25e-4 0,-1.94e-4 0,-5.7e-5 0,-1.25e-4 0,-1.82e-4 0,-6.9e-5 0,-1.25e-4 0,-1.93e-4 0,-5.8e-5 0,-1.14e-4 0,-1.84e-4 0,-5.7e-5 0,-1.25e-4 0,-1.82e-4 0,-6.8e-5 0,-1.25e-4 0,-1.93e-4 0,-5.8e-5 0,-1.26e-4 0,-1.82e-4 0,-6.9e-5 0,-1.27e-4 0,-1.95e-4 0,-5.7e-5 0,-1.14e-4 0,-1.82e-4 0,-5.8e-5 0,-1.26e-4 0,-1.82e-4 0,-6.9e-5 0,-1.26e-4 0,-1.95e-4 0,-5.7e-5 0,-1.25e-4 0,-1.82e-4 0,-6.9e-5 0,-1.26e-4 0,-1.94e-4 0,-5.7e-5 0,-1.25e-4 0,-1.82e-4 H 4.6771574 c 0,5.7e-5 0,1.25e-4 0,1.82e-4 0,6.8e-5 0,1.25e-4 0,1.94e-4 0,5.7e-5 0,1.25e-4 0,1.82e-4 0,6.9e-5 0,1.26e-4 0,1.95e-4 0,5.6e-5 0,1.24e-4 0,1.82e-4 0,6.8e-5 0,1.25e-4 0,1.82e-4 0,6.8e-5 0,1.26e-4 0,1.95e-4 0,5.6e-5 0,1.24e-4 0,1.82e-4 0,6.8e-5 0,1.25e-4 0,1.93e-4 0,5.7e-5 0,1.25e-4 0,1.82e-4 0,7e-5 0,1.26e-4 0,1.84e-4 0,6.8e-5 0,1.24e-4 0,1.93e-4 0,5.7e-5 0,1.25e-4 0,1.82e-4 0,6.9e-5 0,1.26e-4 0,1.94e-4 0,5.8e-5 0,1.26e-4 0,1.82e-4 0,7e-5 0,1.26e-4 0,1.94e-4 0,5.8e-5 0,1.14e-4 0,1.82e-4 0,5.9e-5 0,1.27e-4 0,1.83e-4 0,6.9e-5 0,1.26e-4 0,1.94e-4 0,5.8e-5 0,1.26e-4 0,1.82e-4 0,6.9e-5 0,1.27e-4 0,1.95e-4 0,5.7e-5 0,1.14e-4 0,1.82e-4 0,5.8e-5 0,1.26e-4 0,1.82e-4 0,6.9e-5 0,1.26e-4 0,1.95e-4 0,5.7e-5 0,1.25e-4 0,1.82e-4 0,6.9e-5 0,1.25e-4 0,1.94e-4 0,5.7e-5 0,1.25e-4 0,1.82e-4 0,5.7e-5 0,1.26e-4 0,1.83e-4 0,6.9e-5 0,1.25e-4 0,1.93e-4 0,5.8e-5 0,1.26e-4 0,1.83e-4 0,6.8e-5 0,1.25e-4 0,1.94e-4 0,5.8e-5 0,1.26e-4 0,1.82e-4 0,5.8e-5 0,1.26e-4 0,1.83e-4 0,6.8e-5 0,1.25e-4 0,1.93e-4 0,5.7e-5 0,1.27e-4 0,1.83e-4 0,6.8e-5 0,1.26e-4 0,1.94e-4 0,5.7e-5 0,1.26e-4 0,1.82e-4 0,6.8e-5 0,1.26e-4 0,1.83e-4 0,6.8e-5 0,1.26e-4 0,1.94e-4 0,5.6e-5 0,1.26e-4 0,1.82e-4 0,6.8e-5 0,1.26e-4 0,1.94e-4 0,5.6e-5 0,1.26e-4 0,1.83e-4 0,6.8e-5 0,1.25e-4 0,1.82e-4 0,6.8e-5 0,1.26e-4 0,1.94e-4 0,5.6e-5 0,1.25e-4 0,1.83e-4 0,6.8e-5 0,1.25e-4 0,1.93e-4 0,5.7e-5 0,1.26e-4 0,1.83e-4 0,6.8e-5 0,1.25e-4 0,1.93e-4 0,5.8e-5 0,1.15e-4 0,1.83e-4 0,5.7e-5 0,1.26e-4 0,1.82e-4 0,6.9e-5 0,1.26e-4 0,1.94e-4 0,5.7e-5 0,1.25e-4 0,1.83e-4 0,6.8e-5 0,1.26e-4 0,1.94e-4 0,5.6e-5 0,1.14e-4 0,1.82e-4 0,5.7e-5 0,1.25e-4 0,1.82e-4 0,6.9e-5 0,1.27e-4 0,1.95e-4 0,5.6e-5 0,1.24e-4 0,1.82e-4 0,6.8e-5 0,1.25e-4 0,1.94e-4 0,5.6e-5 0,1.24e-4 0,1.83e-4 0,5.6e-5 0,1.24e-4 0,1.82e-4 0,6.8e-5 0,1.25e-4 0,1.94e-4 0,5.6e-5 0,1.24e-4 0,1.82e-4 0,6.9e-5 0,1.25e-4 0,1.94e-4 0,5.7e-5 0,1.25e-4 0,1.83e-4 0,5.6e-5 0,1.24e-4 0,1.82e-4 0,6.8e-5 0,1.24e-4 0,1.94e-4 0,5.7e-5 0,1.25e-4 0,1.82e-4 0,6.8e-5 0,1.25e-4 0,1.94e-4 0,5.7e-5 0,1.25e-4 0,1.82e-4 0,6.9e-5 0,1.26e-4 0,1.83e-4 0,6.8e-5 0,1.25e-4 0,1.94e-4 0,5.7e-5 0,1.25e-4 0,1.82e-4 0,6.8e-5 0,1.26e-4 0,1.95e-4 0,5.6e-5 0,1.24e-4 0,1.82e-4 0,6.8e-5 0,1.25e-4 0,1.82e-4 0,6.8e-5 0,1.25e-4 0,1.93e-4 0,5.8e-5 0,1.26e-4 0,1.84e-4 0,6.8e-5 0,1.24e-4 0,1.93e-4 0,5.7e-5 0,1.25e-4 0,1.82e-4 0,6.9e-5 0,1.26e-4 0,1.94e-4 0,5.8e-5 0,1.14e-4 0,1.82e-4 0,5.8e-5 0,1.26e-4 0,1.83e-4 0,6.9e-5 0,1.25e-4 0,1.93e-4 0,5.9e-5 0,1.27e-4 0,1.83e-4 0,6.9e-5 0,1.26e-4 0,1.94e-4 0,5.8e-5 0,1.14e-4 0,1.82e-4 0,5.8e-5 0,1.27e-4 0,1.83e-4 0,6.9e-5 0,1.26e-4 0,1.94e-4 0,5.8e-5 0,1.26e-4 0,1.82e-4 0,6.9e-5 0,1.26e-4 0,1.95e-4 0,5.7e-5 0,1.25e-4 0,1.82e-4 0,5.7e-5 0,1.25e-4 0,1.82e-4 0,6.9e-5 0,1.26e-4 0,1.94e-4 0,5.7e-5 0,1.26e-4 0,1.83e-4 0,6.9e-5 0,1.25e-4 0,1.93e-4 0,5.8e-5 0,1.26e-4 0,1.83e-4 0,5.7e-5 0,1.25e-4 0,1.83e-4 0,6.9e-5 0,1.25e-4 0,1.93e-4 0,5.8e-5 0,1.26e-4 0,1.83e-4 0,6.9e-5 0,1.25e-4 0,1.93e-4 0,5.8e-5 0,1.27e-4 0,1.83e-4 0,6.8e-5 0,1.26e-4 0,1.82e-4 0,7e-5 0,1.26e-4 0,1.94e-4 0,5.8e-5 0,1.26e-4 0,1.83e-4 0,6.8e-5 0,1.26e-4 0,1.94e-4 0,5.6e-5 0,1.26e-4 0,1.82e-4 0,6.8e-5 0,1.26e-4 0,1.82e-4 0,6.9e-5 0,1.27e-4 0,1.95e-4 0,5.6e-5 0,1.25e-4 0,1.82e-4 0,6.8e-5 0,1.26e-4 0,1.94e-4 0,5.6e-5 0,1.25e-4 0,1.83e-4 0,6.8e-5 0,1.25e-4 0,1.93e-4 0,5.7e-5 0,1.15e-4 0,1.83e-4 0,5.6e-5 0,1.25e-4 0,1.82e-4 0,6.9e-5 0,1.26e-4 0,1.94e-4 0,5.7e-5 0,1.26e-4 0,1.82e-4 0,6.9e-5 0,1.26e-4 0,1.94e-4 0,5.7e-5 0,1.14e-4 0,1.83e-4 0,5.7e-5 0,1.26e-4 0,1.82e-4 0,6.8e-5 0,1.26e-4 0,1.94e-4 0,5.7e-5 0,1.26e-4 0,1.82e-4 0,6.9e-5 0,1.27e-4 0,1.95e-4 0,5.6e-5 0,1.24e-4 0,1.82e-4 0,5.7e-5 0,1.26e-4 0,1.82e-4 0,6.8e-5 0,1.26e-4 0,1.95e-4 0,5.6e-5 0,1.24e-4 0,1.82e-4 0,6.8e-5 0,1.26e-4 0,1.94e-4 0,5.6e-5 0,1.24e-4 0,1.82e-4 0,5.7e-5 0,1.25e-4 0,1.83e-4 0,6.8e-5 0,1.24e-4 0,1.94e-4 0,5.6e-5 0,1.24e-4 0,1.82e-4 0,6.8e-5 0,1.25e-4 0,1.94e-4 0,5.7e-5 0,1.25e-4 0,1.82e-4 0,6.8e-5 0,1.25e-4 0,1.83e-4 0,6.8e-5 0,1.24e-4 0,1.93e-4 0,5.8e-5 0,1.26e-4 0,1.83e-4 0,6.8e-5 0,1.25e-4 0,1.94e-4 0,5.7e-5 0,1.25e-4 0,1.82e-4 0,6.8e-5 0,1.26e-4 0,1.83e-4 0,6.8e-5 0,1.25e-4 0,1.94e-4 0,5.6e-5 0,1.25e-4 0,1.82e-4 0,6.8e-5 0,1.25e-4 0,1.94e-4 0,5.7e-5 0,1.25e-4 0,1.83e-4 0,6.8e-5 0,1.24e-4 0,1.94e-4 0,5.6e-5 0,1.13e-4 0,1.82e-4 0,5.6e-5 0,1.25e-4 0,1.83e-4 0,6.8e-5 0,1.24e-4 0,1.92e-4 0,5.8e-5 0,1.26e-4 0,1.84e-4 0,6.8e-5 0,1.24e-4 0,1.93e-4 0,5.8e-5 0,1.14e-4 0,1.82e-4 0,5.8e-5 0,1.26e-4 0,1.84e-4 0,6.8e-5 0,1.24e-4 0,1.92e-4 0,5.8e-5 0,1.27e-4 0,1.83e-4 0,6.9e-5 0,1.26e-4 0,1.94e-4 0,5.8e-5 0,1.26e-4 0,1.82e-4 0,5.8e-5 0,1.26e-4 0,1.83e-4 0,6.9e-5 0,1.26e-4 0,1.94e-4 0,5.7e-5 0,1.25e-4 0,1.82e-4 0,6.9e-5 0,1.26e-4 0,1.94e-4 0,5.7e-5 0,1.26e-4 0,1.83e-4 0,5.7e-5 0,1.25e-4 0,1.82e-4 0,6.9e-5 0,1.26e-4 0,1.94e-4 0,5.7e-5 0,1.25e-4 0,1.83e-4 0,6.9e-5 0,1.25e-4 0,1.93e-4 0,5.8e-5 0,1.26e-4 0,1.83e-4 0,6.9e-5 0,1.25e-4 0,1.82e-4 0,6.9e-5 0,1.26e-4 0,1.94e-4 0,5.8e-5 0,1.26e-4 0,1.82e-4 0,7e-5 0,1.26e-4 0,1.94e-4 0,5.8e-5 0,1.26e-4 0,1.83e-4 0,6.8e-5 0,1.26e-4 0,1.82e-4 0,6.8e-5 0,1.26e-4 0,1.94e-4 0,5.8e-5 0,1.26e-4 0,1.82e-4 0,6.9e-5 0,1.27e-4 0,1.95e-4 0,5.6e-5 0,1.25e-4 0,1.82e-4 0,6.8e-5 0,1.26e-4 0,1.94e-4 0,5.6e-5 0,1.14e-4 0,1.83e-4 0,5.6e-5 0,1.25e-4 0,1.82e-4 0,6.8e-5 0,1.26e-4 0,1.94e-4 0,5.6e-5 0,1.25e-4 0,1.82e-4 0,6.9e-5 0,1.26e-4 0,1.94e-4 0,5.7e-5 0,1.14e-4 0,1.82e-4 0,5.7e-5 0,1.26e-4 0,1.83e-4 0,6.8e-5 0,1.25e-4 0,1.94e-4 0,5.7e-5 0,1.26e-4 0,1.82e-4 0,6.8e-5 0,1.26e-4 0,1.94e-4 0,5.7e-5 0,1.26e-4 0,1.82e-4 0,5.8e-5 0,1.27e-4 0,1.83e-4 0,6.8e-5 0,1.26e-4 0,1.94e-4 0,5.7e-5 0,1.26e-4 0,1.82e-4 0,6.8e-5 0,1.26e-4 0,1.95e-4 0,5.6e-5 0,1.24e-4 0,1.82e-4 0,5.6e-5 0,1.26e-4 0,1.82e-4 0,6.8e-5 0,1.26e-4 0,1.94e-4 0,5.7e-5 0,1.25e-4 0,1.83e-4 0,6.8e-5 0,1.24e-4 0,1.94e-4 0,5.6e-5 0,1.24e-4 0,1.82e-4 0,6.8e-5 0,1.25e-4 0,1.83e-4 0,6.8e-5 0,1.24e-4 0,1.93e-4 0,5.7e-5 0,1.25e-4 0,1.83e-4 0,6.8e-5 0,1.24e-4 0,1.93e-4 0,5.8e-5 0,1.26e-4 0,1.83e-4 0,6.8e-5 0,1.25e-4 0,1.83e-4 0,6.8e-5 0,1.24e-4 0,1.93e-4 0,5.7e-5 0,1.26e-4 0,1.83e-4 0,6.8e-5 0,1.25e-4 0,1.94e-4 0,5.7e-5 0,1.25e-4 0,1.82e-4 0,6.8e-5 0,1.25e-4 0,1.94e-4 0,5.7e-5 0,1.14e-4 0,1.83e-4 0,5.6e-5 0,1.24e-4 0,1.82e-4 0,6.8e-5 0,1.25e-4 0,1.94e-4 0,5.6e-5 0,1.25e-4 0,1.83e-4 0,6.8e-5 0,1.24e-4 0,1.92e-4 0,5.8e-5 0,1.15e-4 0,1.84e-4 0,5.6e-5 0,1.24e-4 0,1.82e-4 0,6.9e-5 0,1.25e-4 0,1.93e-4 0,5.8e-5 0,1.26e-4 0,1.84e-4 0,6.8e-5 0,1.24e-4 0,1.92e-4 0,5.8e-5 0,1.27e-4 0,1.83e-4 0,5.8e-5 0,1.26e-4 0,1.82e-4 0,7e-5 0,1.26e-4 0,1.94e-4 0,5.8e-5 0,1.26e-4 0,1.83e-4 0,6.9e-5 0,1.26e-4 0,1.94e-4 0,5.7e-5 0,1.26e-4 0,1.82e-4 0,5.8e-5 0,1.26e-4 0,1.82e-4 0,6.9e-5 0,1.27e-4 0,1.95e-4 0,5.7e-5 0,1.25e-4 0,1.82e-4 0,6.9e-5 0,1.26e-4 0,1.94e-4 0,5.7e-5 0,1.25e-4 0,1.83e-4 0,6.9e-5 0,1.25e-4 0,1.82e-4 0,6.9e-5 0,1.26e-4 0,1.94e-4 0,5.7e-5 0,1.25e-4 0,1.82e-4 0,6.9e-5 0,1.26e-4 0,1.94e-4 0,5.8e-5 0,1.26e-4 0,1.82e-4 0,7e-5 0,1.26e-4 0,1.83e-4 0,6.9e-5 0,1.25e-4 0,1.94e-4 0,5.8e-5 0,1.26e-4 0,1.82e-4 0,6.8e-5 0,1.26e-4 0,1.94e-4 0,5.8e-5 0,1.26e-4 0,1.82e-4 0,6.9e-5 0,1.27e-4 0,1.95e-4 0,5.6e-5 0,1.14e-4 0,1.82e-4 0,5.8e-5 0,1.26e-4 0,1.82e-4 0,6.8e-5 0,1.26e-4 0,1.95e-4 0,5.6e-5 0,1.25e-4 0,1.82e-4 0,6.8e-5 0,1.26e-4 0,1.94e-4 0,5.6e-5 0,1.14e-4 0,1.82e-4 0,5.7e-5 0,1.26e-4 0,1.83e-4 0,6.8e-5 0,1.25e-4 0,1.94e-4 0,5.6e-5 0,1.25e-4 0,1.82e-4 0,6.8e-5 0,1.25e-4 0,1.94e-4 0,5.7e-5 0,1.26e-4 0,1.82e-4 0,5.7e-5 0,1.26e-4 0,1.83e-4 0,6.8e-5 0,1.25e-4 0,1.93e-4 0,5.8e-5 0,1.27e-4 0,1.83e-4 0,6.8e-5 0,1.26e-4 0,1.94e-4 0,5.7e-5 0,1.26e-4 0,1.82e-4 0,5.7e-5 0,1.26e-4 0,1.83e-4 0,6.8e-5 0,1.26e-4 0,1.94e-4 0,5.6e-5 0,1.26e-4 0,1.82e-4 0,6.8e-5 0,1.26e-4 0,1.94e-4 0,5.7e-5 0,1.25e-4 0,1.83e-4 0,6.8e-5 0,1.24e-4 0,1.82e-4 0,6.8e-5 0,1.26e-4 0,1.94e-4 0,5.6e-5 0,1.25e-4 0,1.83e-4 0,6.8e-5 0,1.24e-4 0,1.93e-4 0,5.7e-5 0,1.25e-4 0,1.83e-4 0,6.8e-5 0,1.24e-4 0,1.82e-4 0,6.9e-5 0,1.25e-4 0,1.94e-4 0,5.7e-5 0,1.25e-4 0,1.83e-4 0,6.8e-5 0,1.24e-4 0,1.93e-4 0,5.7e-5 0,1.26e-4 0,1.83e-4 0,6.8e-5 0,1.25e-4 0,1.94e-4 0,5.7e-5 0,1.13e-4 0,1.82e-4 0,5.7e-5 0,1.25e-4 0,1.82e-4 0,6.9e-5 0,1.26e-4 0,1.95e-4 0,5.6e-5 0,1.24e-4 0,1.82e-4 0,6.8e-5 0,1.25e-4 0,1.94e-4 0,5.6e-5 0,1.14e-4 0,1.83e-4 0,5.6e-5 0,1.24e-4 0,1.82e-4 0,6.8e-5 0,1.25e-4 0,1.94e-4 0,5.6e-5 0,1.24e-4 0,1.83e-4 0,6.8e-5 0,1.24e-4 0,1.92e-4 0,5.8e-5 0,1.26e-4 0,1.84e-4 0,5.6e-5 0,1.24e-4 0,1.82e-4 0,6.8e-5 0,1.25e-4 0,1.93e-4 0,5.8e-5 0,1.26e-4 0,1.82e-4 0,7e-5 0,1.26e-4 0,1.94e-4 0,5.8e-5 0,1.26e-4 0,1.83e-4 0,5.8e-5 0,1.26e-4 0,1.82e-4 0,6.9e-5 0,1.26e-4 0,1.94e-4 0,5.8e-5 0,1.26e-4 0,1.82e-4 0,6.9e-5 0,1.27e-4 0,1.95e-4 0,5.7e-5 0,1.25e-4 0,1.82e-4 0,6.9e-5 0,1.26e-4 0,1.82e-4 0,6.9e-5 0,1.26e-4 0,1.95e-4 0,5.7e-5 0,1.25e-4 0,1.82e-4 0,6.9e-5 0,1.26e-4 0,1.94e-4 0,5.7e-5 0,1.25e-4 0,1.82e-4 0,7e-5 0,1.26e-4 0,1.83e-4 0,6.9e-5 0,1.25e-4 0,1.93e-4 0,5.8e-5 0,1.26e-4 0,1.83e-4 0,6.9e-5 0,1.25e-4 0,1.94e-4 0,5.8e-5 0,1.26e-4 0,1.82e-4 0,6.8e-5 0,1.26e-4 0,1.94e-4 0,5.8e-5 0,1.14e-4 0,1.82e-4 0,5.9e-5 0,1.27e-4 0,1.83e-4 0,6.8e-5 0,1.26e-4 0,1.94e-4 0,5.8e-5 0,1.26e-4 0,1.82e-4 0,6.8e-5 0,1.26e-4 0,1.95e-4 0,5.6e-5 0,1.14e-4 0,1.82e-4 0,5.6e-5 0,1.26e-4 0,1.82e-4 0,6.8e-5 0,1.26e-4 0,1.94e-4 0,5.7e-5 0,1.26e-4 0,1.83e-4 0,6.8e-5 0,1.25e-4 0,1.94e-4 0,5.6e-5 0,1.25e-4 0,1.82e-4 0,5.6e-5 0,1.25e-4 0,1.83e-4 0,6.8e-5 0,1.25e-4 0,1.93e-4 0,5.7e-5 0,1.26e-4 0,1.83e-4 0,6.8e-5 0,1.25e-4 0,1.93e-4 0,5.8e-5 0,1.27e-4 0,1.83e-4 0,5.7e-5 0,1.26e-4 0,1.83e-4 0,6.8e-5 0,1.25e-4 0,1.93e-4 0,5.7e-5 0,1.27e-4 0,1.83e-4 0,6.8e-5 0,1.26e-4 0,1.94e-4 0,5.6e-5 0,1.26e-4 0,1.82e-4 0,6.8e-5 0,1.26e-4 0,1.82e-4 0,6.9e-5 0,1.27e-4 0,1.95e-4 0,5.6e-5 0,1.24e-4 0,1.82e-4 0,6.8e-5 0,1.26e-4 0,1.94e-4 0,5.6e-5 0,1.25e-4 0,1.83e-4 0,6.8e-5 0,1.24e-4 0,1.82e-4 0,6.8e-5 0,1.26e-4 0,1.94e-4 0,5.6e-5 0,1.24e-4 0,1.82e-4 0,6.9e-5 0,1.25e-4 0,1.94e-4 0,5.7e-5 0,1.25e-4 0,1.83e-4 0,6.8e-5 0,1.24e-4 0,1.93e-4 0,5.7e-5 0,1.14e-4 0,1.83e-4 0,5.7e-5 0,1.25e-4 0,1.82e-4 0,6.9e-5 0,1.25e-4 0,1.94e-4 0,5.7e-5 0,1.25e-4 0,1.82e-4 0,6.9e-5 0,1.26e-4 0,1.95e-4 0,5.6e-5 0,1.13e-4 0,1.82e-4 0,5.7e-5 0,1.25e-4 0,1.82e-4 0,6.8e-5 0,1.26e-4 0,1.95e-4 0,5.6e-5 0,1.24e-4 0,1.82e-4 0,6.8e-5 0,1.25e-4 0,1.94e-4 0,5.6e-5 0,1.24e-4 0,1.83e-4 0,5.6e-5 0,1.24e-4 0,1.82e-4 0,6.8e-5 0,1.24e-4 0,1.94e-4 0,5.6e-5 0,1.24e-4 0,1.82e-4 0,6.8e-5 0,1.25e-4 0,1.93e-4 0,5.8e-5 0,1.26e-4 0,1.82e-4 0,5.8e-5 0,1.26e-4 0,1.84e-4 0,6.8e-5 0,1.24e-4 0,1.93e-4 0,5.8e-5 0,1.26e-4 0,1.82e-4 0,6.9e-5 0,1.26e-4 0,1.94e-4 0,5.8e-5 0,1.26e-4 0,1.82e-4 0,6.9e-5 0,1.27e-4 0,1.83e-4 0,6.9e-5 0,1.26e-4 0,1.94e-4 0,5.8e-5 0,1.26e-4 0,1.82e-4 0,6.9e-5 0,1.26e-4 0,1.95e-4 0,5.7e-5 0,1.25e-4 0,1.82e-4 0,6.9e-5 0,1.26e-4 0,1.82e-4 0,6.9e-5 0,1.26e-4 0,1.94e-4 0,5.7e-5 0,1.26e-4 0,1.83e-4 0,6.9e-5 0,1.25e-4 0,1.93e-4 0,5.8e-5 0,1.26e-4 0,1.83e-4 0,6.9e-5 0,1.25e-4 0,1.94e-4 0,5.8e-5 0,1.14e-4 0,1.82e-4 0,5.8e-5 0,1.26e-4 0,1.83e-4 0,6.9e-5 0,1.25e-4 0,1.93e-4 0,5.9e-5 0,1.27e-4 0,1.83e-4 0,6.8e-5 0,1.26e-4 0,1.94e-4 0,5.8e-5 0,1.14e-4 0,1.82e-4 0,5.8e-5 0,1.26e-4 0,1.83e-4 0,6.8e-5 0,1.26e-4 0,1.94e-4 0,5.6e-5 0,1.26e-4 0,1.82e-4 0,6.8e-5 0,1.26e-4 0,1.94e-4 0,5.7e-5 0,1.26e-4 0,1.83e-4 0,5.6e-5 0,1.25e-4 0,1.82e-4 0,6.8e-5 0,1.26e-4 0,1.94e-4 0,5.6e-5 0,1.25e-4 0,1.83e-4 0,6.8e-5 0,1.25e-4 0,1.93e-4 0,5.7e-5 0,1.26e-4 0,1.83e-4 0,5.6e-5 0,1.25e-4 0,1.82e-4 0,6.9e-5 0,1.26e-4 0,1.94e-4 0,5.7e-5 0,1.26e-4 0,1.83e-4 0,6.8e-5 0,1.25e-4 0,1.93e-4 0,5.7e-5 0,1.27e-4 0,1.83e-4 0,6.8e-5 0,1.26e-4 0,1.82e-4 0,6.8e-5 0,1.26e-4 0,1.94e-4 0,5.7e-5 0,1.26e-4 0,1.82e-4 0,6.9e-5 0,1.27e-4 0,1.95e-4 0,5.6e-5 0,1.24e-4 0,1.82e-4 0,6.8e-5 0,1.26e-4 0,1.82e-4 0,6.8e-5 0,1.27e-4 0,1.95e-4 0,5.6e-5 0,1.24e-4 0,1.82e-4 0,6.8e-5 0,1.26e-4 0,1.94e-4 0,5.6e-5 0,1.24e-4 0,1.82e-4 0,6.9e-5 0,1.25e-4 0,1.94e-4 0,5.7e-5 0,1.13e-4 0,1.83e-4 0,5.6e-5 0,1.24e-4 0,1.82e-4 0,6.8e-5 0,1.25e-4 0,1.94e-4 0,5.7e-5 0,1.25e-4 0,1.82e-4 0,6.9e-5 0,1.25e-4 0,1.94e-4 0,5.7e-5 0,1.13e-4 0,1.82e-4 0,5.8e-5 0,1.26e-4 0,1.83e-4 0,6.8e-5 0,1.25e-4 0,1.94e-4 0,5.7e-5 0,1.25e-4 0,1.82e-4 0,6.8e-5 0,1.26e-4 0,1.95e-4 0,5.6e-5 0,1.24e-4 0,1.82e-4 0,5.7e-5 0,1.25e-4 0,1.82e-4 0,6.8e-5 0,1.25e-4 0,1.95e-4 0,5.6e-5 0,1.24e-4 0,1.82e-4 0,6.8e-5 0,1.24e-4 0,1.94e-4 0,5.6e-5 0,1.24e-4 0,1.82e-4 0,5.6e-5 0,1.25e-4 0,1.83e-4 0,6.8e-5 0,1.24e-4 0,1.92e-4 0,5.8e-5 0,1.26e-4 0,1.84e-4 0,6.8e-5 0,1.24e-4 0,1.93e-4 0,5.8e-5 0,1.26e-4 0,1.82e-4 0,6.9e-5 0,1.26e-4 0,1.84e-4 0,6.8e-5 0,1.24e-4 0,1.92e-4 0,5.8e-5 0,1.27e-4 0,1.83e-4 0,6.9e-5 0,1.26e-4 0,1.94e-4 0,5.8e-5 0,1.26e-4 0,1.82e-4 0,6.9e-5 0,1.26e-4 0,1.83e-4 0,6.9e-5 0,1.26e-4 0,1.94e-4 0,5.7e-5 0,1.26e-4 0,1.82e-4 0,6.9e-5 0,1.26e-4 0,1.94e-4 0,5.7e-5 0,1.26e-4 0,1.83e-4 0,6.9e-5 0,1.25e-4 0,1.93e-4 0,5.8e-5 0,1.15e-4 0,1.83e-4 0,5.7e-5 0,1.25e-4 0,1.83e-4 0,6.9e-5 0,1.25e-4 0,1.93e-4 0,5.8e-5 0,1.26e-4 0,1.83e-4 0,6.9e-5 0,1.25e-4 0,1.93e-4 0,5.9e-5 0,1.15e-4 0,1.83e-4 0,5.8e-5 0,1.26e-4 0,1.82e-4 0,7e-5 0,1.26e-4 0,1.94e-4 0,5.8e-5 0,1.26e-4 0,1.83e-4 0,6.8e-5 0,1.26e-4 0,1.94e-4 0,5.6e-5 0,1.26e-4 0,1.82e-4 0,5.8e-5 0,1.26e-4 0,1.82e-4 0,6.9e-5 0,1.27e-4 0,1.95e-4 0,5.6e-5 0,1.25e-4 0,1.82e-4 0,6.8e-5 0,1.26e-4 0,1.94e-4 0,5.6e-5 0,1.26e-4 0,1.83e-4 0,5.6e-5 0,1.25e-4 0,1.82e-4 0,6.8e-5 0,1.26e-4 0,1.94e-4 0,5.6e-5 0,1.25e-4 0,1.82e-4 0,6.9e-5 0,1.26e-4 0,1.94e-4 0,5.7e-5 0,1.26e-4 0,1.83e-4 0,6.8e-5 0,1.25e-4 0,1.82e-4 0,6.8e-5 0,1.26e-4 0,1.94e-4 0,5.7e-5 0,1.26e-4 0,1.82e-4 0,6.8e-5 0,1.26e-4 0,1.94e-4 0,5.7e-5 0,1.26e-4 0,1.82e-4 0,6.9e-5 0,1.27e-4 0,1.83e-4 0,6.8e-5 0,1.26e-4 0,1.94e-4 0,5.7e-5 0,1.26e-4 0,1.82e-4 0,6.8e-5 0,1.27e-4 0,1.95e-4 0,5.6e-5 0,1.24e-4 0,1.82e-4 0,6.8e-5 0,1.26e-4 0,1.94e-4 0,5.6e-5 0,1.14e-4 0,1.82e-4 0,5.7e-5 0,1.25e-4 0,1.83e-4 0,6.8e-5 0,1.24e-4 0,1.94e-4 0,5.6e-5 0,1.24e-4 0,1.82e-4 0,6.8e-5 0,1.25e-4 0,1.94e-4 0,5.7e-5 0,1.13e-4 0,1.82e-4 0,5.7e-5 0,1.25e-4 0,1.83e-4 0,6.8e-5 0,1.24e-4 0,1.94e-4 0,5.7e-5 0,1.25e-4 0,1.82e-4 0,6.8e-5 0,1.25e-4 0,1.94e-4 0,5.7e-5 0,1.25e-4 0,1.82e-4 0,5.7e-5 0,1.26e-4 0,1.83e-4 0,6.8e-5 0,1.25e-4 0,1.94e-4 0,5.7e-5 0,1.25e-4 0,1.82e-4 0,6.8e-5 0,1.25e-4 0,1.95e-4 0,5.6e-5 0,1.24e-4 0,1.82e-4 0,5.6e-5 0,1.24e-4 0,1.82e-4 0,6.8e-5 0,1.25e-4 0,1.94e-4 0,5.6e-5 0,1.25e-4 0,1.83e-4 0,6.8e-5 0,1.24e-4 0,1.93e-4 0,5.7e-5 0,1.25e-4 0,1.83e-4 0,6.8e-5 0,1.24e-4 0,1.83e-4 0,6.8e-5 0,1.24e-4 0,1.93e-4 0,5.7e-5 0,1.25e-4 0,1.83e-4 0,6.8e-5 0,1.24e-4 0,1.92e-4 0,5.8e-5 0,1.27e-4 0,1.84e-4 0,6.8e-5 0,1.25e-4 0,1.82e-4 0,6.9e-5 0,1.25e-4 0,1.93e-4 0,5.8e-5 0,1.26e-4 0,1.84e-4 0,6.8e-5 0,1.25e-4 0,1.93e-4 0,5.7e-5 0,1.26e-4 0,1.82e-4 0,6.9e-5 0,1.26e-4 0,1.94e-4 0,5.8e-5 0,1.15e-4 0,1.83e-4 0,5.7e-5 0,1.25e-4 0,1.82e-4 0,6.9e-5 0,1.26e-4 0,1.94e-4 0,5.7e-5 0,1.25e-4 0,1.83e-4 0,6.9e-5 0,1.25e-4 0,1.93e-4 0,5.8e-5 0,1.15e-4 0,1.83e-4 0,5.7e-5 0,1.25e-4 0,1.82e-4 0,7e-5 0,1.26e-4 0,1.94e-4 0,5.8e-5 0,1.26e-4 0,1.82e-4 0,7e-5 0,1.26e-4 0,1.94e-4 0,5.8e-5 0,1.26e-4 0,1.83e-4 0,5.8e-5 0,1.26e-4 0,1.82e-4 0,6.9e-5 0,1.26e-4 0,1.94e-4 0,5.8e-5 0,1.26e-4 0,1.82e-4 0,7e-5 0,1.27e-4 0,1.95e-4 0,5.7e-5 0,1.25e-4 0,1.82e-4 z M 6.3867846,9.379612 C 6.4466196,8.077174 7.5120971,7.105102 8.730861,7.154742 L 8.800471,5.4456247 C 6.6011947,5.3560499 4.7792304,7.099 4.6780583,9.301111 Z M 8.76734,7.155449 c 0.30249,-5.92e-4 0.603145,0.05279 0.888654,0.15811 L 10.247985,5.708738 C 9.77247,5.5333178 9.270259,5.4439256 8.763988,5.4449176 Z M 10.716442,6.894638 C 11.35447,5.6228262 12.633718,4.8475802 14.004536,4.8745724 l 0.03364,-1.710187 C 11.991243,3.1240604 10.113424,4.2819517 9.187526,6.1276581 Z M 14.05779,4.8739681 c 1.860828,-0.079471 3.469979,1.4035347 3.556532,3.3648609 l 1.708819,-0.07535 C 19.196904,5.3000929 16.828847,3.0435287 13.984807,3.1649876 Z m 3.55562,3.3279139 c 3.41e-4,0.318855 -0.04858,0.635496 -0.144482,0.9381 l 1.630476,0.517082 c 0.149273,-0.470715 0.224991,-0.962286 0.224535,-1.456641 z m 0.546115,2.042794 c 1.035669,0.152579 1.842695,1.052088 1.880441,2.165986 l 1.709617,-0.05793 c -0.06477,-1.90906 -1.457256,-3.522911 -3.340778,-3.800336 z m 1.880898,2.098021 c -0.05941,1.303195 -1.125528,2.275802 -2.344908,2.22574 l -0.07025,1.709161 c 2.200425,0.09032 4.023393,-1.65374 4.123858,-3.857015 z m -8.895663,0.799614 v 6.842117 h 1.710529 v -6.842117 z m 0.242894,-0.597088 -2.223699,2.280705 1.224751,1.194178 2.223687,-2.280705 z m 0,1.194178 2.223689,2.280705 1.224739,-1.194178 -2.223689,-2.280705 z"
     fill="#000000"
     id="path1"
     style="fill:#e2e2e2;fill-opacity:1;stroke-width:1.14035" />
</svg>
