<?xml version="1.0" encoding="UTF-8" standalone="no"?>
<!-- Uploaded to: SVG Repo, www.svgrepo.com, Generator: SVG Repo Mixer Tools -->

<svg
   width="800px"
   height="800px"
   viewBox="0 0 24 24"
   fill="none"
   version="1.1"
   id="svg1"
   sodipodi:docname="cloud-download.svg"
   inkscape:version="1.3 (0e150ed6c4, 2023-07-21)"
   xmlns:inkscape="http://www.inkscape.org/namespaces/inkscape"
   xmlns:sodipodi="http://sodipodi.sourceforge.net/DTD/sodipodi-0.dtd"
   xmlns="http://www.w3.org/2000/svg"
   xmlns:svg="http://www.w3.org/2000/svg">
  <defs
     id="defs1" />
  <sodipodi:namedview
     id="namedview1"
     pagecolor="#505050"
     bordercolor="#eeeeee"
     borderopacity="1"
     inkscape:showpageshadow="0"
     inkscape:pageopacity="0"
     inkscape:pagecheckerboard="0"
     inkscape:deskcolor="#505050"
     inkscape:zoom="1.00625"
     inkscape:cx="400"
     inkscape:cy="400"
     inkscape:window-width="1920"
     inkscape:window-height="1011"
     inkscape:window-x="0"
     inkscape:window-y="0"
     inkscape:window-maximized="1"
     inkscape:current-layer="svg1" />
  <path
     d="m 5.0765791,17.269356 c 0.5808711,-0.02386 1.0324086,-0.514105 1.008549,-1.095019 -0.02386,-0.580913 -0.514092,-1.032422 -1.0949492,-1.008562 z M 1.0526288,12.474402 4.8684774e-4,12.442262 c -8.1406955e-4,0.02667 -6.0345772e-4,0.05333 6.0354226e-4,0.08 z M 4.0399037,8.8491196 4.2529427,9.8800123 C 4.7418417,9.7789594 5.092537,9.348362 5.092537,8.8491196 Z m 0,-0.1178946 L 2.9883793,8.68291 c -7.439e-4,0.016084 -0.00111,0.032204 -0.00111,0.048315 z M 8.0192786,4.989464 7.9764399,6.0412271 c 0.014951,6.036e-4 0.029919,8.982e-4 0.044897,8.701e-4 z M 9.4793789,5.2491136 9.1150694,6.2366941 C 9.6179901,6.4222104 10.179955,6.2002029 10.420236,5.7211003 Z m 5.0083741,-3.0666715 -0.02064,1.0524227 c 0.02191,4.351e-4 0.04379,1.824e-4 0.06554,-7.438e-4 z m 5.473692,5.1466748 1.052633,-8.985e-4 c 0,-0.015159 -2.8e-4,-0.030327 -9.97e-4,-0.045468 z M 19.734357,8.802804 18.730987,8.4845997 c -0.09333,0.2941902 -0.05277,0.6145133 0.110737,0.8762531 0.163649,0.2616156 0.433965,0.4383165 0.739229,0.48337 z m 3.213057,3.671598 1.05151,0.04786 c 0.0013,-0.02779 0.0014,-0.05572 5.62e-4,-0.08351 z m -3.93755,2.691373 c -0.580913,-0.02386 -1.07102,0.427649 -1.094879,1.008562 -0.024,0.580914 0.42765,1.07116 1.008423,1.095019 z m -8.062468,6.665834 c 0,0.581335 0.471298,1.052634 1.052632,1.052634 0.581335,0 1.052634,-0.471299 1.052634,-1.052634 z m 2.105266,-8.421066 c 0,-0.581334 -0.471299,-1.052632 -1.052634,-1.052632 -0.581334,0 -1.052632,0.471298 -1.052632,1.052632 z m -1.806319,7.686188 c -0.405895,0.416281 -0.397474,1.082808 0.01881,1.488564 0.416281,0.405895 1.082668,0.397474 1.488564,-0.01881 z m 4.244218,-1.337265 c 0.405895,-0.416281 0.397333,-1.082669 -0.01881,-1.488564 -0.416282,-0.405755 -1.082669,-0.397334 -1.488565,0.01881 z m -4.244218,2.807022 c 0.405895,0.416281 1.072283,0.424702 1.488564,0.01881 0.416141,-0.405754 0.424702,-1.072282 0.01881,-1.488563 z M 10.016868,18.28971 C 9.6110145,17.873568 8.9445852,17.865147 8.5283318,18.270897 8.1120783,18.676792 8.1036439,19.343179 8.5094828,19.75946 Z M 4.9901789,15.165775 C 3.4894327,15.22739 2.1772762,14.030334 2.1041814,12.426402 l -2.10309101,0.09586 c 0.1236072,2.711723 2.36734411,4.858253 5.07548871,4.747094 z M 2.1047709,12.506542 C 2.1446587,11.203102 3.051032,10.128294 4.2529427,9.8800123 L 3.8268648,7.8182694 C 1.6374018,8.2707467 0.06911856,10.19917 4.8684774e-4,12.442262 Z M 5.092537,8.8491196 c 0,-7.08e-5 0,-1.551e-4 0,-2.249e-4 0,-8.43e-5 0,-1.541e-4 0,-2.393e-4 0,-6.99e-5 0,-1.533e-4 0,-2.24e-4 0,-8.34e-5 0,-1.55e-4 0,-2.384e-4 0,-6.98e-5 0,-1.542e-4 0,-2.24e-4 0,-7.16e-5 0,-1.55e-4 0,-2.257e-4 0,-8.34e-5 0,-1.532e-4 0,-2.385e-4 0,-6.98e-5 0,-1.541e-4 0,-2.239e-4 0,-8.43e-5 0,-1.541e-4 0,-2.394e-4 0,-6.98e-5 0,-1.541e-4 0,-2.239e-4 0,-8.43e-5 0,-1.55e-4 0,-2.248e-4 0,-8.44e-5 0,-1.542e-4 0,-2.385e-4 0,-7.07e-5 0,-1.55e-4 0,-2.248e-4 0,-8.34e-5 0,-1.542e-4 0,-2.385e-4 0,-7.07e-5 0,-1.541e-4 0,-2.239e-4 0,-8.43e-5 0,-1.542e-4 0,-2.258e-4 0,-8.34e-5 0,-1.532e-4 0,-2.375e-4 0,-6.98e-5 0,-1.551e-4 0,-2.249e-4 0,-8.43e-5 0,-1.541e-4 0,-2.384e-4 0,-7.07e-5 0,-1.55e-4 0,-2.249e-4 0,-8.43e-5 0,-1.541e-4 0,-2.393e-4 0,-6.98e-5 0,-1.396e-4 0,-2.239e-4 0,-6.99e-5 0,-1.551e-4 0,-2.249e-4 0,-8.34e-5 0,-1.541e-4 0,-2.375e-4 0,-6.98e-5 0,-1.551e-4 0,-2.249e-4 0,-8.43e-5 0,-1.541e-4 0,-2.384e-4 0,-7.07e-5 0,-1.406e-4 0,-2.249e-4 0,-6.98e-5 0,-1.541e-4 0,-2.248e-4 0,-8.43e-5 0,-1.541e-4 0,-2.385e-4 0,-6.98e-5 0,-1.55e-4 0,-2.248e-4 0,-8.43e-5 0,-1.541e-4 0,-2.375e-4 0,-7.17e-5 0,-1.551e-4 0,-2.258e-4 0,-6.98e-5 0,-1.541e-4 0,-2.239e-4 0,-8.44e-5 0,-1.551e-4 0,-2.385e-4 0,-7.07e-5 0,-1.541e-4 0,-2.248e-4 0,-8.43e-5 0,-1.542e-4 0,-2.385e-4 0,-6.98e-5 0,-1.55e-4 0,-2.248e-4 0,-6.98e-5 0,-1.541e-4 0,-2.24e-4 0,-8.52e-5 0,-1.55e-4 0,-2.393e-4 0,-6.98e-5 0,-1.541e-4 0,-2.24e-4 0,-8.52e-5 0,-1.55e-4 0,-2.393e-4 0,-6.98e-5 0,-1.532e-4 0,-2.248e-4 0,-8.35e-5 0,-1.542e-4 0,-2.24e-4 0,-8.34e-5 0,-1.55e-4 0,-2.384e-4 0,-7.08e-5 0,-1.542e-4 0,-2.24e-4 0,-8.52e-5 0,-1.55e-4 0,-2.393e-4 0,-6.98e-5 0,-1.542e-4 0,-2.249e-4 0,-8.43e-5 0,-1.541e-4 0,-2.239e-4 0,-8.43e-5 0,-1.541e-4 0,-2.394e-4 0,-6.98e-5 0,-1.541e-4 0,-2.239e-4 0,-8.43e-5 0,-1.55e-4 0,-2.394e-4 0,-6.98e-5 0,-1.532e-4 0,-2.239e-4 0,-8.43e-5 0,-1.55e-4 0,-2.384e-4 0,-6.99e-5 0,-1.406e-4 0,-2.249e-4 0,-7.07e-5 0,-1.541e-4 0,-2.248e-4 0,-8.34e-5 0,-1.542e-4 0,-2.385e-4 0,-6.98e-5 0,-1.541e-4 0,-2.239e-4 0,-8.43e-5 0,-1.551e-4 0,-2.394e-4 0,-6.98e-5 0,-1.396e-4 0,-2.239e-4 0,-7.07e-5 0,-1.55e-4 0,-2.249e-4 0,-8.43e-5 0,-1.541e-4 0,-2.393e-4 0,-6.98e-5 0,-1.541e-4 0,-2.239e-4 0,-8.35e-5 0,-1.551e-4 0,-2.385e-4 0,-7.07e-5 0,-1.541e-4 0,-2.239e-4 0,-7.07e-5 0,-1.551e-4 0,-2.258e-4 0,-8.34e-5 0,-1.532e-4 0,-2.375e-4 0,-7.07e-5 0,-1.551e-4 0,-2.249e-4 0,-8.43e-5 0,-1.541e-4 0,-2.393e-4 0,-6.98e-5 0,-1.541e-4 0,-2.24e-4 0,-6.98e-5 0,-1.55e-4 0,-2.248e-4 0,-8.43e-5 0,-1.541e-4 0,-2.385e-4 0,-7.07e-5 0,-1.55e-4 0,-2.248e-4 0,-8.34e-5 0,-1.541e-4 0,-2.384e-4 0,-7.08e-5 0,-1.542e-4 0,-2.24e-4 0,-8.43e-5 0,-1.541e-4 0,-2.257e-4 0,-8.34e-5 0,-1.533e-4 0,-2.376e-4 0,-6.98e-5 0,-1.55e-4 0,-2.248e-4 0,-8.43e-5 0,-1.541e-4 0,-2.385e-4 0,-7.07e-5 0,-1.55e-4 0,-2.248e-4 0,-8.43e-5 0,-1.541e-4 0,-2.249e-4 0,-8.43e-5 0,-1.541e-4 0,-2.384e-4 0,-6.98e-5 0,-1.55e-4 0,-2.248e-4 0,-8.35e-5 0,-1.542e-4 0,-2.376e-4 0,-7.07e-5 0,-1.55e-4 0,-2.248e-4 0,-8.44e-5 0,-1.542e-4 0,-2.385e-4 0,-7.07e-5 0,-1.414e-4 0,-2.248e-4 0,-6.98e-5 0,-1.542e-4 0,-2.249e-4 0,-8.43e-5 0,-1.541e-4 0,-2.384e-4 0,-6.98e-5 0,-1.551e-4 0,-2.249e-4 0,-8.43e-5 0,-1.541e-4 0,-2.384e-4 0,-6.98e-5 0,-1.405e-4 0,-2.249e-4 0,-6.98e-5 0,-1.541e-4 0,-2.239e-4 0,-8.52e-5 0,-1.55e-4 0,-2.384e-4 0,-7.08e-5 0,-1.542e-4 0,-2.258e-4 0,-8.34e-5 0,-1.532e-4 0,-2.375e-4 0,-6.98e-5 0,-1.551e-4 0,-2.249e-4 0,-6.98e-5 0,-1.541e-4 0,-2.239e-4 0,-8.52e-5 0,-1.551e-4 0,-2.394e-4 0,-6.98e-5 0,-1.541e-4 0,-2.239e-4 0,-8.52e-5 0,-1.55e-4 0,-2.394e-4 0,-6.98e-5 0,-1.532e-4 0,-2.248e-4 0,-6.98e-5 0,-1.541e-4 0,-2.239e-4 0,-8.35e-5 0,-1.551e-4 0,-2.385e-4 0,-7.07e-5 0,-1.541e-4 0,-2.248e-4 0,-8.44e-5 0,-1.542e-4 0,-2.385e-4 0,-6.98e-5 0,-1.541e-4 0,-2.248e-4 0,-8.43e-5 0,-1.542e-4 0,-2.24e-4 0,-8.43e-5 0,-1.541e-4 0,-2.393e-4 0,-6.98e-5 0,-1.541e-4 0,-2.24e-4 0,-8.43e-5 0,-1.55e-4 0,-2.393e-4 0,-6.98e-5 0,-1.541e-4 0,-2.24e-4 0,-8.43e-5 0,-1.55e-4 0,-2.248e-4 0,-8.43e-5 0,-1.541e-4 0,-2.384e-4 0,-7.08e-5 0,-1.542e-4 0,-2.249e-4 0,-8.34e-5 0,-1.532e-4 0,-2.384e-4 0,-6.98e-5 0,-1.542e-4 0,-2.24e-4 0,-8.43e-5 0,-1.55e-4 0,-2.393e-4 0,-6.98e-5 0,-1.396e-4 0,-2.24e-4 0,-7.07e-5 0,-1.55e-4 0,-2.248e-4 0,-8.43e-5 0,-1.541e-4 0,-2.394e-4 0,-6.98e-5 0,-1.541e-4 0,-2.239e-4 0,-8.34e-5 0,-1.55e-4 0,-2.384e-4 0,-7.08e-5 0,-1.406e-4 0,-2.24e-4 0,-7.07e-5 0,-1.55e-4 0,-2.257e-4 0,-8.35e-5 0,-1.533e-4 0,-2.376e-4 0,-7.07e-5 0,-1.55e-4 0,-2.248e-4 0,-8.43e-5 0,-1.542e-4 0,-2.394e-4 0,-6.98e-5 0,-1.541e-4 0,-2.239e-4 0,-6.98e-5 0,-1.551e-4 0,-2.249e-4 0,-8.43e-5 0,-1.541e-4 0,-2.384e-4 0,-7.07e-5 0,-1.55e-4 0,-2.249e-4 0,-8.34e-5 0,-1.541e-4 0,-2.375e-4 0,-7.16e-5 0,-1.55e-4 0,-2.257e-4 0,-6.99e-5 0,-1.533e-4 0,-2.249e-4 0,-8.34e-5 0,-1.541e-4 0,-2.375e-4 0,-6.98e-5 0,-1.551e-4 0,-2.249e-4 0,-8.43e-5 0,-1.541e-4 0,-2.384e-4 0,-7.07e-5 0,-1.551e-4 0,-2.249e-4 0,-8.43e-5 0,-1.541e-4 0,-2.239e-4 0,-8.52e-5 0,-1.55e-4 0,-2.394e-4 0,-6.98e-5 0,-1.541e-4 0,-2.248e-4 0,-8.43e-5 0,-1.541e-4 0,-2.375e-4 0,-7.08e-5 0,-1.551e-4 0,-2.258e-4 0,-8.34e-5 0,-1.532e-4 0,-2.239e-4 0,-8.44e-5 0,-1.551e-4 0,-2.385e-4 0,-6.98e-5 0,-1.541e-4 0,-2.248e-4 0,-8.43e-5 0,-1.542e-4 0,-2.385e-4 0,-6.98e-5 0,-1.55e-4 0,-2.248e-4 0,-8.43e-5 0,-1.542e-4 0,-2.385e-4 0,-6.98e-5 0,-1.405e-4 0,-2.248e-4 0,-6.98e-5 0,-1.541e-4 0,-2.24e-4 0,-8.52e-5 0,-1.55e-4 0,-2.384e-4 0,-7.07e-5 0,-1.541e-4 0,-2.258e-4 0,-8.34e-5 0,-1.532e-4 0,-2.375e-4 0,-6.98e-5 0,-1.414e-4 0,-2.248e-4 0,-6.98e-5 0,-1.542e-4 0,-2.24e-4 0,-8.52e-5 0,-1.55e-4 0,-2.393e-4 0,-6.98e-5 0,-1.542e-4 0,-2.24e-4 0,-8.52e-5 0,-1.55e-4 0,-2.393e-4 0,-6.98e-5 0,-1.541e-4 0,-2.249e-4 0,-6.98e-5 0,-1.541e-4 0,-2.239e-4 0,-8.43e-5 0,-1.55e-4 0,-2.385e-4 0,-7.07e-5 0,-1.541e-4 0,-2.248e-4 0,-8.43e-5 0,-1.55e-4 0,-2.384e-4 0,-6.99e-5 0,-1.542e-4 0,-2.24e-4 0,-7.16e-5 0,-1.55e-4 0,-2.248e-4 0,-8.43e-5 0,-1.542e-4 0,-2.394e-4 0,-6.98e-5 0,-1.541e-4 0,-2.239e-4 0,-8.43e-5 0,-1.551e-4 0,-2.394e-4 0,-6.98e-5 0,-1.541e-4 0,-2.239e-4 0,-8.52e-5 0,-1.55e-4 0,-2.249e-4 0,-8.43e-5 0,-1.541e-4 0,-2.393e-4 0,-6.98e-5 0,-1.532e-4 0,-2.239e-4 0,-8.35e-5 0,-1.533e-4 0,-2.385e-4 0,-6.98e-5 0,-1.541e-4 0,-2.239e-4 0,-8.44e-5 0,-1.551e-4 0,-2.249e-4 0,-8.43e-5 0,-1.541e-4 0,-2.384e-4 0,-7.07e-5 0,-1.551e-4 0,-2.249e-4 0,-8.43e-5 0,-1.541e-4 0,-2.393e-4 0,-6.98e-5 0,-1.542e-4 0,-2.24e-4 0,-8.34e-5 0,-1.55e-4 0,-2.384e-4 0,-7.07e-5 0,-1.405e-4 0,-2.249e-4 0,-6.98e-5 0,-1.541e-4 0,-2.248e-4 0,-8.34e-5 0,-1.541e-4 0,-2.375e-4 0,-7.08e-5 0,-1.551e-4 0,-2.249e-4 0,-8.43e-5 0,-1.541e-4 0,-2.393e-4 0,-6.98e-5 0,-1.397e-4 0,-2.24e-4 0,-6.98e-5 0,-1.55e-4 0,-2.248e-4 0,-8.43e-5 0,-1.542e-4 0,-2.385e-4 0,-6.98e-5 0,-1.55e-4 0,-2.248e-4 0,-8.43e-5 0,-1.541e-4 0,-2.376e-4 0,-7.16e-5 0,-1.55e-4 0,-2.257e-4 0,-6.98e-5 0,-1.532e-4 0,-2.249e-4 0,-8.34e-5 0,-1.541e-4 0,-2.375e-4 0,-6.98e-5 0,-1.55e-4 0,-2.248e-4 0,-8.44e-5 0,-1.542e-4 0,-2.385e-4 0,-7.07e-5 0,-1.55e-4 0,-2.248e-4 0,-6.98e-5 0,-1.542e-4 0,-2.24e-4 0,-8.52e-5 0,-1.55e-4 0,-2.393e-4 0,-6.98e-5 0,-1.541e-4 0,-2.249e-4 0,-8.43e-5 0,-1.541e-4 0,-2.375e-4 0,-7.07e-5 0,-1.55e-4 0,-2.258e-4 0,-8.34e-5 0,-1.532e-4 0,-2.239e-4 0,-8.43e-5 0,-1.55e-4 0,-2.384e-4 0,-6.99e-5 0,-1.542e-4 0,-2.249e-4 0,-8.43e-5 0,-1.541e-4 0,-2.384e-4 0,-6.98e-5 0,-1.542e-4 0,-2.249e-4 0,-8.43e-5 0,-1.541e-4 0,-2.239e-4 0,-8.43e-5 0,-1.551e-4 0,-2.394e-4 0,-6.98e-5 0,-1.541e-4 0,-2.239e-4 0,-8.52e-5 0,-1.55e-4 0,-2.385e-4 0,-7.07e-5 0,-1.541e-4 0,-2.257e-4 0,-8.34e-5 0,-1.541e-4 0,-2.375e-4 0,-6.99e-5 0,-1.406e-4 0,-2.249e-4 0,-7.07e-5 0,-1.541e-4 0,-2.239e-4 0,-8.44e-5 0,-1.551e-4 0,-2.394e-4 0,-6.98e-5 0,-1.541e-4 0,-2.239e-4 0,-8.52e-5 0,-1.551e-4 0,-2.394e-4 0,-6.98e-5 0,-1.396e-4 0,-2.248e-4 0,-6.98e-5 0,-1.542e-4 0,-2.24e-4 0,-8.43e-5 0,-1.55e-4 0,-2.393e-4 0,-6.98e-5 0,-1.532e-4 0,-2.24e-4 0,-8.43e-5 0,-1.55e-4 0,-2.384e-4 0,-6.98e-5 0,-1.541e-4 0,-2.239e-4 0,-7.17e-5 0,-1.551e-4 0,-2.249e-4 0,-8.43e-5 0,-1.541e-4 0,-2.393e-4 0,-6.98e-5 0,-1.542e-4 0,-2.24e-4 0,-8.43e-5 0,-1.55e-4 0,-2.393e-4 0,-6.98e-5 0,-1.542e-4 0,-2.24e-4 0,-7.07e-5 0,-1.55e-4 0,-2.248e-4 0,-8.43e-5 0,-1.541e-4 0,-2.385e-4 0,-7.07e-5 0,-1.541e-4 0,-2.248e-4 0,-8.34e-5 0,-1.541e-4 0,-2.385e-4 0,-6.98e-5 0,-1.541e-4 0,-2.239e-4 0,-8.43e-5 0,-1.55e-4 0,-2.257e-4 0,-8.35e-5 0,-1.533e-4 0,-2.376e-4 0,-7.07e-5 0,-1.55e-4 0,-2.248e-4 0,-8.43e-5 0,-1.542e-4 0,-2.394e-4 0,-6.98e-5 0,-1.541e-4 0,-2.239e-4 0,-8.43e-5 0,-1.541e-4 0,-2.249e-4 0,-8.43e-5 0,-1.541e-4 0,-2.384e-4 0,-6.98e-5 0,-1.55e-4 0,-2.249e-4 0,-8.34e-5 0,-1.541e-4 0,-2.375e-4 0,-7.16e-5 0,-1.55e-4 0,-2.248e-4 0,-8.44e-5 0,-1.542e-4 0,-2.394e-4 0,-6.98e-5 0,-1.396e-4 0,-2.239e-4 0,-6.98e-5 0,-1.551e-4 0,-2.249e-4 0,-8.43e-5 0,-1.541e-4 0,-2.384e-4 0,-6.98e-5 0,-1.551e-4 0,-2.249e-4 0,-8.43e-5 0,-1.541e-4 0,-2.375e-4 0,-7.16e-5 0,-1.414e-4 0,-2.258e-4 0,-6.98e-5 0,-1.532e-4 0,-2.248e-4 0,-8.34e-5 0,-1.541e-4 0,-2.375e-4 0,-6.99e-5 0,-1.551e-4 0,-2.249e-4 0,-8.43e-5 0,-1.541e-4 0,-2.384e-4 0,-7.08e-5 0,-1.551e-4 0,-2.249e-4 0,-6.98e-5 0,-1.541e-4 0,-2.239e-4 0,-8.53e-5 0,-1.551e-4 0,-2.394e-4 0,-6.98e-5 0,-1.541e-4 0,-2.248e-4 0,-8.43e-5 0,-1.542e-4 0,-2.376e-4 0,-7.07e-5 0,-1.55e-4 0,-2.257e-4 0,-6.98e-5 0,-1.541e-4 0,-2.24e-4 0,-8.43e-5 0,-1.55e-4 0,-2.384e-4 0,-7.07e-5 0,-1.541e-4 0,-2.239e-4 0,-8.53e-5 0,-1.551e-4 0,-2.394e-4 0,-6.98e-5 0,-1.541e-4 0,-2.248e-4 0,-8.44e-5 0,-1.542e-4 0,-2.24e-4 0,-8.43e-5 0,-1.55e-4 0,-2.393e-4 0,-6.98e-5 0,-1.542e-4 0,-2.24e-4 0,-8.52e-5 0,-1.55e-4 0,-2.393e-4 0,-6.98e-5 0,-1.532e-4 0,-2.249e-4 0,-8.34e-5 0,-1.541e-4 0,-2.239e-4 0,-8.34e-5 0,-1.541e-4 0,-2.385e-4 0,-7.07e-5 0,-1.541e-4 0,-2.239e-4 0,-8.43e-5 0,-1.55e-4 0,-2.393e-4 0,-6.99e-5 0,-1.542e-4 0,-2.24e-4 0,-8.52e-5 0,-1.55e-4 0,-2.393e-4 0,-6.98e-5 0,-1.397e-4 0,-2.249e-4 0,-6.98e-5 0,-1.541e-4 0,-2.239e-4 0,-8.43e-5 0,-1.551e-4 0,-2.394e-4 0,-6.98e-5 0,-1.532e-4 0,-2.239e-4 0,-8.34e-5 0,-1.55e-4 0,-2.385e-4 0,-6.98e-5 0,-1.405e-4 0,-2.239e-4 0,-7.16e-5 0,-1.55e-4 0,-2.258e-4 0,-8.34e-5 0,-1.532e-4 0,-2.384e-4 0,-6.98e-5 0,-1.541e-4 0,-2.239e-4 0,-8.44e-5 0,-1.551e-4 0,-2.394e-4 0,-6.98e-5 0,-1.541e-4 0,-2.239e-4 0,-6.98e-5 0,-1.551e-4 0,-2.249e-4 0,-8.43e-5 0,-1.541e-4 0,-2.384e-4 0,-7.07e-5 0,-1.551e-4 0,-2.249e-4 0,-8.34e-5 0,-1.541e-4 0,-2.384e-4 0,-7.07e-5 0,-1.541e-4 0,-2.24e-4 0,-7.07e-5 0,-1.55e-4 0,-2.257e-4 0,-8.34e-5 0,-1.532e-4 0,-2.375e-4 0,-7.08e-5 0,-1.551e-4 0,-2.249e-4 0,-8.43e-5 0,-1.541e-4 0,-2.393e-4 0,-6.99e-5 0,-1.542e-4 0,-2.24e-4 0,-8.43e-5 0,-1.541e-4 0,-2.248e-4 0,-8.43e-5 0,-1.542e-4 0,-2.385e-4 0,-6.98e-5 0,-1.55e-4 0,-2.248e-4 0,-8.34e-5 0,-1.541e-4 0,-2.376e-4 0,-7.16e-5 0,-1.55e-4 0,-2.248e-4 0,-8.43e-5 0,-1.541e-4 0,-2.258e-4 0,-8.34e-5 0,-1.532e-4 0,-2.375e-4 0,-6.98e-5 0,-1.541e-4 0,-2.248e-4 0,-8.44e-5 0,-1.542e-4 0,-2.385e-4 0,-6.98e-5 0,-1.55e-4 0,-2.248e-4 0,-8.43e-5 0,-1.542e-4 0,-2.376e-4 0,-7.16e-5 0,-1.414e-4 0,-2.257e-4 0,-6.98e-5 0,-1.542e-4 0,-2.249e-4 0,-8.34e-5 0,-1.541e-4 0,-2.375e-4 0,-7.07e-5 0,-1.55e-4 0,-2.258e-4 0,-8.34e-5 0,-1.532e-4 0,-2.375e-4 0,-6.98e-5 0,-1.414e-4 0,-2.248e-4 0,-6.99e-5 0,-1.542e-4 0,-2.24e-4 0,-8.52e-5 0,-1.55e-4 0,-2.393e-4 0,-6.98e-5 0,-1.542e-4 0,-2.249e-4 0,-8.43e-5 0,-1.541e-4 0,-2.384e-4 0,-6.98e-5 0,-1.551e-4 0,-2.249e-4 0,-6.98e-5 0,-1.541e-4 0,-2.239e-4 0,-8.52e-5 0,-1.55e-4 0,-2.385e-4 0,-7.07e-5 0,-1.541e-4 0,-2.239e-4 0,-8.52e-5 0,-1.55e-4 0,-2.394e-4 0,-6.98e-5 0,-1.541e-4 0,-2.248e-4 0,-6.98e-5 0,-1.541e-4 0,-2.239e-4 0,-8.44e-5 0,-1.551e-4 0,-2.394e-4 0,-6.98e-5 0,-1.541e-4 0,-2.239e-4 0,-8.53e-5 0,-1.551e-4 0,-2.394e-4 0,-6.98e-5 0,-1.532e-4 0,-2.248e-4 0,-8.34e-5 0,-1.542e-4 0,-2.24e-4 0,-8.34e-5 0,-1.541e-4 0,-2.384e-4 0,-7.07e-5 0,-1.541e-4 0,-2.249e-4 0,-8.34e-5 0,-1.541e-4 0,-2.384e-4 0,-6.98e-5 0,-1.541e-4 0,-2.239e-4 0,-8.53e-5 0,-1.551e-4 0,-2.249e-4 0,-8.43e-5 0,-1.541e-4 0,-2.393e-4 0,-6.99e-5 0,-1.542e-4 0,-2.24e-4 0,-8.43e-5 0,-1.541e-4 0,-2.393e-4 0,-6.98e-5 0,-1.542e-4 0,-2.24e-4 0,-8.34e-5 0,-1.55e-4 0,-2.384e-4 0,-7.07e-5 0,-1.405e-4 0,-2.24e-4 0,-7.16e-5 0,-1.55e-4 0,-2.257e-4 0,-8.34e-5 0,-1.532e-4 0,-2.385e-4 0,-6.98e-5 0,-1.541e-4 0,-2.239e-4 0,-8.43e-5 0,-1.55e-4 0,-2.393e-4 0,-6.99e-5 0,-1.397e-4 0,-2.24e-4 0,-6.98e-5 0,-1.55e-4 0,-2.248e-4 0,-8.44e-5 0,-1.542e-4 0,-2.385e-4 0,-7.07e-5 0,-1.55e-4 0,-2.248e-4 0,-8.34e-5 0,-1.542e-4 0,-2.385e-4 0,-7.07e-5 0,-1.541e-4 0,-2.239e-4 0,-7.07e-5 0,-1.55e-4 0,-2.258e-4 0,-8.34e-5 0,-1.532e-4 0,-2.375e-4 0,-7.07e-5 0,-1.55e-4 0,-2.248e-4 0,-8.44e-5 0,-1.542e-4 0,-2.385e-4 0,-7.07e-5 0,-1.55e-4 0,-2.248e-4 0,-6.98e-5 0,-1.542e-4 0,-2.249e-4 0,-8.43e-5 0,-1.541e-4 0,-2.384e-4 0,-6.98e-5 0,-1.551e-4 0,-2.249e-4 0,-8.34e-5 0,-1.541e-4 0,-2.375e-4 0,-7.16e-5 0,-1.551e-4 0,-2.258e-4 0,-8.34e-5 0,-1.532e-4 0,-2.239e-4 0,-8.43e-5 0,-1.55e-4 0,-2.385e-4 0,-6.98e-5 0,-1.541e-4 0,-2.248e-4 0,-8.43e-5 0,-1.541e-4 0,-2.384e-4 0,-6.99e-5 0,-1.551e-4 0,-2.249e-4 0,-8.43e-5 0,-1.541e-4 0,-2.239e-4 0,-8.53e-5 0,-1.551e-4 0,-2.394e-4 0,-6.98e-5 0,-1.541e-4 0,-2.248e-4 0,-8.43e-5 0,-1.542e-4 0,-2.376e-4 0,-7.07e-5 0,-1.55e-4 0,-2.257e-4 0,-8.34e-5 0,-1.532e-4 0,-2.376e-4 0,-6.98e-5 0,-1.414e-4 0,-2.248e-4 0,-6.98e-5 0,-1.541e-4 0,-2.239e-4 0,-8.53e-5 0,-1.551e-4 0,-2.394e-4 0,-6.98e-5 0,-1.541e-4 0,-2.248e-4 0,-8.44e-5 0,-1.542e-4 0,-2.385e-4 0,-6.98e-5 0,-1.405e-4 0,-2.248e-4 0,-6.98e-5 0,-1.542e-4 0,-2.24e-4 0,-8.34e-5 0,-1.55e-4 0,-2.384e-4 0,-7.07e-5 0,-1.541e-4 0,-2.249e-4 0,-8.43e-5 0,-1.541e-4 0,-2.384e-4 0,-6.98e-5 0,-1.541e-4 0,-2.249e-4 0,-7.07e-5 0,-1.541e-4 0,-2.239e-4 0,-8.43e-5 0,-1.55e-4 0,-2.393e-4 0,-6.99e-5 0,-1.542e-4 0,-2.24e-4 0,-8.52e-5 0,-1.55e-4 0,-2.393e-4 0,-6.99e-5 0,-1.542e-4 0,-2.24e-4 0,-7.07e-5 0,-1.55e-4 0,-2.248e-4 0,-8.43e-5 0,-1.542e-4 0,-2.394e-4 0,-6.98e-5 0,-1.532e-4 0,-2.239e-4 0,-8.34e-5 0,-1.551e-4 0,-2.385e-4 0,-6.98e-5 0,-1.541e-4 0,-2.239e-4 0,-8.52e-5 0,-1.55e-4 0,-2.248e-4 0,-8.44e-5 0,-1.542e-4 0,-2.394e-4 0,-6.98e-5 0,-1.541e-4 0,-2.239e-4 0,-8.44e-5 0,-1.542e-4 0,-2.394e-4 0,-6.98e-5 0,-1.541e-4 0,-2.239e-4 0,-8.34e-5 0,-1.551e-4 0,-2.249e-4 0,-8.43e-5 0,-1.541e-4 0,-2.375e-4 0,-7.16e-5 0,-1.551e-4 0,-2.258e-4 0,-8.34e-5 0,-1.532e-4 0,-2.384e-4 0,-6.98e-5 0,-1.541e-4 0,-2.24e-4 0,-8.43e-5 0,-1.541e-4 0,-2.393e-4 0,-6.98e-5 0,-1.396e-4 0,-2.239e-4 0,-6.99e-5 0,-1.551e-4 0,-2.249e-4 0,-8.43e-5 0,-1.541e-4 0,-2.384e-4 0,-7.08e-5 0,-1.551e-4 0,-2.249e-4 0,-8.34e-5 0,-1.541e-4 0,-2.384e-4 0,-7.07e-5 0,-1.406e-4 0,-2.249e-4 0,-6.98e-5 0,-1.541e-4 0,-2.248e-4 0,-8.34e-5 0,-1.541e-4 0,-2.376e-4 0,-6.98e-5 0,-1.55e-4 0,-2.248e-4 0,-8.43e-5 0,-1.541e-4 0,-2.385e-4 0,-7.07e-5 0,-1.55e-4 0,-2.248e-4 0,-6.98e-5 0,-1.541e-4 0,-2.248e-4 0,-8.44e-5 0,-1.542e-4 0,-2.385e-4 0,-6.98e-5 0,-1.55e-4 0,-2.248e-4 0,-8.44e-5 0,-1.542e-4 0,-2.376e-4 0,-7.16e-5 0,-1.55e-4 0,-2.257e-4 0,-6.98e-5 0,-1.532e-4 0,-2.24e-4 0,-8.43e-5 0,-1.55e-4 0,-2.384e-4 0,-6.98e-5 0,-1.541e-4 0,-2.249e-4 0,-8.43e-5 0,-1.541e-4 0,-2.384e-4 0,-6.98e-5 0,-1.55e-4 0,-2.248e-4 0,-8.44e-5 0,-1.542e-4 0,-2.24e-4 0,-8.52e-5 0,-1.55e-4 0,-2.393e-4 0,-6.99e-5 0,-1.542e-4 0,-2.249e-4 0,-8.43e-5 0,-1.541e-4 0,-2.375e-4 0,-7.07e-5 0,-1.542e-4 0,-2.258e-4 0,-8.34e-5 0,-1.532e-4 0,-2.239e-4 0,-8.34e-5 0,-1.551e-4 0,-2.385e-4 0,-7.07e-5 0,-1.541e-4 0,-2.239e-4 0,-8.52e-5 0,-1.55e-4 0,-2.394e-4 0,-6.98e-5 0,-1.541e-4 0,-2.248e-4 0,-8.43e-5 0,-1.541e-4 0,-2.384e-4 0,-6.99e-5 0,-1.397e-4 0,-2.249e-4 0,-6.98e-5 0,-1.541e-4 0,-2.239e-4 0,-8.43e-5 0,-1.551e-4 0,-2.394e-4 0,-6.98e-5 0,-1.532e-4 0,-2.239e-4 0,-8.43e-5 0,-1.551e-4 0,-2.385e-4 0,-6.98e-5 0,-1.405e-4 0,-2.248e-4 0,-7.07e-5 0,-1.541e-4 0,-2.24e-4 0,-8.43e-5 0,-1.55e-4 0,-2.393e-4 0,-6.98e-5 0,-1.541e-4 0,-2.239e-4 0,-8.53e-5 0,-1.551e-4 0,-2.394e-4 0,-6.98e-5 0,-1.541e-4 0,-2.239e-4 0,-7.08e-5 0,-1.551e-4 0,-2.249e-4 0,-8.43e-5 0,-1.541e-4 0,-2.393e-4 0,-6.98e-5 0,-1.533e-4 0,-2.24e-4 0,-8.34e-5 0,-1.55e-4 0,-2.384e-4 0,-6.98e-5 0,-1.541e-4 0,-2.24e-4 0,-7.16e-5 0,-1.55e-4 0,-2.248e-4 0,-8.43e-5 0,-1.541e-4 0,-2.385e-4 0,-7.07e-5 0,-1.55e-4 0,-2.248e-4 0,-8.43e-5 0,-1.541e-4 0,-2.394e-4 0,-6.98e-5 0,-1.541e-4 0,-2.239e-4 0,-8.34e-5 0,-1.55e-4 0,-2.248e-4 0,-8.44e-5 0,-1.542e-4 0,-2.385e-4 0,-7.07e-5 0,-1.541e-4 0,-2.248e-4 0,-8.34e-5 0,-1.542e-4 0,-2.385e-4 0,-7.07e-5 0,-1.541e-4 0,-2.239e-4 0,-8.43e-5 0,-1.541e-4 0,-2.258e-4 0,-8.34e-5 0,-1.532e-4 0,-2.375e-4 0,-6.98e-5 0,-1.55e-4 0,-2.248e-4 0,-8.44e-5 0,-1.542e-4 0,-2.385e-4 0,-7.07e-5 0,-1.55e-4 0,-2.248e-4 0,-8.44e-5 0,-1.542e-4 0,-2.394e-4 0,-6.98e-5 0,-1.396e-4 0,-2.239e-4 0,-6.98e-5 0,-1.551e-4 0,-2.249e-4 0,-8.34e-5 0,-1.541e-4 0,-2.375e-4 0,-6.98e-5 0,-1.551e-4 0,-2.249e-4 0,-8.43e-5 0,-1.541e-4 0,-2.384e-4 0,-7.07e-5 0,-1.405e-4 0,-2.249e-4 0,-6.98e-5 0,-1.541e-4 0,-2.248e-4 0,-8.43e-5 0,-1.541e-4 0,-2.384e-4 0,-6.99e-5 0,-1.551e-4 0,-2.249e-4 0,-8.43e-5 0,-1.541e-4 0,-2.375e-4 0,-7.08e-5 0,-1.551e-4 0,-2.258e-4 0,-6.98e-5 0,-1.532e-4 0,-2.239e-4 0,-8.43e-5 0,-1.551e-4 0,-2.385e-4 0,-7.07e-5 0,-1.541e-4 0,-2.248e-4 0,-8.43e-5 0,-1.541e-4 0,-2.385e-4 0,-6.98e-5 0,-1.55e-4 0,-2.248e-4 0,-6.98e-5 0,-1.541e-4 0,-2.239e-4 0,-8.53e-5 0,-1.551e-4 0,-2.394e-4 0,-6.98e-5 0,-1.541e-4 0,-2.239e-4 0,-8.53e-5 0,-1.551e-4 0,-2.394e-4 0,-6.98e-5 0,-1.532e-4 0,-2.248e-4 0,-8.34e-5 0,-1.542e-4 0,-2.24e-4 0,-8.34e-5 0,-1.55e-4 0,-2.384e-4 0,-7.07e-5 0,-1.542e-4 0,-2.24e-4 0,-8.52e-5 0,-1.55e-4 0,-2.393e-4 0,-6.98e-5 0,-1.541e-4 0,-2.249e-4 0,-8.43e-5 0,-1.541e-4 0,-2.239e-4 0,-8.43e-5 0,-1.541e-4 0,-2.394e-4 0,-6.98e-5 0,-1.541e-4 0,-2.239e-4 0,-8.43e-5 0,-1.55e-4 0,-2.393e-4 0,-6.99e-5 0,-1.533e-4 0,-2.24e-4 0,-8.43e-5 0,-1.55e-4 0,-2.384e-4 0,-6.98e-5 0,-1.406e-4 0,-2.249e-4 0,-7.07e-5 0,-1.541e-4 0,-2.239e-4 0,-8.43e-5 0,-1.541e-4 0,-2.394e-4 0,-6.98e-5 0,-1.541e-4 0,-2.239e-4 0,-8.43e-5 0,-1.55e-4 0,-2.394e-4 0,-6.98e-5 0,-1.396e-4 0,-2.239e-4 0,-7.07e-5 0,-1.55e-4 0,-2.248e-4 0,-8.44e-5 0,-1.542e-4 0,-2.394e-4 0,-6.98e-5 0,-1.532e-4 0,-2.239e-4 0,-8.34e-5 0,-1.551e-4 0,-2.385e-4 0,-7.07e-5 0,-1.541e-4 0,-2.239e-4 H 2.9872705 c 0,6.98e-5 0,1.532e-4 0,2.239e-4 0,8.34e-5 0,1.551e-4 0,2.385e-4 0,7.07e-5 0,1.541e-4 0,2.239e-4 0,8.52e-5 0,1.55e-4 0,2.394e-4 0,6.98e-5 0,1.541e-4 0,2.248e-4 0,8.43e-5 0,1.541e-4 0,2.239e-4 0,8.44e-5 0,1.551e-4 0,2.394e-4 0,6.98e-5 0,1.541e-4 0,2.239e-4 0,8.53e-5 0,1.551e-4 0,2.394e-4 0,6.98e-5 0,1.532e-4 0,2.239e-4 0,8.43e-5 0,1.551e-4 0,2.249e-4 0,8.34e-5 0,1.541e-4 0,2.384e-4 0,7.07e-5 0,1.541e-4 0,2.24e-4 0,8.43e-5 0,1.55e-4 0,2.393e-4 0,6.98e-5 0,1.541e-4 0,2.239e-4 0,8.53e-5 0,1.551e-4 0,2.394e-4 0,6.98e-5 0,1.396e-4 0,2.239e-4 0,7.08e-5 0,1.551e-4 0,2.249e-4 0,8.43e-5 0,1.541e-4 0,2.393e-4 0,6.98e-5 0,1.533e-4 0,2.24e-4 0,8.34e-5 0,1.55e-4 0,2.384e-4 0,6.98e-5 0,1.406e-4 0,2.24e-4 0,7.16e-5 0,1.55e-4 0,2.248e-4 0,8.43e-5 0,1.541e-4 0,2.394e-4 0,6.98e-5 0,1.541e-4 0,2.239e-4 0,8.43e-5 0,1.541e-4 0,2.394e-4 0,6.98e-5 0,1.541e-4 0,2.239e-4 0,6.98e-5 0,1.55e-4 0,2.248e-4 0,8.44e-5 0,1.542e-4 0,2.385e-4 0,7.07e-5 0,1.541e-4 0,2.248e-4 0,8.34e-5 0,1.542e-4 0,2.385e-4 0,7.07e-5 0,1.541e-4 0,2.239e-4 0,7.07e-5 0,1.55e-4 0,2.258e-4 0,8.34e-5 0,1.532e-4 0,2.375e-4 0,6.98e-5 0,1.55e-4 0,2.249e-4 0,8.43e-5 0,1.541e-4 0,2.384e-4 0,7.07e-5 0,1.55e-4 0,2.248e-4 0,8.44e-5 0,1.542e-4 0,2.249e-4 0,8.43e-5 0,1.541e-4 0,2.384e-4 0,6.98e-5 0,1.551e-4 0,2.249e-4 0,8.34e-5 0,1.541e-4 0,2.375e-4 0,6.98e-5 0,1.551e-4 0,2.249e-4 0,8.43e-5 0,1.541e-4 0,2.239e-4 0,8.52e-5 0,1.55e-4 0,2.394e-4 0,6.98e-5 0,1.541e-4 0,2.248e-4 0,8.43e-5 0,1.541e-4 0,2.385e-4 0,6.98e-5 0,1.55e-4 0,2.248e-4 0,8.43e-5 0,1.541e-4 0,2.375e-4 0,7.17e-5 0,1.415e-4 0,2.258e-4 0,6.98e-5 0,1.532e-4 0,2.239e-4 0,8.43e-5 0,1.551e-4 0,2.385e-4 0,7.07e-5 0,1.541e-4 0,2.248e-4 0,8.43e-5 0,1.541e-4 0,2.385e-4 0,6.98e-5 0,1.414e-4 0,2.248e-4 0,6.98e-5 0,1.541e-4 0,2.239e-4 0,8.53e-5 0,1.551e-4 0,2.394e-4 0,6.98e-5 0,1.541e-4 0,2.248e-4 0,8.44e-5 0,1.542e-4 0,2.385e-4 0,6.98e-5 0,1.532e-4 0,2.248e-4 0,6.99e-5 0,1.542e-4 0,2.24e-4 0,8.34e-5 0,1.55e-4 0,2.384e-4 0,7.07e-5 0,1.542e-4 0,2.24e-4 0,8.52e-5 0,1.55e-4 0,2.393e-4 0,6.98e-5 0,1.541e-4 0,2.249e-4 0,6.98e-5 0,1.541e-4 0,2.239e-4 0,8.43e-5 0,1.541e-4 0,2.394e-4 0,6.98e-5 0,1.541e-4 0,2.239e-4 0,8.43e-5 0,1.55e-4 0,2.393e-4 0,6.99e-5 0,1.533e-4 0,2.24e-4 0,8.43e-5 0,1.55e-4 0,2.248e-4 0,8.34e-5 0,1.542e-4 0,2.385e-4 0,7.07e-5 0,1.541e-4 0,2.239e-4 0,8.43e-5 0,1.551e-4 0,2.394e-4 0,6.98e-5 0,1.541e-4 0,2.239e-4 0,8.52e-5 0,1.55e-4 0,2.249e-4 0,8.43e-5 0,1.541e-4 0,2.384e-4 0,7.07e-5 0,1.55e-4 0,2.248e-4 0,8.44e-5 0,1.542e-4 0,2.394e-4 0,6.98e-5 0,1.532e-4 0,2.239e-4 0,8.34e-5 0,1.551e-4 0,2.385e-4 0,7.07e-5 0,1.405e-4 0,2.239e-4 0,7.16e-5 0,1.551e-4 0,2.258e-4 0,8.34e-5 0,1.532e-4 0,2.375e-4 0,7.07e-5 0,1.55e-4 0,2.249e-4 0,8.43e-5 0,1.541e-4 0,2.393e-4 0,6.98e-5 0,1.396e-4 0,2.24e-4 0,6.98e-5 0,1.55e-4 0,2.248e-4 0,8.43e-5 0,1.541e-4 0,2.384e-4 0,7.08e-5 0,1.551e-4 0,2.249e-4 0,8.34e-5 0,1.541e-4 0,2.384e-4 0,7.08e-5 0,1.542e-4 0,2.24e-4 0,7.07e-5 0,1.541e-4 0,2.257e-4 0,8.34e-5 0,1.532e-4 0,2.376e-4 0,6.98e-5 0,1.55e-4 0,2.248e-4 0,8.43e-5 0,1.541e-4 0,2.385e-4 0,7.07e-5 0,1.55e-4 0,2.248e-4 0,6.98e-5 0,1.541e-4 0,2.248e-4 0,8.44e-5 0,1.542e-4 0,2.385e-4 0,6.98e-5 0,1.55e-4 0,2.248e-4 0,8.35e-5 0,1.542e-4 0,2.376e-4 0,7.07e-5 0,1.55e-4 0,2.248e-4 0,8.43e-5 0,1.542e-4 0,2.249e-4 0,8.43e-5 0,1.55e-4 0,2.384e-4 0,6.98e-5 0,1.541e-4 0,2.249e-4 0,8.43e-5 0,1.541e-4 0,2.384e-4 0,6.98e-5 0,1.55e-4 0,2.249e-4 0,8.43e-5 0,1.541e-4 0,2.239e-4 0,8.52e-5 0,1.55e-4 0,2.393e-4 0,6.99e-5 0,1.542e-4 0,2.24e-4 0,8.52e-5 0,1.55e-4 0,2.384e-4 0,7.07e-5 0,1.542e-4 0,2.258e-4 0,8.34e-5 0,1.532e-4 0,2.375e-4 0,6.98e-5 0,1.415e-4 0,2.249e-4 0,6.98e-5 0,1.541e-4 0,2.239e-4 0,8.52e-5 0,1.55e-4 0,2.394e-4 0,6.98e-5 0,1.541e-4 0,2.239e-4 0,8.52e-5 0,1.55e-4 0,2.394e-4 0,6.98e-5 0,1.396e-4 0,2.248e-4 0,6.98e-5 0,1.541e-4 0,2.239e-4 0,8.34e-5 0,1.551e-4 0,2.385e-4 0,7.07e-5 0,1.541e-4 0,2.239e-4 0,8.52e-5 0,1.551e-4 0,2.394e-4 0,6.98e-5 0,1.541e-4 0,2.248e-4 0,6.98e-5 0,1.541e-4 0,2.24e-4 0,8.43e-5 0,1.541e-4 0,2.393e-4 0,6.98e-5 0,1.541e-4 0,2.24e-4 0,8.43e-5 0,1.55e-4 0,2.393e-4 0,6.98e-5 0,1.532e-4 0,2.239e-4 0,7.08e-5 0,1.551e-4 0,2.249e-4 0,8.43e-5 0,1.541e-4 0,2.384e-4 0,7.08e-5 0,1.542e-4 0,2.249e-4 0,8.34e-5 0,1.55e-4 0,2.384e-4 0,6.98e-5 0,1.542e-4 0,2.24e-4 0,8.43e-5 0,1.55e-4 0,2.248e-4 0,8.43e-5 0,1.541e-4 0,2.385e-4 0,7.07e-5 0,1.55e-4 0,2.248e-4 0,8.43e-5 0,1.541e-4 0,2.394e-4 0,6.98e-5 0,1.541e-4 0,2.239e-4 0,8.34e-5 0,1.55e-4 0,2.248e-4 0,8.44e-5 0,1.542e-4 0,2.376e-4 0,7.07e-5 0,1.55e-4 0,2.257e-4 0,8.34e-5 0,1.533e-4 0,2.376e-4 0,7.07e-5 0,1.55e-4 0,2.248e-4 0,8.43e-5 0,1.541e-4 0,2.394e-4 0,6.98e-5 0,1.396e-4 0,2.239e-4 0,6.98e-5 0,1.55e-4 0,2.249e-4 0,8.43e-5 0,1.541e-4 0,2.384e-4 0,7.07e-5 0,1.55e-4 0,2.248e-4 0,8.35e-5 0,1.542e-4 0,2.385e-4 0,7.07e-5 0,1.405e-4 0,2.239e-4 0,7.07e-5 0,1.542e-4 0,2.258e-4 0,8.34e-5 0,1.541e-4 0,2.375e-4 0,6.98e-5 0,1.551e-4 0,2.249e-4 0,8.43e-5 0,1.541e-4 0,2.384e-4 0,7.07e-5 0,1.551e-4 0,2.249e-4 0,6.98e-5 0,1.541e-4 0,2.248e-4 0,8.43e-5 0,1.541e-4 0,2.385e-4 0,6.98e-5 0,1.541e-4 0,2.248e-4 0,8.43e-5 0,1.541e-4 0,2.375e-4 0,7.08e-5 0,1.551e-4 0,2.258e-4 0,6.98e-5 0,1.532e-4 0,2.239e-4 0,8.43e-5 0,1.551e-4 0,2.385e-4 0,6.98e-5 0,1.541e-4 0,2.248e-4 0,8.43e-5 0,1.541e-4 0,2.385e-4 0,6.98e-5 0,1.55e-4 0,2.248e-4 0,8.43e-5 0,1.541e-4 0,2.24e-4 0,8.43e-5 0,1.55e-4 0,2.393e-4 0,6.98e-5 0,1.541e-4 0,2.239e-4 0,8.53e-5 0,1.551e-4 0,2.385e-4 0,7.07e-5 0,1.541e-4 0,2.257e-4 0,8.35e-5 0,1.533e-4 0,2.24e-4 0,8.34e-5 0,1.55e-4 0,2.384e-4 0,6.98e-5 0,1.542e-4 0,2.24e-4 0,8.52e-5 0,1.55e-4 0,2.393e-4 0,6.98e-5 0,1.541e-4 0,2.24e-4 0,8.52e-5 0,1.55e-4 0,2.393e-4 0,6.98e-5 0,1.396e-4 0,2.249e-4 0,6.98e-5 0,1.541e-4 0,2.239e-4 0,8.43e-5 0,1.55e-4 0,2.384e-4 0,7.08e-5 0,1.542e-4 0,2.249e-4 0,8.43e-5 0,1.55e-4 0,2.384e-4 0,6.98e-5 0,1.406e-4 0,2.24e-4 0,7.16e-5 0,1.55e-4 0,2.248e-4 0,8.43e-5 0,1.541e-4 0,2.394e-4 0,6.98e-5 0,1.541e-4 0,2.239e-4 0,8.43e-5 0,1.55e-4 0,2.394e-4 0,6.98e-5 0,1.541e-4 0,2.239e-4 0,7.07e-5 0,1.55e-4 0,2.248e-4 0,8.44e-5 0,1.542e-4 0,2.394e-4 0,6.98e-5 0,1.532e-4 0,2.239e-4 0,8.35e-5 0,1.533e-4 0,2.385e-4 0,6.98e-5 0,1.541e-4 0,2.239e-4 0,6.98e-5 0,1.551e-4 0,2.249e-4 0,8.43e-5 0,1.541e-4 0,2.384e-4 0,7.07e-5 0,1.551e-4 0,2.249e-4 0,8.43e-5 0,1.541e-4 0,2.393e-4 0,6.98e-5 0,1.541e-4 0,2.24e-4 0,8.34e-5 0,1.55e-4 0,2.248e-4 0,8.43e-5 0,1.541e-4 0,2.375e-4 0,7.08e-5 0,1.551e-4 0,2.258e-4 0,8.34e-5 0,1.541e-4 0,2.375e-4 0,7.07e-5 0,1.551e-4 0,2.249e-4 0,8.43e-5 0,1.541e-4 0,2.257e-4 0,8.34e-5 0,1.533e-4 0,2.376e-4 0,6.98e-5 0,1.55e-4 0,2.248e-4 0,8.43e-5 0,1.541e-4 0,2.385e-4 0,7.07e-5 0,1.55e-4 0,2.248e-4 0,8.43e-5 0,1.541e-4 0,2.375e-4 0,7.17e-5 0,1.415e-4 0,2.258e-4 0,6.98e-5 0,1.532e-4 0,2.248e-4 0,8.35e-5 0,1.542e-4 0,2.376e-4 0,6.98e-5 0,1.55e-4 0,2.248e-4 0,8.43e-5 0,1.542e-4 0,2.385e-4 0,7.07e-5 0,1.405e-4 0,2.248e-4 0,6.98e-5 0,1.541e-4 0,2.24e-4 0,8.52e-5 0,1.55e-4 0,2.393e-4 0,6.98e-5 0,1.541e-4 0,2.249e-4 0,8.43e-5 0,1.541e-4 0,2.375e-4 0,7.07e-5 0,1.55e-4 0,2.257e-4 0,6.99e-5 0,1.533e-4 0,2.24e-4 0,8.43e-5 0,1.55e-4 0,2.384e-4 0,6.98e-5 0,1.542e-4 0,2.249e-4 0,8.43e-5 0,1.541e-4 0,2.384e-4 0,6.98e-5 0,1.551e-4 0,2.249e-4 0,6.98e-5 0,1.541e-4 0,2.239e-4 0,8.43e-5 0,1.55e-4 0,2.394e-4 0,6.98e-5 0,1.541e-4 0,2.239e-4 0,8.52e-5 0,1.55e-4 0,2.384e-4 0,7.08e-5 0,1.542e-4 0,2.258e-4 0,8.34e-5 0,1.541e-4 0,2.239e-4 0,8.35e-5 0,1.551e-4 0,2.385e-4 0,7.07e-5 0,1.541e-4 0,2.239e-4 0,8.43e-5 0,1.551e-4 0,2.394e-4 0,6.98e-5 0,1.541e-4 0,2.239e-4 0,8.52e-5 0,1.551e-4 0,2.249e-4 0,8.43e-5 0,1.541e-4 0,2.393e-4 0,6.98e-5 0,1.541e-4 0,2.24e-4 0,8.43e-5 0,1.55e-4 0,2.393e-4 0,6.98e-5 0,1.532e-4 0,2.239e-4 0,8.44e-5 0,1.551e-4 0,2.385e-4 0,6.98e-5 0,1.405e-4 0,2.239e-4 0,7.17e-5 0,1.551e-4 0,2.249e-4 0,8.43e-5 0,1.541e-4 0,2.393e-4 0,6.98e-5 0,1.542e-4 0,2.24e-4 0,8.43e-5 0,1.55e-4 0,2.393e-4 0,6.98e-5 0,1.396e-4 0,2.24e-4 0,7.07e-5 0,1.55e-4 0,2.248e-4 0,8.43e-5 0,1.541e-4 0,2.394e-4 0,6.98e-5 0,1.532e-4 0,2.239e-4 0,8.34e-5 0,1.541e-4 0,2.384e-4 0,6.99e-5 0,1.542e-4 0,2.24e-4 0,7.07e-5 0,1.55e-4 0,2.257e-4 0,8.34e-5 0,1.533e-4 0,2.376e-4 0,7.07e-5 0,1.55e-4 0,2.248e-4 0,8.43e-5 0,1.541e-4 0,2.394e-4 0,6.98e-5 0,1.541e-4 0,2.239e-4 0,6.98e-5 0,1.541e-4 0,2.249e-4 0,8.43e-5 0,1.541e-4 0,2.384e-4 0,6.98e-5 0,1.55e-4 0,2.249e-4 0,8.34e-5 0,1.541e-4 0,2.375e-4 0,7.16e-5 0,1.55e-4 0,2.248e-4 0,8.44e-5 0,1.542e-4 0,2.258e-4 0,8.34e-5 0,1.532e-4 0,2.375e-4 0,6.98e-5 0,1.551e-4 0,2.249e-4 0,8.43e-5 0,1.541e-4 0,2.384e-4 0,6.98e-5 0,1.551e-4 0,2.249e-4 0,8.43e-5 0,1.541e-4 0,2.239e-4 0,8.52e-5 0,1.55e-4 0,2.394e-4 0,6.98e-5 0,1.532e-4 0,2.248e-4 0,8.34e-5 0,1.541e-4 0,2.375e-4 0,6.99e-5 0,1.551e-4 0,2.249e-4 0,8.43e-5 0,1.541e-4 0,2.384e-4 0,7.08e-5 0,1.406e-4 0,2.249e-4 0,6.98e-5 0,1.541e-4 0,2.239e-4 0,8.52e-5 0,1.551e-4 0,2.394e-4 0,6.98e-5 0,1.541e-4 0,2.248e-4 0,8.43e-5 0,1.541e-4 0,2.376e-4 0,7.07e-5 0,1.414e-4 0,2.257e-4 0,6.98e-5 0,1.541e-4 0,2.239e-4 0,8.44e-5 0,1.551e-4 0,2.385e-4 0,7.07e-5 0,1.541e-4 0,2.248e-4 0,8.44e-5 0,1.542e-4 0,2.385e-4 0,6.98e-5 0,1.541e-4 0,2.248e-4 0,6.98e-5 0,1.542e-4 0,2.24e-4 0,8.43e-5 0,1.55e-4 0,2.393e-4 0,6.98e-5 0,1.542e-4 0,2.24e-4 0,8.52e-5 0,1.55e-4 0,2.393e-4 0,6.98e-5 0,1.532e-4 0,2.249e-4 0,6.98e-5 0,1.541e-4 0,2.239e-4 0,8.34e-5 0,1.541e-4 0,2.384e-4 0,7.08e-5 0,1.542e-4 0,2.24e-4 0,8.43e-5 0,1.55e-4 0,2.393e-4 0,6.98e-5 0,1.542e-4 0,2.24e-4 0,8.52e-5 0,1.55e-4 0,2.248e-4 0,8.43e-5 0,1.542e-4 0,2.394e-4 0,6.98e-5 0,1.541e-4 0,2.239e-4 0,8.43e-5 0,1.55e-4 0,2.394e-4 0,6.98e-5 0,1.532e-4 0,2.239e-4 0,8.43e-5 0,1.55e-4 0,2.249e-4 0,8.34e-5 0,1.541e-4 0,2.375e-4 0,7.16e-5 0,1.55e-4 0,2.257e-4 0,8.35e-5 0,1.533e-4 0,2.385e-4 0,6.98e-5 0,1.541e-4 0,2.239e-4 0,8.43e-5 0,1.551e-4 0,2.394e-4 0,6.98e-5 0,1.396e-4 0,2.239e-4 0,7.07e-5 0,1.551e-4 0,2.249e-4 0,8.43e-5 0,1.541e-4 0,2.384e-4 0,7.07e-5 0,1.55e-4 0,2.249e-4 0,8.34e-5 0,1.541e-4 0,2.384e-4 0,7.07e-5 0,1.405e-4 0,2.239e-4 0,7.08e-5 0,1.551e-4 0,2.258e-4 0,8.34e-5 0,1.532e-4 0,2.375e-4 0,7.08e-5 0,1.551e-4 0,2.249e-4 0,8.43e-5 0,1.541e-4 0,2.393e-4 0,6.98e-5 0,1.542e-4 0,2.24e-4 0,6.98e-5 0,1.541e-4 0,2.248e-4 0,8.43e-5 0,1.541e-4 0,2.385e-4 0,6.98e-5 0,1.55e-4 0,2.248e-4 0,8.34e-5 0,1.541e-4 0,2.375e-4 0,7.17e-5 0,1.551e-4 0,2.249e-4 0,7.07e-5 0,1.541e-4 0,2.257e-4 0,8.35e-5 0,1.533e-4 0,2.376e-4 0,6.98e-5 0,1.55e-4 0,2.248e-4 0,8.43e-5 0,1.542e-4 0,2.385e-4 0,6.98e-5 0,1.55e-4 0,2.248e-4 0,8.43e-5 0,1.542e-4 0,2.24e-4 0,8.52e-5 0,1.55e-4 0,2.393e-4 0,6.98e-5 0,1.541e-4 0,2.249e-4 0,8.34e-5 0,1.541e-4 0,2.375e-4 0,7.07e-5 0,1.55e-4 0,2.248e-4 0,8.44e-5 0,1.542e-4 0,2.249e-4 0,8.34e-5 0,1.55e-4 0,2.384e-4 0,6.98e-5 0,1.542e-4 0,2.24e-4 0,8.52e-5 0,1.55e-4 0,2.393e-4 0,6.98e-5 0,1.542e-4 0,2.249e-4 0,8.43e-5 0,1.541e-4 0,2.384e-4 0,6.98e-5 0,1.405e-4 0,2.249e-4 0,6.98e-5 0,1.541e-4 0,2.239e-4 0,8.52e-5 0,1.55e-4 0,2.385e-4 0,7.07e-5 0,1.541e-4 0,2.239e-4 0,8.52e-5 0,1.55e-4 0,2.393e-4 0,6.99e-5 0,1.397e-4 0,2.249e-4 0,6.98e-5 0,1.541e-4 0,2.239e-4 0,8.43e-5 0,1.551e-4 0,2.394e-4 0,6.98e-5 0,1.541e-4 0,2.239e-4 0,8.52e-5 0,1.551e-4 0,2.394e-4 0,6.98e-5 0,1.532e-4 0,2.248e-4 0,6.98e-5 0,1.541e-4 0,2.24e-4 0,8.34e-5 0,1.541e-4 0,2.384e-4 0,7.07e-5 0,1.541e-4 0,2.248e-4 0,8.35e-5 0,1.542e-4 0,2.385e-4 0,6.98e-5 0,1.541e-4 0,2.239e-4 0,7.08e-5 0,1.551e-4 0,2.249e-4 0,8.43e-5 0,1.541e-4 0,2.393e-4 0,6.98e-5 0,1.542e-4 0,2.24e-4 0,8.43e-5 0,1.541e-4 0,2.393e-4 0,6.98e-5 0,1.542e-4 0,2.24e-4 0,8.34e-5 0,1.55e-4 0,2.248e-4 0,8.43e-5 0,1.541e-4 0,2.375e-4 0,7.17e-5 0,1.551e-4 0,2.258e-4 0,8.34e-5 0,1.532e-4 0,2.384e-4 0,6.99e-5 0,1.542e-4 0,2.24e-4 0,8.43e-5 0,1.55e-4 0,2.248e-4 0,8.43e-5 0,1.542e-4 0,2.385e-4 0,6.98e-5 0,1.55e-4 0,2.248e-4 0,8.43e-5 0,1.542e-4 0,2.385e-4 0,7.07e-5 0,1.55e-4 0,2.248e-4 0,8.34e-5 0,1.541e-4 0,2.385e-4 0,7.07e-5 0,1.405e-4 0,2.239e-4 0,7.07e-5 0,1.55e-4 0,2.258e-4 0,8.34e-5 0,1.532e-4 0,2.375e-4 0,7.07e-5 0,1.55e-4 0,2.248e-4 0,8.44e-5 0,1.542e-4 0,2.394e-4 0,6.98e-5 0,1.396e-4 0,2.239e-4 0,6.98e-5 0,1.542e-4 0,2.249e-4 0,8.43e-5 0,1.541e-4 0,2.384e-4 0,6.98e-5 0,1.551e-4 0,2.249e-4 0,8.34e-5 0,1.541e-4 0,2.375e-4 0,7.16e-5 0,1.55e-4 0,2.249e-4 0,7.07e-5 0,1.541e-4 0,2.257e-4 0,8.34e-5 0,1.541e-4 0,2.375e-4 0,6.99e-5 0,1.542e-4 0,2.249e-4 0,8.43e-5 0,1.541e-4 0,2.384e-4 0,6.98e-5 0,1.551e-4 0,2.249e-4 0,6.98e-5 0,1.541e-4 0,2.239e-4 0,8.52e-5 0,1.551e-4 0,2.394e-4 0,6.98e-5 0,1.541e-4 0,2.248e-4 0,8.43e-5 0,1.541e-4 0,2.376e-4 0,7.07e-5 0,1.55e-4 0,2.257e-4 0,8.34e-5 0,1.532e-4 0,2.24e-4 0,8.34e-5 0,1.55e-4 0,2.384e-4 0,6.98e-5 0,1.541e-4 0,2.239e-4 0,8.53e-5 0,1.551e-4 0,2.394e-4 0,6.98e-5 0,1.541e-4 0,2.248e-4 0,8.44e-5 0,1.542e-4 0,2.24e-4 0,8.43e-5 0,1.55e-4 0,2.393e-4 0,6.98e-5 0,1.542e-4 0,2.24e-4 0,8.52e-5 0,1.55e-4 0,2.384e-4 0,7.07e-5 0,1.541e-4 0,2.249e-4 0,8.43e-5 0,1.541e-4 0,2.384e-4 0,6.98e-5 0,1.405e-4 0,2.248e-4 0,6.99e-5 0,1.542e-4 0,2.24e-4 0,8.43e-5 0,1.55e-4 0,2.393e-4 0,6.99e-5 0,1.542e-4 0,2.24e-4 0,8.52e-5 0,1.55e-4 0,2.393e-4 0,6.98e-5 0,1.397e-4 0,2.24e-4 0,7.07e-5 0,1.55e-4 0,2.248e-4 0,8.43e-5 0,1.541e-4 0,2.385e-4 0,7.07e-5 0,1.541e-4 0,2.248e-4 0,8.34e-5 0,1.55e-4 0,2.385e-4 0,6.98e-5 0,1.541e-4 0,2.239e-4 0,7.16e-5 0,1.55e-4 0,2.248e-4 0,8.44e-5 0,1.542e-4 0,2.394e-4 0,6.98e-5 0,1.541e-4 0,2.239e-4 0,8.43e-5 0,1.542e-4 0,2.394e-4 0,6.98e-5 0,1.541e-4 0,2.239e-4 0,6.98e-5 0,1.551e-4 0,2.249e-4 0,8.43e-5 0,1.541e-4 0,2.375e-4 0,7.16e-5 0,1.55e-4 0,2.258e-4 0,8.34e-5 0,1.532e-4 0,2.384e-4 0,6.98e-5 0,1.541e-4 0,2.239e-4 0,8.44e-5 0,1.551e-4 0,2.249e-4 0,8.43e-5 0,1.541e-4 0,2.384e-4 0,6.98e-5 0,1.551e-4 0,2.249e-4 0,8.43e-5 0,1.541e-4 0,2.384e-4 0,7.07e-5 0,1.551e-4 0,2.249e-4 0,8.34e-5 0,1.541e-4 0,2.248e-4 0,8.43e-5 0,1.541e-4 0,2.385e-4 0,6.98e-5 0,1.541e-4 0,2.248e-4 0,8.34e-5 0,1.541e-4 0,2.376e-4 0,6.98e-5 0,1.55e-4 0,2.248e-4 0,8.43e-5 0,1.541e-4 0,2.384e-4 0,7.08e-5 0,1.406e-4 0,2.249e-4 0,6.98e-5 0,1.541e-4 0,2.248e-4 0,8.44e-5 0,1.542e-4 0,2.385e-4 0,6.98e-5 0,1.55e-4 0,2.248e-4 0,8.43e-5 0,1.542e-4 0,2.376e-4 0,7.16e-5 0,1.414e-4 0,2.257e-4 0,6.98e-5 0,1.532e-4 0,2.24e-4 0,8.43e-5 0,1.55e-4 0,2.384e-4 0,6.98e-5 0,1.541e-4 0,2.248e-4 0,8.44e-5 0,1.542e-4 0,2.385e-4 0,6.98e-5 0,1.55e-4 0,2.248e-4 0,6.99e-5 0,1.542e-4 0,2.24e-4 0,8.52e-5 0,1.55e-4 0,2.393e-4 0,6.98e-5 0,1.542e-4 0,2.249e-4 0,8.43e-5 0,1.541e-4 0,2.375e-4 0,7.07e-5 0,1.551e-4 0,2.258e-4 0,6.98e-5 0,1.532e-4 0,2.239e-4 0,8.34e-5 0,1.55e-4 0,2.385e-4 0,6.98e-5 0,1.541e-4 0,2.239e-4 0,8.52e-5 0,1.55e-4 0,2.393e-4 0,6.99e-5 0,1.542e-4 0,2.249e-4 0,8.43e-5 0,1.541e-4 0,2.239e-4 0,8.43e-5 0,1.551e-4 0,2.394e-4 0,6.98e-5 0,1.541e-4 0,2.239e-4 0,8.43e-5 0,1.551e-4 0,2.385e-4 0,7.07e-5 0,1.541e-4 0,2.248e-4 0,8.43e-5 0,1.55e-4 0,2.249e-4 0,8.34e-5 0,1.541e-4 0,2.384e-4 0,7.07e-5 0,1.541e-4 0,2.239e-4 0,8.44e-5 0,1.551e-4 0,2.394e-4 0,6.98e-5 0,1.541e-4 0,2.239e-4 0,8.53e-5 0,1.551e-4 0,2.394e-4 0,6.98e-5 0,1.396e-4 0,2.239e-4 0,7.07e-5 0,1.551e-4 0,2.249e-4 0,8.43e-5 0,1.541e-4 0,2.393e-4 0,6.98e-5 0,1.532e-4 0,2.24e-4 0,8.34e-5 0,1.55e-4 0,2.384e-4 0,6.98e-5 0,1.405e-4 0,2.24e-4 0,7.16e-5 0,1.55e-4 0,2.248e-4 0,8.43e-5 0,1.541e-4 0,2.393e-4 0,6.99e-5 0,1.542e-4 0,2.24e-4 0,8.43e-5 0,1.541e-4 0,2.393e-4 0,6.99e-5 0,1.542e-4 0,2.24e-4 0,6.98e-5 0,1.55e-4 0,2.248e-4 0,8.43e-5 0,1.542e-4 0,2.385e-4 0,7.07e-5 0,1.541e-4 0,2.248e-4 0,8.34e-5 0,1.541e-4 0,2.385e-4 0,6.98e-5 0,1.541e-4 0,2.239e-4 0,7.07e-5 0,1.541e-4 0,2.258e-4 0,8.34e-5 0,1.532e-4 0,2.375e-4 0,6.98e-5 0,1.55e-4 0,2.248e-4 0,8.44e-5 0,1.542e-4 0,2.385e-4 0,7.07e-5 0,1.55e-4 0,2.248e-4 0,8.43e-5 0,1.542e-4 0,2.249e-4 0,8.43e-5 0,1.541e-4 0,2.384e-4 0,6.98e-5 0,1.551e-4 0,2.249e-4 0,8.34e-5 0,1.541e-4 0,2.375e-4 0,6.98e-5 0,1.55e-4 0,2.249e-4 0,8.43e-5 0,1.541e-4 0,2.239e-4 0,8.52e-5 0,1.55e-4 0,2.393e-4 0,6.99e-5 0,1.542e-4 0,2.249e-4 0,8.43e-5 0,1.541e-4 0,2.384e-4 0,6.98e-5 0,1.551e-4 0,2.249e-4 0,8.43e-5 0,1.541e-4 0,2.375e-4 0,7.16e-5 0,1.415e-4 0,2.258e-4 0,6.98e-5 0,1.532e-4 0,2.239e-4 0,8.43e-5 0,1.551e-4 0,2.385e-4 0,6.98e-5 0,1.541e-4 0,2.248e-4 0,8.43e-5 0,1.541e-4 0,2.385e-4 0,6.98e-5 0,1.405e-4 0,2.248e-4 0,6.98e-5 0,1.541e-4 0,2.239e-4 0,8.53e-5 0,1.551e-4 0,2.394e-4 0,6.98e-5 0,1.541e-4 0,2.239e-4 0,8.53e-5 0,1.551e-4 0,2.385e-4 0,7.07e-5 0,1.541e-4 0,2.257e-4 0,6.98e-5 0,1.542e-4 0,2.24e-4 0,8.34e-5 0,1.55e-4 0,2.384e-4 0,7.07e-5 0,1.541e-4 0,2.24e-4 0,8.52e-5 0,1.55e-4 0,2.393e-4 0,6.98e-5 0,1.541e-4 0,2.249e-4 z M 5.091427,8.7795266 C 5.1650743,7.1765235 6.4764304,5.9801287 7.9764472,6.0412235 L 8.0621154,3.9376973 C 5.3553163,3.8274552 3.1128988,5.9726235 2.9883793,8.6829157 Z m 2.9299178,-2.737433 c 0.372296,-7.298e-4 0.7423319,0.064968 1.0937282,0.1945969 L 9.8436739,4.2615331 C 9.2584241,4.045631 8.6403178,3.9356098 8.017216,3.9368308 Z M 10.42024,5.7210967 C 11.205505,4.1557889 12.779964,3.20164 14.467124,3.2348612 l 0.0414,-2.1048418 C 11.989222,1.0803913 9.6780594,2.5054882 8.5384925,4.7771269 Z m 4.112428,-2.4869793 c 2.290249,-0.097811 4.270744,1.7274272 4.37727,4.1413676 L 21.0131,7.2827451 C 20.857727,3.758585 17.943195,0.98127534 14.44284,1.1307632 Z m 4.376147,4.0958934 c 4.21e-4,0.3924361 -0.05979,0.7821496 -0.177824,1.1545853 l 2.006739,0.6364076 c 0.183721,-0.5793411 0.276914,-1.1843519 0.276352,-1.7927889 z m 0.672142,2.5142084 c 1.274668,0.1877898 2.267933,1.2948778 2.314389,2.6658288 l 2.104143,-0.0713 C 23.919769,10.089133 22.205943,8.1028556 19.887764,7.7614088 Z m 2.314951,2.5821798 c -0.07312,1.603932 -1.385266,2.800986 -2.88604,2.739372 l -0.08646,2.103582 c 2.708215,0.111158 4.951867,-2.035372 5.075516,-4.747095 z m -8.843242,9.405207 V 13.41054 H 10.9474 v 8.421066 z m -0.298949,0.734878 2.736848,-2.807021 -1.507371,-1.469757 -2.736847,2.807021 z m 0,-1.469757 -2.736845,-2.807021 -1.5073856,1.469757 2.7368606,2.807021 z"
     fill="#000000"
     id="path1"
     style="stroke-width:1.40351;fill:#fefefe;fill-opacity:1" />
</svg>
