<?xml version="1.0" encoding="UTF-8" standalone="no"?>
<!-- Uploaded to: SVG Repo, www.svgrepo.com, Generator: SVG Repo Mixer Tools -->

<svg
   fill="#000000"
   version="1.1"
   id="icon"
   width="800px"
   height="800px"
   viewBox="0 0 32 32"
   xml:space="preserve"
   sodipodi:docname="recording.svg"
   inkscape:version="1.3 (0e150ed6c4, 2023-07-21)"
   xmlns:inkscape="http://www.inkscape.org/namespaces/inkscape"
   xmlns:sodipodi="http://sodipodi.sourceforge.net/DTD/sodipodi-0.dtd"
   xmlns="http://www.w3.org/2000/svg"
   xmlns:svg="http://www.w3.org/2000/svg"><defs
   id="defs1" /><sodipodi:namedview
   id="namedview1"
   pagecolor="#505050"
   bordercolor="#eeeeee"
   borderopacity="1"
   inkscape:showpageshadow="0"
   inkscape:pageopacity="0"
   inkscape:pagecheckerboard="0"
   inkscape:deskcolor="#505050"
   inkscape:zoom="1.00625"
   inkscape:cx="319.00621"
   inkscape:cy="394.03727"
   inkscape:window-width="1920"
   inkscape:window-height="1011"
   inkscape:window-x="0"
   inkscape:window-y="0"
   inkscape:window-maximized="1"
   inkscape:current-layer="icon" />&#10;<style
   type="text/css"
   id="style1">&#10;	.st0{fill:none;}&#10;</style>&#10;&#10;<circle
   cx="15.999999"
   cy="15.999999"
   r="10.056734"
   id="circle1"
   style="fill:#d40000;fill-opacity:1;stroke-width:2.51418" /><path
   d="M 16,2 C 8.3,2 2,8.3 2,16 2,23.7 8.3,30 16,30 23.7,30 30,23.7 30,16 30,8.3 23.7,2 16,2 Z m 0,25.200001 C 8.7976946,27.06668 4.8719266,21.724186 4.8000001,16 4.7268545,10.178799 9.7046534,4.7462779 16,4.8000001 20.991068,4.842592 27.022196,8.3544389 27.200001,16.07 27.361621,23.083216 21.762318,27.306666 16,27.200001 Z"
   id="path1"
   transform="matrix(1.1428571,0,0,1.1428571,-2.2857142,-2.2857142)"
   inkscape:label="path1"
   sodipodi:nodetypes="ssssssssss"
   style="fill:#d40000;fill-opacity:1" />&#10;</svg>
