<?xml version="1.0" encoding="UTF-8" standalone="no"?>
<svg
   viewBox="-1 0 800 800"
   version="1.1"
   fill="#e2e2e2"
   stroke="#e2e2e2"
   id="svg1"
   sodipodi:docname="share.svg"
   inkscape:version="1.3 (0e150ed6c4, 2023-07-21)"
   width="800"
   height="800"
   xmlns:inkscape="http://www.inkscape.org/namespaces/inkscape"
   xmlns:sodipodi="http://sodipodi.sourceforge.net/DTD/sodipodi-0.dtd"
   xmlns="http://www.w3.org/2000/svg"
   xmlns:svg="http://www.w3.org/2000/svg"
   xmlns:sketch="http://www.bohemiancoding.com/sketch/ns">
  <defs
     id="defs2" />
  <sodipodi:namedview
     id="namedview1"
     pagecolor="#505050"
     bordercolor="#eeeeee"
     borderopacity="1"
     inkscape:showpageshadow="0"
     inkscape:pageopacity="0"
     inkscape:pagecheckerboard="0"
     inkscape:deskcolor="#505050"
     inkscape:zoom="0.68415981"
     inkscape:cx="269.67384"
     inkscape:cy="474.30439"
     inkscape:window-width="1920"
     inkscape:window-height="1011"
     inkscape:window-x="0"
     inkscape:window-y="0"
     inkscape:window-maximized="1"
     inkscape:current-layer="svg1" />
  <path
     d="m 521.2222,624.07406 c -33.75369,0 -61.11111,-27.3574 -61.11111,-61.11111 0,-33.75371 27.35742,-61.11112 61.11111,-61.11112 33.75371,0 61.11113,27.35741 61.11113,61.11112 0,33.75371 -27.35742,61.11111 -61.11113,61.11111 z M 236.03701,461.11109 c -33.75371,0 -61.11111,-27.35741 -61.11111,-61.11111 0,-33.73333 27.3574,-61.11111 61.11111,-61.11111 33.75371,0 61.11111,27.37778 61.11111,61.11111 0,33.7537 -27.3574,61.11111 -61.11111,61.11111 z M 521.2222,175.9259 c 33.75371,0 61.11113,27.3574 61.11113,61.11111 0,33.75371 -27.35742,61.11111 -61.11113,61.11111 -33.75369,0 -61.11111,-27.3574 -61.11111,-61.11111 0,-33.75371 27.35742,-61.11111 61.11111,-61.11111 z m 0,285.18519 c -36.05554,0 -67.52778,18.8426 -85.63704,47.09631 L 326.50183,445.87406 c 7.04815,-13.85186 11.38704,-29.29259 11.38704,-45.87408 0,-10.24629 -1.97593,-19.9426 -4.78704,-29.27222 l 113.48333,-64.83889 c 18.59815,20.16667 45.0389,33 74.63704,33 56.26296,0 101.85186,-45.58889 101.85186,-101.85186 0,-56.26297 -45.5889,-101.85186 -101.85186,-101.85186 -56.26296,0 -101.85185,45.58889 -101.85185,101.85186 0,10.24629 1.97592,19.9426 4.78703,29.2926 l -113.48333,64.81852 c -18.59815,-20.1463 -45.0389,-33.00001 -74.63704,-33.00001 -56.26297,0 -101.85186,45.58889 -101.85186,101.85186 0,56.26296 45.58889,101.85185 101.85186,101.85185 23.22222,0 44.38703,-8.06667 61.51853,-21.14443 l -0.40742,0.77407 123.34261,70.48147 c -0.40743,3.66668 -1.12038,7.21112 -1.12038,11.00001 0,56.26296 45.58889,101.85185 101.85185,101.85185 56.26296,0 101.85186,-45.58889 101.85186,-101.85185 0,-56.26296 -45.5889,-101.85186 -101.85186,-101.85186 z"
     id="share"
     sketch:type="MSShapeGroup"
     style="stroke-width:20.3703" />
</svg>
