<?xml version="1.0" encoding="UTF-8" standalone="no"?>
<!-- Uploaded to: SVG Repo, www.svgrepo.com, Generator: SVG Repo Mixer Tools -->

<svg
   width="800px"
   height="800px"
   viewBox="0 0 24 24"
   fill="none"
   version="1.1"
   id="svg1"
   sodipodi:docname="cloud-upload.svg"
   inkscape:version="1.3 (0e150ed6c4, 2023-07-21)"
   xmlns:inkscape="http://www.inkscape.org/namespaces/inkscape"
   xmlns:sodipodi="http://sodipodi.sourceforge.net/DTD/sodipodi-0.dtd"
   xmlns="http://www.w3.org/2000/svg"
   xmlns:svg="http://www.w3.org/2000/svg">
  <defs
     id="defs1" />
  <sodipodi:namedview
     id="namedview1"
     pagecolor="#505050"
     bordercolor="#eeeeee"
     borderopacity="1"
     inkscape:showpageshadow="0"
     inkscape:pageopacity="0"
     inkscape:pagecheckerboard="0"
     inkscape:deskcolor="#505050"
     inkscape:zoom="1.00625"
     inkscape:cx="400"
     inkscape:cy="400"
     inkscape:window-width="1920"
     inkscape:window-height="1011"
     inkscape:window-x="0"
     inkscape:window-y="0"
     inkscape:window-maximized="1"
     inkscape:current-layer="svg1" />
  <path
     d="M 5.0765755,17.269345 C 5.6574462,17.245486 6.1089834,16.75524 6.0851238,16.174327 6.0612641,15.593414 5.5710321,15.141905 4.9901754,15.165765 Z M 1.0526281,12.474394 4.8687615e-4,12.442254 c -8.141e-4,0.02667 -6.035e-4,0.05333 6.0350385e-4,0.08 z m 2.9872728,-3.6252797 0.2130388,1.030892 c 0.4888987,-0.101053 0.8395937,-0.53165 0.8395937,-1.030892 z m 0,-0.117895 -1.0515237,-0.04831 c -7.439e-4,0.01608 -0.00111,0.0322 -0.00111,0.04831 z m 3.979372,-3.741758 -0.04284,1.0517624 c 0.01495,6.035e-4 0.02992,8.982e-4 0.0449,8.701e-4 z m 1.460099,0.2596494 -0.364309,0.9875798 c 0.50292,0.1855159 1.0648851,-0.036491 1.3051661,-0.5155934 z m 5.0083701,-3.0666694 -0.02063,1.052422 c 0.0219,4.351e-4 0.04379,1.825e-4 0.06554,-7.438e-4 z m 5.473689,5.146671 1.052632,-8.98e-4 c 0,-0.01516 -2.8e-4,-0.03033 -9.82e-4,-0.04547 z m -0.227088,1.473686 -1.003369,-0.318204 c -0.09333,0.29419 -0.05277,0.614513 0.110736,0.876253 0.16365,0.261615 0.433966,0.438316 0.739229,0.483369 z m 3.213055,3.6715957 1.05151,0.04786 c 0.0013,-0.02779 0.0014,-0.05572 5.61e-4,-0.08351 z m -3.937547,2.691371 c -0.580913,-0.02386 -1.071019,0.427649 -1.094878,1.008562 -0.024,0.580913 0.427649,1.071159 1.008422,1.095018 z m -5.957198,-1.75523 c 0,-0.581334 -0.471299,-1.052632 -1.052633,-1.052632 -0.581334,0 -1.052632,0.471298 -1.052632,1.052632 z m -2.105265,8.42106 c 0,0.581334 0.471298,1.052633 1.052632,1.052633 0.581334,0 1.052633,-0.471299 1.052633,-1.052633 z m 1.806317,-7.686182 c 0.405895,-0.416281 0.397334,-1.082668 -0.01881,-1.488563 -0.416281,-0.405895 -1.082668,-0.397474 -1.488563,0.01881 z m -4.2442281,1.337264 c -0.405839,0.416281 -0.397404,1.082668 0.01885,1.488563 0.416253,0.405895 1.082682,0.397334 1.4885351,-0.01881 z m 4.2442281,-2.80702 c -0.405895,-0.416281 -1.072282,-0.424702 -1.488563,-0.01881 -0.416281,0.405895 -0.424702,1.072282 -0.01881,1.488563 z m 1.229475,4.276776 c 0.405895,0.416141 1.072282,0.424702 1.488563,0.01881 0.41614,-0.405895 0.424702,-1.072282 0.01881,-1.488563 z M 4.9901754,15.165765 c -1.5007451,0.06161 -2.8129007,-1.13544 -2.8859955,-2.739371 l -2.10308952,0.09586 c 0.1236071,2.711721 2.36734242,4.858249 5.07548512,4.747091 z M 2.1047694,12.506534 C 2.1446572,11.203095 3.0510299,10.128287 4.2529397,9.8800063 L 3.8268621,7.8182643 C 1.6374006,8.2707413 0.06911848,10.199164 4.8687615e-4,12.442254 Z m 2.987764,-3.6574197 c 0,-7.1e-5 0,-1.55e-4 0,-2.25e-4 0,-8.4e-5 0,-1.54e-4 0,-2.39e-4 0,-7e-5 0,-1.54e-4 0,-2.24e-4 0,-8.4e-5 0,-1.55e-4 0,-2.39e-4 0,-7e-5 0,-1.54e-4 0,-2.24e-4 0,-7.1e-5 0,-1.55e-4 0,-2.25e-4 0,-8.4e-5 0,-1.54e-4 0,-2.39e-4 0,-7e-5 0,-1.54e-4 0,-2.24e-4 0,-8.4e-5 0,-1.54e-4 0,-2.39e-4 0,-7e-5 0,-1.54e-4 0,-2.24e-4 0,-8.4e-5 0,-1.55e-4 0,-2.25e-4 0,-8.4e-5 0,-1.54e-4 0,-2.38e-4 0,-7.1e-5 0,-1.55e-4 0,-2.25e-4 0,-8.4e-5 0,-1.54e-4 0,-2.39e-4 0,-7e-5 0,-1.54e-4 0,-2.24e-4 0,-8.4e-5 0,-1.54e-4 0,-2.25e-4 0,-8.4e-5 0,-1.54e-4 0,-2.38e-4 0,-7e-5 0,-1.55e-4 0,-2.25e-4 0,-8.4e-5 0,-1.54e-4 0,-2.38e-4 0,-7.1e-5 0,-1.55e-4 0,-2.25e-4 0,-8.4e-5 0,-1.54e-4 0,-2.39e-4 0,-7e-5 0,-1.4e-4 0,-2.24e-4 0,-7e-5 0,-1.55e-4 0,-2.25e-4 0,-8.4e-5 0,-1.54e-4 0,-2.38e-4 0,-7e-5 0,-1.55e-4 0,-2.25e-4 0,-8.4e-5 0,-1.54e-4 0,-2.38e-4 0,-7.1e-5 0,-1.41e-4 0,-2.25e-4 0,-7e-5 0,-1.54e-4 0,-2.25e-4 0,-8.4e-5 0,-1.54e-4 0,-2.38e-4 0,-7e-5 0,-1.55e-4 0,-2.25e-4 0,-8.4e-5 0,-1.54e-4 0,-2.38e-4 0,-7.1e-5 0,-1.55e-4 0,-2.25e-4 0,-7e-5 0,-1.54e-4 0,-2.24e-4 0,-8.5e-5 0,-1.55e-4 0,-2.39e-4 0,-7e-5 0,-1.54e-4 0,-2.25e-4 0,-8.4e-5 0,-1.54e-4 0,-2.38e-4 0,-7e-5 0,-1.55e-4 0,-2.25e-4 0,-7e-5 0,-1.54e-4 0,-2.24e-4 0,-8.5e-5 0,-1.55e-4 0,-2.39e-4 0,-7e-5 0,-1.54e-4 0,-2.24e-4 0,-8.5e-5 0,-1.55e-4 0,-2.39e-4 0,-7e-5 0,-1.54e-4 0,-2.25e-4 0,-8.4e-5 0,-1.54e-4 0,-2.24e-4 0,-8.4e-5 0,-1.55e-4 0,-2.39e-4 0,-7e-5 0,-1.54e-4 0,-2.24e-4 0,-8.5e-5 0,-1.55e-4 0,-2.39e-4 0,-7e-5 0,-1.54e-4 0,-2.25e-4 0,-8.4e-5 0,-1.54e-4 0,-2.24e-4 0,-8.4e-5 0,-1.54e-4 0,-2.39e-4 0,-7e-5 0,-1.54e-4 0,-2.24e-4 0,-8.4e-5 0,-1.55e-4 0,-2.39e-4 0,-7e-5 0,-1.54e-4 0,-2.24e-4 0,-8.5e-5 0,-1.55e-4 0,-2.39e-4 0,-7e-5 0,-1.4e-4 0,-2.25e-4 0,-7e-5 0,-1.54e-4 0,-2.24e-4 0,-8.4e-5 0,-1.55e-4 0,-2.39e-4 0,-7e-5 0,-1.54e-4 0,-2.24e-4 0,-8.4e-5 0,-1.55e-4 0,-2.39e-4 0,-7e-5 0,-1.4e-4 0,-2.24e-4 0,-7.1e-5 0,-1.55e-4 0,-2.25e-4 0,-8.4e-5 0,-1.54e-4 0,-2.39e-4 0,-7e-5 0,-1.54e-4 0,-2.24e-4 0,-8.4e-5 0,-1.55e-4 0,-2.39e-4 0,-7e-5 0,-1.54e-4 0,-2.24e-4 0,-7e-5 0,-1.55e-4 0,-2.25e-4 0,-8.4e-5 0,-1.54e-4 0,-2.38e-4 0,-7.1e-5 0,-1.55e-4 0,-2.25e-4 0,-8.4e-5 0,-1.54e-4 0,-2.39e-4 0,-7e-5 0,-1.54e-4 0,-2.24e-4 0,-7e-5 0,-1.55e-4 0,-2.25e-4 0,-8.4e-5 0,-1.54e-4 0,-2.38e-4 0,-7.1e-5 0,-1.55e-4 0,-2.25e-4 0,-8.4e-5 0,-1.54e-4 0,-2.39e-4 0,-7e-5 0,-1.54e-4 0,-2.24e-4 0,-8.4e-5 0,-1.54e-4 0,-2.25e-4 0,-8.4e-5 0,-1.54e-4 0,-2.38e-4 0,-7e-5 0,-1.55e-4 0,-2.25e-4 0,-8.4e-5 0,-1.54e-4 0,-2.38e-4 0,-7.1e-5 0,-1.55e-4 0,-2.25e-4 0,-8.4e-5 0,-1.54e-4 0,-2.25e-4 0,-8.4e-5 0,-1.54e-4 0,-2.38e-4 0,-7e-5 0,-1.55e-4 0,-2.25e-4 0,-8.4e-5 0,-1.54e-4 0,-2.38e-4 0,-7e-5 0,-1.55e-4 0,-2.25e-4 0,-8.4e-5 0,-1.54e-4 0,-2.38e-4 0,-7.1e-5 0,-1.41e-4 0,-2.25e-4 0,-7e-5 0,-1.54e-4 0,-2.25e-4 0,-8.4e-5 0,-1.54e-4 0,-2.38e-4 0,-7e-5 0,-1.55e-4 0,-2.25e-4 0,-8.4e-5 0,-1.54e-4 0,-2.38e-4 0,-7e-5 0,-1.41e-4 0,-2.25e-4 0,-7e-5 0,-1.54e-4 0,-2.24e-4 0,-8.5e-5 0,-1.55e-4 0,-2.39e-4 0,-7e-5 0,-1.54e-4 0,-2.25e-4 0,-8.4e-5 0,-1.54e-4 0,-2.38e-4 0,-7e-5 0,-1.55e-4 0,-2.25e-4 0,-7e-5 0,-1.54e-4 0,-2.24e-4 0,-8.5e-5 0,-1.55e-4 0,-2.39e-4 0,-7e-5 0,-1.54e-4 0,-2.24e-4 0,-8.5e-5 0,-1.55e-4 0,-2.39e-4 0,-7e-5 0,-1.54e-4 0,-2.25e-4 0,-7e-5 0,-1.54e-4 0,-2.24e-4 0,-8.4e-5 0,-1.55e-4 0,-2.39e-4 0,-7e-5 0,-1.54e-4 0,-2.24e-4 0,-8.5e-5 0,-1.55e-4 0,-2.39e-4 0,-7e-5 0,-1.54e-4 0,-2.25e-4 0,-8.4e-5 0,-1.54e-4 0,-2.24e-4 0,-8.4e-5 0,-1.54e-4 0,-2.39e-4 0,-7e-5 0,-1.54e-4 0,-2.24e-4 0,-8.4e-5 0,-1.55e-4 0,-2.39e-4 0,-7e-5 0,-1.54e-4 0,-2.24e-4 0,-8.5e-5 0,-1.55e-4 0,-2.25e-4 0,-8.4e-5 0,-1.54e-4 0,-2.39e-4 0,-7e-5 0,-1.54e-4 0,-2.24e-4 0,-8.4e-5 0,-1.54e-4 0,-2.39e-4 0,-7e-5 0,-1.54e-4 0,-2.24e-4 0,-8.4e-5 0,-1.55e-4 0,-2.39e-4 0,-7e-5 0,-1.4e-4 0,-2.24e-4 0,-7.1e-5 0,-1.55e-4 0,-2.25e-4 0,-8.4e-5 0,-1.54e-4 0,-2.39e-4 0,-7e-5 0,-1.54e-4 0,-2.24e-4 0,-8.4e-5 0,-1.55e-4 0,-2.39e-4 0,-7e-5 0,-1.4e-4 0,-2.24e-4 0,-7e-5 0,-1.55e-4 0,-2.25e-4 0,-8.4e-5 0,-1.54e-4 0,-2.38e-4 0,-7.1e-5 0,-1.55e-4 0,-2.25e-4 0,-8.4e-5 0,-1.54e-4 0,-2.39e-4 0,-7e-5 0,-1.54e-4 0,-2.24e-4 0,-7e-5 0,-1.55e-4 0,-2.25e-4 0,-8.4e-5 0,-1.54e-4 0,-2.38e-4 0,-7.1e-5 0,-1.55e-4 0,-2.25e-4 0,-8.4e-5 0,-1.54e-4 0,-2.38e-4 0,-7.1e-5 0,-1.55e-4 0,-2.25e-4 0,-7e-5 0,-1.54e-4 0,-2.25e-4 0,-8.4e-5 0,-1.54e-4 0,-2.38e-4 0,-7e-5 0,-1.55e-4 0,-2.25e-4 0,-8.4e-5 0,-1.54e-4 0,-2.38e-4 0,-7.1e-5 0,-1.55e-4 0,-2.25e-4 0,-8.4e-5 0,-1.54e-4 0,-2.24e-4 0,-8.5e-5 0,-1.55e-4 0,-2.39e-4 0,-7e-5 0,-1.54e-4 0,-2.25e-4 0,-8.4e-5 0,-1.54e-4 0,-2.38e-4 0,-7e-5 0,-1.55e-4 0,-2.25e-4 0,-8.4e-5 0,-1.54e-4 0,-2.24e-4 0,-8.5e-5 0,-1.55e-4 0,-2.39e-4 0,-7e-5 0,-1.54e-4 0,-2.25e-4 0,-8.4e-5 0,-1.54e-4 0,-2.38e-4 0,-7e-5 0,-1.55e-4 0,-2.25e-4 0,-8.4e-5 0,-1.54e-4 0,-2.38e-4 0,-7e-5 0,-1.41e-4 0,-2.25e-4 0,-7e-5 0,-1.54e-4 0,-2.24e-4 0,-8.5e-5 0,-1.55e-4 0,-2.39e-4 0,-7e-5 0,-1.54e-4 0,-2.25e-4 0,-8.4e-5 0,-1.54e-4 0,-2.38e-4 0,-7e-5 0,-1.41e-4 0,-2.25e-4 0,-7e-5 0,-1.54e-4 0,-2.24e-4 0,-8.5e-5 0,-1.55e-4 0,-2.39e-4 0,-7e-5 0,-1.54e-4 0,-2.24e-4 0,-8.5e-5 0,-1.55e-4 0,-2.39e-4 0,-7e-5 0,-1.54e-4 0,-2.25e-4 0,-7e-5 0,-1.54e-4 0,-2.24e-4 0,-8.4e-5 0,-1.55e-4 0,-2.39e-4 0,-7e-5 0,-1.54e-4 0,-2.24e-4 0,-8.5e-5 0,-1.55e-4 0,-2.39e-4 0,-7e-5 0,-1.54e-4 0,-2.24e-4 0,-7.1e-5 0,-1.55e-4 0,-2.25e-4 0,-8.4e-5 0,-1.54e-4 0,-2.39e-4 0,-7e-5 0,-1.54e-4 0,-2.24e-4 0,-8.4e-5 0,-1.55e-4 0,-2.39e-4 0,-7e-5 0,-1.54e-4 0,-2.24e-4 0,-8.5e-5 0,-1.55e-4 0,-2.25e-4 0,-8.4e-5 0,-1.54e-4 0,-2.39e-4 0,-7e-5 0,-1.54e-4 0,-2.24e-4 0,-8.4e-5 0,-1.54e-4 0,-2.39e-4 0,-7e-5 0,-1.54e-4 0,-2.24e-4 0,-8.4e-5 0,-1.55e-4 0,-2.25e-4 0,-8.4e-5 0,-1.54e-4 0,-2.38e-4 0,-7.1e-5 0,-1.55e-4 0,-2.25e-4 0,-8.4e-5 0,-1.54e-4 0,-2.39e-4 0,-7e-5 0,-1.54e-4 0,-2.24e-4 0,-8.4e-5 0,-1.55e-4 0,-2.39e-4 0,-7e-5 0,-1.4e-4 0,-2.24e-4 0,-7e-5 0,-1.55e-4 0,-2.25e-4 0,-8.4e-5 0,-1.54e-4 0,-2.38e-4 0,-7.1e-5 0,-1.55e-4 0,-2.25e-4 0,-8.4e-5 0,-1.54e-4 0,-2.39e-4 0,-7e-5 0,-1.4e-4 0,-2.24e-4 0,-7e-5 0,-1.55e-4 0,-2.25e-4 0,-8.4e-5 0,-1.54e-4 0,-2.38e-4 0,-7e-5 0,-1.55e-4 0,-2.25e-4 0,-8.4e-5 0,-1.54e-4 0,-2.38e-4 0,-7.1e-5 0,-1.55e-4 0,-2.25e-4 0,-7e-5 0,-1.54e-4 0,-2.25e-4 0,-8.4e-5 0,-1.54e-4 0,-2.38e-4 0,-7e-5 0,-1.55e-4 0,-2.25e-4 0,-8.4e-5 0,-1.54e-4 0,-2.38e-4 0,-7.1e-5 0,-1.55e-4 0,-2.25e-4 0,-7e-5 0,-1.54e-4 0,-2.24e-4 0,-8.5e-5 0,-1.55e-4 0,-2.39e-4 0,-7e-5 0,-1.54e-4 0,-2.25e-4 0,-8.4e-5 0,-1.54e-4 0,-2.38e-4 0,-7e-5 0,-1.55e-4 0,-2.25e-4 0,-8.4e-5 0,-1.54e-4 0,-2.24e-4 0,-8.5e-5 0,-1.55e-4 0,-2.39e-4 0,-7e-5 0,-1.54e-4 0,-2.25e-4 0,-8.4e-5 0,-1.54e-4 0,-2.38e-4 0,-7e-5 0,-1.54e-4 0,-2.25e-4 0,-8.4e-5 0,-1.54e-4 0,-2.24e-4 0,-8.4e-5 0,-1.55e-4 0,-2.39e-4 0,-7e-5 0,-1.54e-4 0,-2.24e-4 0,-8.5e-5 0,-1.55e-4 0,-2.39e-4 0,-7e-5 0,-1.54e-4 0,-2.25e-4 0,-8.4e-5 0,-1.54e-4 0,-2.38e-4 0,-7e-5 0,-1.4e-4 0,-2.25e-4 0,-7e-5 0,-1.54e-4 0,-2.24e-4 0,-8.4e-5 0,-1.55e-4 0,-2.39e-4 0,-7e-5 0,-1.54e-4 0,-2.24e-4 0,-8.5e-5 0,-1.55e-4 0,-2.39e-4 0,-7e-5 0,-1.4e-4 0,-2.25e-4 0,-7e-5 0,-1.54e-4 0,-2.24e-4 0,-8.4e-5 0,-1.55e-4 0,-2.39e-4 0,-7e-5 0,-1.54e-4 0,-2.24e-4 0,-8.5e-5 0,-1.55e-4 0,-2.39e-4 0,-7e-5 0,-1.54e-4 0,-2.24e-4 0,-7.1e-5 0,-1.55e-4 0,-2.25e-4 0,-8.4e-5 0,-1.54e-4 0,-2.39e-4 0,-7e-5 0,-1.54e-4 0,-2.24e-4 0,-8.4e-5 0,-1.55e-4 0,-2.39e-4 0,-7e-5 0,-1.54e-4 0,-2.24e-4 0,-7.1e-5 0,-1.55e-4 0,-2.25e-4 0,-8.4e-5 0,-1.54e-4 0,-2.38e-4 0,-7.1e-5 0,-1.55e-4 0,-2.25e-4 0,-8.4e-5 0,-1.54e-4 0,-2.39e-4 0,-7e-5 0,-1.54e-4 0,-2.24e-4 0,-8.4e-5 0,-1.55e-4 0,-2.25e-4 0,-8.4e-5 0,-1.54e-4 0,-2.38e-4 0,-7.1e-5 0,-1.55e-4 0,-2.25e-4 0,-8.4e-5 0,-1.54e-4 0,-2.39e-4 0,-7e-5 0,-1.54e-4 0,-2.24e-4 0,-8.4e-5 0,-1.54e-4 0,-2.25e-4 0,-8.4e-5 0,-1.54e-4 0,-2.38e-4 0,-7e-5 0,-1.55e-4 0,-2.25e-4 0,-8.4e-5 0,-1.54e-4 0,-2.38e-4 0,-7.1e-5 0,-1.55e-4 0,-2.25e-4 0,-8.4e-5 0,-1.54e-4 0,-2.39e-4 0,-7e-5 0,-1.4e-4 0,-2.24e-4 0,-7e-5 0,-1.55e-4 0,-2.25e-4 0,-8.4e-5 0,-1.54e-4 0,-2.38e-4 0,-7e-5 0,-1.55e-4 0,-2.25e-4 0,-8.4e-5 0,-1.54e-4 0,-2.38e-4 0,-7.1e-5 0,-1.41e-4 0,-2.25e-4 0,-7e-5 0,-1.54e-4 0,-2.25e-4 0,-8.4e-5 0,-1.54e-4 0,-2.38e-4 0,-7e-5 0,-1.55e-4 0,-2.25e-4 0,-8.4e-5 0,-1.54e-4 0,-2.38e-4 0,-7.1e-5 0,-1.55e-4 0,-2.25e-4 0,-7e-5 0,-1.54e-4 0,-2.24e-4 0,-8.5e-5 0,-1.55e-4 0,-2.39e-4 0,-7e-5 0,-1.54e-4 0,-2.25e-4 0,-8.4e-5 0,-1.54e-4 0,-2.38e-4 0,-7e-5 0,-1.55e-4 0,-2.25e-4 0,-7e-5 0,-1.54e-4 0,-2.24e-4 0,-8.5e-5 0,-1.55e-4 0,-2.39e-4 0,-7e-5 0,-1.54e-4 0,-2.24e-4 0,-8.5e-5 0,-1.55e-4 0,-2.39e-4 0,-7e-5 0,-1.54e-4 0,-2.25e-4 0,-8.4e-5 0,-1.54e-4 0,-2.24e-4 0,-8.4e-5 0,-1.55e-4 0,-2.39e-4 0,-7e-5 0,-1.54e-4 0,-2.24e-4 0,-8.5e-5 0,-1.55e-4 0,-2.39e-4 0,-7e-5 0,-1.54e-4 0,-2.25e-4 0,-8.4e-5 0,-1.54e-4 0,-2.24e-4 0,-8.4e-5 0,-1.54e-4 0,-2.39e-4 0,-7e-5 0,-1.54e-4 0,-2.24e-4 0,-8.4e-5 0,-1.55e-4 0,-2.39e-4 0,-7e-5 0,-1.54e-4 0,-2.24e-4 0,-8.5e-5 0,-1.55e-4 0,-2.39e-4 0,-7e-5 0,-1.4e-4 0,-2.25e-4 0,-7e-5 0,-1.54e-4 0,-2.24e-4 0,-8.4e-5 0,-1.55e-4 0,-2.39e-4 0,-7e-5 0,-1.54e-4 0,-2.24e-4 0,-8.4e-5 0,-1.55e-4 0,-2.39e-4 0,-7e-5 0,-1.4e-4 0,-2.24e-4 0,-7.1e-5 0,-1.55e-4 0,-2.25e-4 0,-8.4e-5 0,-1.54e-4 0,-2.39e-4 0,-7e-5 0,-1.54e-4 0,-2.24e-4 0,-8.4e-5 0,-1.55e-4 0,-2.39e-4 0,-7e-5 0,-1.54e-4 0,-2.24e-4 0,-7e-5 0,-1.55e-4 0,-2.25e-4 0,-8.4e-5 0,-1.54e-4 0,-2.38e-4 0,-7.1e-5 0,-1.55e-4 0,-2.25e-4 0,-8.4e-5 0,-1.54e-4 0,-2.39e-4 0,-7e-5 0,-1.54e-4 0,-2.24e-4 0,-7e-5 0,-1.55e-4 0,-2.25e-4 0,-8.4e-5 0,-1.54e-4 0,-2.38e-4 0,-7.1e-5 0,-1.55e-4 0,-2.25e-4 0,-8.4e-5 0,-1.54e-4 0,-2.39e-4 0,-7e-5 0,-1.54e-4 0,-2.24e-4 0,-8.4e-5 0,-1.54e-4 0,-2.25e-4 0,-8.4e-5 0,-1.54e-4 0,-2.38e-4 0,-7e-5 0,-1.55e-4 0,-2.25e-4 0,-8.4e-5 0,-1.54e-4 0,-2.38e-4 0,-7.1e-5 0,-1.55e-4 0,-2.25e-4 0,-8.4e-5 0,-1.54e-4 0,-2.25e-4 0,-8.4e-5 0,-1.54e-4 0,-2.38e-4 0,-7e-5 0,-1.54e-4 0,-2.25e-4 0,-8.4e-5 0,-1.54e-4 0,-2.38e-4 0,-7e-5 0,-1.55e-4 0,-2.25e-4 0,-8.4e-5 0,-1.54e-4 0,-2.38e-4 0,-7.1e-5 0,-1.41e-4 0,-2.25e-4 0,-7e-5 0,-1.54e-4 0,-2.25e-4 0,-8.4e-5 0,-1.54e-4 0,-2.38e-4 0,-7e-5 0,-1.55e-4 0,-2.25e-4 0,-8.4e-5 0,-1.54e-4 0,-2.38e-4 0,-7e-5 0,-1.41e-4 0,-2.25e-4 0,-7e-5 0,-1.54e-4 0,-2.24e-4 0,-8.5e-5 0,-1.55e-4 0,-2.39e-4 0,-7e-5 0,-1.54e-4 0,-2.25e-4 0,-8.4e-5 0,-1.54e-4 0,-2.38e-4 0,-7e-5 0,-1.55e-4 0,-2.25e-4 0,-7e-5 0,-1.54e-4 0,-2.24e-4 0,-8.5e-5 0,-1.55e-4 0,-2.39e-4 0,-7e-5 0,-1.54e-4 0,-2.24e-4 0,-8.5e-5 0,-1.55e-4 0,-2.39e-4 0,-7e-5 0,-1.54e-4 0,-2.25e-4 0,-7e-5 0,-1.54e-4 0,-2.24e-4 0,-8.4e-5 0,-1.55e-4 0,-2.39e-4 0,-7e-5 0,-1.54e-4 0,-2.24e-4 0,-8.5e-5 0,-1.55e-4 0,-2.39e-4 0,-7e-5 0,-1.54e-4 0,-2.25e-4 0,-8.4e-5 0,-1.54e-4 0,-2.24e-4 0,-8.4e-5 0,-1.54e-4 0,-2.39e-4 0,-7e-5 0,-1.54e-4 0,-2.24e-4 0,-8.4e-5 0,-1.55e-4 0,-2.39e-4 0,-7e-5 0,-1.54e-4 0,-2.24e-4 0,-8.5e-5 0,-1.55e-4 0,-2.25e-4 0,-8.4e-5 0,-1.54e-4 0,-2.39e-4 0,-7e-5 0,-1.54e-4 0,-2.24e-4 0,-8.4e-5 0,-1.54e-4 0,-2.39e-4 0,-7e-5 0,-1.54e-4 0,-2.24e-4 0,-8.4e-5 0,-1.55e-4 0,-2.39e-4 0,-7e-5 0,-1.4e-4 0,-2.24e-4 0,-7.1e-5 0,-1.55e-4 0,-2.25e-4 0,-8.4e-5 0,-1.54e-4 0,-2.39e-4 0,-7e-5 0,-1.54e-4 0,-2.24e-4 0,-8.4e-5 0,-1.55e-4 0,-2.39e-4 0,-7e-5 0,-1.4e-4 0,-2.24e-4 0,-7e-5 0,-1.55e-4 0,-2.25e-4 0,-8.4e-5 0,-1.54e-4 0,-2.38e-4 0,-7.1e-5 0,-1.55e-4 0,-2.25e-4 0,-8.4e-5 0,-1.54e-4 0,-2.39e-4 0,-7e-5 0,-1.54e-4 0,-2.24e-4 0,-7e-5 0,-1.55e-4 0,-2.25e-4 0,-8.4e-5 0,-1.54e-4 0,-2.38e-4 0,-7.1e-5 0,-1.55e-4 0,-2.25e-4 0,-8.4e-5 0,-1.54e-4 0,-2.38e-4 0,-7.1e-5 0,-1.55e-4 0,-2.25e-4 0,-7e-5 0,-1.54e-4 0,-2.25e-4 0,-8.4e-5 0,-1.54e-4 0,-2.38e-4 0,-7e-5 0,-1.55e-4 0,-2.25e-4 0,-8.4e-5 0,-1.54e-4 0,-2.38e-4 0,-7.1e-5 0,-1.55e-4 0,-2.25e-4 0,-8.4e-5 0,-1.54e-4 0,-2.24e-4 0,-8.5e-5 0,-1.55e-4 0,-2.39e-4 0,-7e-5 0,-1.54e-4 0,-2.25e-4 0,-8.4e-5 0,-1.54e-4 0,-2.38e-4 0,-7e-5 0,-1.55e-4 0,-2.25e-4 0,-8.4e-5 0,-1.54e-4 0,-2.24e-4 0,-8.5e-5 0,-1.55e-4 0,-2.39e-4 0,-7e-5 0,-1.54e-4 0,-2.25e-4 0,-8.4e-5 0,-1.54e-4 0,-2.38e-4 0,-7e-5 0,-1.55e-4 0,-2.25e-4 0,-8.4e-5 0,-1.54e-4 0,-2.38e-4 0,-7e-5 0,-1.41e-4 0,-2.25e-4 0,-7e-5 0,-1.54e-4 0,-2.24e-4 0,-8.5e-5 0,-1.55e-4 0,-2.39e-4 0,-7e-5 0,-1.54e-4 0,-2.25e-4 0,-8.4e-5 0,-1.54e-4 0,-2.38e-4 0,-7e-5 0,-1.41e-4 0,-2.25e-4 0,-7e-5 0,-1.54e-4 0,-2.24e-4 0,-8.4e-5 0,-1.55e-4 0,-2.39e-4 0,-7e-5 0,-1.54e-4 0,-2.24e-4 0,-8.5e-5 0,-1.55e-4 0,-2.39e-4 0,-7e-5 0,-1.54e-4 0,-2.25e-4 0,-7e-5 0,-1.54e-4 0,-2.24e-4 0,-8.4e-5 0,-1.55e-4 0,-2.39e-4 0,-7e-5 0,-1.54e-4 0,-2.24e-4 0,-8.5e-5 0,-1.55e-4 0,-2.39e-4 0,-7e-5 0,-1.54e-4 0,-2.24e-4 0,-7.1e-5 0,-1.55e-4 0,-2.25e-4 0,-8.4e-5 0,-1.54e-4 0,-2.39e-4 0,-7e-5 0,-1.54e-4 0,-2.24e-4 0,-8.4e-5 0,-1.55e-4 0,-2.39e-4 0,-7e-5 0,-1.54e-4 0,-2.24e-4 0,-8.5e-5 0,-1.55e-4 0,-2.25e-4 0,-8.4e-5 0,-1.54e-4 0,-2.39e-4 0,-7e-5 0,-1.54e-4 0,-2.24e-4 0,-8.4e-5 0,-1.54e-4 0,-2.39e-4 0,-7e-5 0,-1.54e-4 0,-2.24e-4 0,-8.4e-5 0,-1.55e-4 0,-2.25e-4 0,-8.4e-5 0,-1.54e-4 0,-2.38e-4 0,-7.1e-5 0,-1.55e-4 0,-2.25e-4 0,-8.4e-5 0,-1.54e-4 0,-2.39e-4 0,-7e-5 0,-1.54e-4 0,-2.24e-4 0,-8.4e-5 0,-1.54e-4 0,-2.39e-4 0,-7e-5 0,-1.4e-4 0,-2.24e-4 0,-7e-5 0,-1.55e-4 0,-2.25e-4 0,-8.4e-5 0,-1.54e-4 0,-2.38e-4 0,-7.1e-5 0,-1.55e-4 0,-2.25e-4 0,-8.4e-5 0,-1.54e-4 0,-2.39e-4 0,-7e-5 0,-1.4e-4 0,-2.24e-4 0,-7e-5 0,-1.55e-4 0,-2.25e-4 0,-8.4e-5 0,-1.54e-4 0,-2.38e-4 0,-7e-5 0,-1.55e-4 0,-2.25e-4 0,-8.4e-5 0,-1.54e-4 0,-2.38e-4 0,-7.1e-5 0,-1.55e-4 0,-2.25e-4 0,-7e-5 0,-1.54e-4 0,-2.25e-4 0,-8.4e-5 0,-1.54e-4 0,-2.38e-4 0,-7e-5 0,-1.55e-4 0,-2.25e-4 0,-8.4e-5 0,-1.54e-4 0,-2.38e-4 0,-7.1e-5 0,-1.55e-4 0,-2.25e-4 0,-7e-5 0,-1.54e-4 0,-2.24e-4 0,-8.5e-5 0,-1.55e-4 0,-2.39e-4 0,-7e-5 0,-1.54e-4 0,-2.25e-4 0,-8.4e-5 0,-1.54e-4 0,-2.38e-4 0,-7e-5 0,-1.55e-4 0,-2.25e-4 0,-8.4e-5 0,-1.54e-4 0,-2.24e-4 0,-8.5e-5 0,-1.55e-4 0,-2.39e-4 0,-7e-5 0,-1.54e-4 0,-2.25e-4 0,-8.4e-5 0,-1.54e-4 0,-2.38e-4 0,-7e-5 0,-1.54e-4 0,-2.25e-4 0,-8.4e-5 0,-1.54e-4 0,-2.24e-4 0,-8.4e-5 0,-1.55e-4 0,-2.39e-4 0,-7e-5 0,-1.54e-4 0,-2.24e-4 0,-8.5e-5 0,-1.55e-4 0,-2.39e-4 0,-7e-5 0,-1.54e-4 0,-2.25e-4 0,-8.4e-5 0,-1.54e-4 0,-2.38e-4 0,-7e-5 0,-1.4e-4 0,-2.25e-4 0,-7e-5 0,-1.54e-4 0,-2.24e-4 0,-8.4e-5 0,-1.55e-4 0,-2.39e-4 0,-7e-5 0,-1.54e-4 0,-2.24e-4 0,-8.5e-5 0,-1.55e-4 0,-2.39e-4 0,-7e-5 0,-1.4e-4 0,-2.25e-4 0,-7e-5 0,-1.54e-4 0,-2.24e-4 0,-8.4e-5 0,-1.55e-4 0,-2.39e-4 0,-7e-5 0,-1.54e-4 0,-2.24e-4 0,-8.5e-5 0,-1.55e-4 0,-2.39e-4 0,-7e-5 0,-1.54e-4 0,-2.24e-4 0,-7.1e-5 0,-1.55e-4 0,-2.25e-4 0,-8.4e-5 0,-1.54e-4 0,-2.39e-4 0,-7e-5 0,-1.54e-4 0,-2.24e-4 0,-8.4e-5 0,-1.55e-4 0,-2.39e-4 0,-7e-5 0,-1.54e-4 0,-2.24e-4 0,-7.1e-5 0,-1.55e-4 0,-2.25e-4 0,-8.4e-5 0,-1.54e-4 0,-2.38e-4 0,-7.1e-5 0,-1.55e-4 0,-2.25e-4 0,-8.4e-5 0,-1.54e-4 0,-2.39e-4 0,-7e-5 0,-1.54e-4 0,-2.24e-4 0,-8.4e-5 0,-1.55e-4 0,-2.25e-4 0,-8.4e-5 0,-1.54e-4 0,-2.38e-4 0,-7.1e-5 0,-1.55e-4 0,-2.25e-4 0,-8.4e-5 0,-1.54e-4 0,-2.39e-4 0,-7e-5 0,-1.54e-4 0,-2.24e-4 0,-8.4e-5 0,-1.54e-4 0,-2.25e-4 0,-8.4e-5 0,-1.54e-4 0,-2.38e-4 0,-7e-5 0,-1.55e-4 0,-2.25e-4 0,-8.4e-5 0,-1.54e-4 0,-2.38e-4 0,-7.1e-5 0,-1.55e-4 0,-2.25e-4 0,-8.4e-5 0,-1.54e-4 0,-2.39e-4 0,-7e-5 0,-1.4e-4 0,-2.24e-4 0,-7e-5 0,-1.55e-4 0,-2.25e-4 0,-8.4e-5 0,-1.54e-4 0,-2.38e-4 0,-7e-5 0,-1.55e-4 0,-2.25e-4 0,-8.4e-5 0,-1.54e-4 0,-2.38e-4 0,-7.1e-5 0,-1.41e-4 0,-2.25e-4 0,-7e-5 0,-1.54e-4 0,-2.25e-4 0,-8.4e-5 0,-1.54e-4 0,-2.38e-4 0,-7e-5 0,-1.55e-4 0,-2.25e-4 0,-8.4e-5 0,-1.54e-4 0,-2.38e-4 0,-7e-5 0,-1.55e-4 0,-2.25e-4 0,-7e-5 0,-1.54e-4 0,-2.24e-4 0,-8.5e-5 0,-1.55e-4 0,-2.39e-4 0,-7e-5 0,-1.54e-4 0,-2.25e-4 0,-8.4e-5 0,-1.54e-4 0,-2.38e-4 0,-7e-5 0,-1.55e-4 0,-2.25e-4 0,-7e-5 0,-1.54e-4 0,-2.24e-4 0,-8.5e-5 0,-1.55e-4 0,-2.39e-4 0,-7e-5 0,-1.54e-4 0,-2.24e-4 0,-8.5e-5 0,-1.55e-4 0,-2.39e-4 0,-7e-5 0,-1.54e-4 0,-2.25e-4 0,-8.4e-5 0,-1.54e-4 0,-2.24e-4 0,-8.4e-5 0,-1.55e-4 0,-2.39e-4 0,-7e-5 0,-1.54e-4 0,-2.24e-4 0,-8.5e-5 0,-1.55e-4 0,-2.39e-4 0,-7e-5 0,-1.54e-4 0,-2.25e-4 0,-8.4e-5 0,-1.54e-4 0,-2.24e-4 0,-8.4e-5 0,-1.54e-4 0,-2.39e-4 0,-7e-5 0,-1.54e-4 0,-2.24e-4 0,-8.4e-5 0,-1.55e-4 0,-2.39e-4 0,-7e-5 0,-1.54e-4 0,-2.24e-4 0,-8.5e-5 0,-1.55e-4 0,-2.39e-4 0,-7e-5 0,-1.4e-4 0,-2.25e-4 0,-7e-5 0,-1.54e-4 0,-2.24e-4 0,-8.4e-5 0,-1.54e-4 0,-2.39e-4 0,-7e-5 0,-1.54e-4 0,-2.24e-4 0,-8.4e-5 0,-1.55e-4 0,-2.39e-4 0,-7e-5 0,-1.4e-4 0,-2.24e-4 0,-7.1e-5 0,-1.55e-4 0,-2.25e-4 0,-8.4e-5 0,-1.54e-4 0,-2.39e-4 0,-7e-5 0,-1.54e-4 0,-2.24e-4 0,-8.4e-5 0,-1.55e-4 0,-2.39e-4 0,-7e-5 0,-1.54e-4 0,-2.24e-4 h -2.105265 c 0,7e-5 0,1.54e-4 0,2.24e-4 0,8.4e-5 0,1.55e-4 0,2.39e-4 0,7e-5 0,1.54e-4 0,2.24e-4 0,8.5e-5 0,1.55e-4 0,2.39e-4 0,7e-5 0,1.54e-4 0,2.25e-4 0,8.4e-5 0,1.54e-4 0,2.24e-4 0,8.4e-5 0,1.55e-4 0,2.39e-4 0,7e-5 0,1.54e-4 0,2.24e-4 0,8.5e-5 0,1.55e-4 0,2.39e-4 0,7e-5 0,1.54e-4 0,2.24e-4 0,8.5e-5 0,1.55e-4 0,2.25e-4 0,8.4e-5 0,1.54e-4 0,2.39e-4 0,7e-5 0,1.54e-4 0,2.24e-4 0,8.4e-5 0,1.55e-4 0,2.39e-4 0,7e-5 0,1.54e-4 0,2.24e-4 0,8.5e-5 0,1.55e-4 0,2.39e-4 0,7e-5 0,1.4e-4 0,2.24e-4 0,7.1e-5 0,1.55e-4 0,2.25e-4 0,8.4e-5 0,1.54e-4 0,2.39e-4 0,7e-5 0,1.54e-4 0,2.24e-4 0,8.4e-5 0,1.55e-4 0,2.39e-4 0,7e-5 0,1.4e-4 0,2.24e-4 0,7.1e-5 0,1.55e-4 0,2.25e-4 0,8.4e-5 0,1.54e-4 0,2.39e-4 0,7e-5 0,1.54e-4 0,2.24e-4 0,8.4e-5 0,1.54e-4 0,2.39e-4 0,7e-5 0,1.54e-4 0,2.24e-4 0,7e-5 0,1.55e-4 0,2.25e-4 0,8.4e-5 0,1.54e-4 0,2.38e-4 0,7.1e-5 0,1.55e-4 0,2.25e-4 0,8.4e-5 0,1.54e-4 0,2.39e-4 0,7e-5 0,1.54e-4 0,2.24e-4 0,7e-5 0,1.55e-4 0,2.25e-4 0,8.4e-5 0,1.54e-4 0,2.38e-4 0,7e-5 0,1.55e-4 0,2.25e-4 0,8.4e-5 0,1.54e-4 0,2.38e-4 0,7.1e-5 0,1.55e-4 0,2.25e-4 0,8.4e-5 0,1.54e-4 0,2.25e-4 0,8.4e-5 0,1.54e-4 0,2.38e-4 0,7e-5 0,1.55e-4 0,2.25e-4 0,8.4e-5 0,1.54e-4 0,2.38e-4 0,7e-5 0,1.55e-4 0,2.25e-4 0,8.4e-5 0,1.54e-4 0,2.24e-4 0,8.5e-5 0,1.55e-4 0,2.39e-4 0,7e-5 0,1.54e-4 0,2.25e-4 0,8.4e-5 0,1.54e-4 0,2.38e-4 0,7e-5 0,1.55e-4 0,2.25e-4 0,8.4e-5 0,1.54e-4 0,2.38e-4 0,7.1e-5 0,1.41e-4 0,2.25e-4 0,7e-5 0,1.54e-4 0,2.24e-4 0,8.5e-5 0,1.55e-4 0,2.39e-4 0,7e-5 0,1.54e-4 0,2.25e-4 0,8.4e-5 0,1.54e-4 0,2.38e-4 0,7e-5 0,1.41e-4 0,2.25e-4 0,7e-5 0,1.54e-4 0,2.24e-4 0,8.5e-5 0,1.55e-4 0,2.39e-4 0,7e-5 0,1.54e-4 0,2.25e-4 0,8.4e-5 0,1.54e-4 0,2.38e-4 0,7e-5 0,1.54e-4 0,2.25e-4 0,7e-5 0,1.54e-4 0,2.24e-4 0,8.4e-5 0,1.55e-4 0,2.39e-4 0,7e-5 0,1.54e-4 0,2.24e-4 0,8.5e-5 0,1.55e-4 0,2.39e-4 0,7e-5 0,1.54e-4 0,2.25e-4 0,7e-5 0,1.54e-4 0,2.24e-4 0,8.4e-5 0,1.54e-4 0,2.39e-4 0,7e-5 0,1.54e-4 0,2.24e-4 0,8.4e-5 0,1.55e-4 0,2.39e-4 0,7e-5 0,1.54e-4 0,2.24e-4 0,8.5e-5 0,1.55e-4 0,2.25e-4 0,8.4e-5 0,1.54e-4 0,2.39e-4 0,7e-5 0,1.54e-4 0,2.24e-4 0,8.4e-5 0,1.55e-4 0,2.39e-4 0,7e-5 0,1.54e-4 0,2.24e-4 0,8.5e-5 0,1.55e-4 0,2.25e-4 0,8.4e-5 0,1.54e-4 0,2.38e-4 0,7.1e-5 0,1.55e-4 0,2.25e-4 0,8.4e-5 0,1.54e-4 0,2.39e-4 0,7e-5 0,1.54e-4 0,2.24e-4 0,8.4e-5 0,1.55e-4 0,2.39e-4 0,7e-5 0,1.4e-4 0,2.24e-4 0,7.1e-5 0,1.55e-4 0,2.25e-4 0,8.4e-5 0,1.54e-4 0,2.38e-4 0,7.1e-5 0,1.55e-4 0,2.25e-4 0,8.4e-5 0,1.54e-4 0,2.39e-4 0,7e-5 0,1.4e-4 0,2.24e-4 0,7e-5 0,1.55e-4 0,2.25e-4 0,8.4e-5 0,1.54e-4 0,2.38e-4 0,7.1e-5 0,1.55e-4 0,2.25e-4 0,8.4e-5 0,1.54e-4 0,2.39e-4 0,7e-5 0,1.54e-4 0,2.24e-4 0,7e-5 0,1.54e-4 0,2.25e-4 0,8.4e-5 0,1.54e-4 0,2.38e-4 0,7e-5 0,1.55e-4 0,2.25e-4 0,8.4e-5 0,1.54e-4 0,2.38e-4 0,7.1e-5 0,1.55e-4 0,2.25e-4 0,7e-5 0,1.54e-4 0,2.25e-4 0,8.4e-5 0,1.54e-4 0,2.38e-4 0,7e-5 0,1.55e-4 0,2.25e-4 0,8.4e-5 0,1.54e-4 0,2.38e-4 0,7e-5 0,1.55e-4 0,2.25e-4 0,8.4e-5 0,1.54e-4 0,2.24e-4 0,8.5e-5 0,1.55e-4 0,2.39e-4 0,7e-5 0,1.54e-4 0,2.25e-4 0,8.4e-5 0,1.54e-4 0,2.38e-4 0,7e-5 0,1.55e-4 0,2.25e-4 0,8.4e-5 0,1.54e-4 0,2.24e-4 0,8.5e-5 0,1.55e-4 0,2.39e-4 0,7e-5 0,1.54e-4 0,2.24e-4 0,8.5e-5 0,1.55e-4 0,2.39e-4 0,7e-5 0,1.54e-4 0,2.25e-4 0,8.4e-5 0,1.54e-4 0,2.38e-4 0,7e-5 0,1.41e-4 0,2.25e-4 0,7e-5 0,1.54e-4 0,2.24e-4 0,8.5e-5 0,1.55e-4 0,2.39e-4 0,7e-5 0,1.54e-4 0,2.24e-4 0,8.5e-5 0,1.55e-4 0,2.39e-4 0,7e-5 0,1.4e-4 0,2.25e-4 0,7e-5 0,1.54e-4 0,2.24e-4 0,8.4e-5 0,1.55e-4 0,2.39e-4 0,7e-5 0,1.54e-4 0,2.24e-4 0,8.5e-5 0,1.55e-4 0,2.39e-4 0,7e-5 0,1.54e-4 0,2.25e-4 0,7e-5 0,1.54e-4 0,2.24e-4 0,8.4e-5 0,1.54e-4 0,2.39e-4 0,7e-5 0,1.54e-4 0,2.24e-4 0,8.4e-5 0,1.55e-4 0,2.39e-4 0,7e-5 0,1.54e-4 0,2.24e-4 0,7.1e-5 0,1.55e-4 0,2.25e-4 0,8.4e-5 0,1.54e-4 0,2.39e-4 0,7e-5 0,1.54e-4 0,2.24e-4 0,8.4e-5 0,1.55e-4 0,2.39e-4 0,7e-5 0,1.54e-4 0,2.24e-4 0,8.4e-5 0,1.55e-4 0,2.25e-4 0,8.4e-5 0,1.54e-4 0,2.38e-4 0,7.1e-5 0,1.55e-4 0,2.25e-4 0,8.4e-5 0,1.54e-4 0,2.39e-4 0,7e-5 0,1.54e-4 0,2.24e-4 0,8.4e-5 0,1.55e-4 0,2.25e-4 0,8.4e-5 0,1.54e-4 0,2.38e-4 0,7e-5 0,1.55e-4 0,2.25e-4 0,8.4e-5 0,1.54e-4 0,2.38e-4 0,7.1e-5 0,1.55e-4 0,2.25e-4 0,8.4e-5 0,1.54e-4 0,2.39e-4 0,7e-5 0,1.4e-4 0,2.24e-4 0,7e-5 0,1.55e-4 0,2.25e-4 0,8.4e-5 0,1.54e-4 0,2.38e-4 0,7.1e-5 0,1.55e-4 0,2.25e-4 0,8.4e-5 0,1.54e-4 0,2.39e-4 0,7e-5 0,1.4e-4 0,2.24e-4 0,7e-5 0,1.54e-4 0,2.25e-4 0,8.4e-5 0,1.54e-4 0,2.38e-4 0,7e-5 0,1.55e-4 0,2.25e-4 0,8.4e-5 0,1.54e-4 0,2.38e-4 0,7.1e-5 0,1.55e-4 0,2.25e-4 0,7e-5 0,1.54e-4 0,2.25e-4 0,8.4e-5 0,1.54e-4 0,2.38e-4 0,7e-5 0,1.54e-4 0,2.25e-4 0,8.4e-5 0,1.54e-4 0,2.38e-4 0,7e-5 0,1.55e-4 0,2.25e-4 0,7e-5 0,1.54e-4 0,2.24e-4 0,8.5e-5 0,1.55e-4 0,2.39e-4 0,7e-5 0,1.54e-4 0,2.25e-4 0,8.4e-5 0,1.54e-4 0,2.38e-4 0,7e-5 0,1.55e-4 0,2.25e-4 0,8.4e-5 0,1.54e-4 0,2.24e-4 0,8.4e-5 0,1.55e-4 0,2.39e-4 0,7e-5 0,1.54e-4 0,2.24e-4 0,8.5e-5 0,1.55e-4 0,2.39e-4 0,7e-5 0,1.54e-4 0,2.25e-4 0,8.4e-5 0,1.54e-4 0,2.24e-4 0,8.4e-5 0,1.55e-4 0,2.39e-4 0,7e-5 0,1.54e-4 0,2.24e-4 0,8.5e-5 0,1.55e-4 0,2.39e-4 0,7e-5 0,1.54e-4 0,2.24e-4 0,8.5e-5 0,1.55e-4 0,2.39e-4 0,7e-5 0,1.4e-4 0,2.25e-4 0,7e-5 0,1.54e-4 0,2.24e-4 0,8.4e-5 0,1.55e-4 0,2.39e-4 0,7e-5 0,1.54e-4 0,2.24e-4 0,8.5e-5 0,1.55e-4 0,2.39e-4 0,7e-5 0,1.4e-4 0,2.24e-4 0,7.1e-5 0,1.55e-4 0,2.25e-4 0,8.4e-5 0,1.54e-4 0,2.39e-4 0,7e-5 0,1.54e-4 0,2.24e-4 0,8.4e-5 0,1.55e-4 0,2.39e-4 0,7e-5 0,1.54e-4 0,2.24e-4 0,7.1e-5 0,1.55e-4 0,2.25e-4 0,8.4e-5 0,1.54e-4 0,2.39e-4 0,7e-5 0,1.54e-4 0,2.24e-4 0,8.4e-5 0,1.54e-4 0,2.39e-4 0,7e-5 0,1.54e-4 0,2.24e-4 0,7e-5 0,1.55e-4 0,2.25e-4 0,8.4e-5 0,1.54e-4 0,2.38e-4 0,7.1e-5 0,1.55e-4 0,2.25e-4 0,8.4e-5 0,1.54e-4 0,2.39e-4 0,7e-5 0,1.54e-4 0,2.24e-4 0,8.4e-5 0,1.55e-4 0,2.25e-4 0,8.4e-5 0,1.54e-4 0,2.38e-4 0,7e-5 0,1.55e-4 0,2.25e-4 0,8.4e-5 0,1.54e-4 0,2.38e-4 0,7.1e-5 0,1.55e-4 0,2.25e-4 0,8.4e-5 0,1.54e-4 0,2.25e-4 0,8.4e-5 0,1.54e-4 0,2.38e-4 0,7e-5 0,1.55e-4 0,2.25e-4 0,8.4e-5 0,1.54e-4 0,2.38e-4 0,7.1e-5 0,1.55e-4 0,2.25e-4 0,8.4e-5 0,1.54e-4 0,2.38e-4 0,7.1e-5 0,1.41e-4 0,2.25e-4 0,7e-5 0,1.54e-4 0,2.25e-4 0,8.4e-5 0,1.54e-4 0,2.38e-4 0,7e-5 0,1.55e-4 0,2.25e-4 0,8.4e-5 0,1.54e-4 0,2.38e-4 0,7.1e-5 0,1.41e-4 0,2.25e-4 0,7e-5 0,1.54e-4 0,2.24e-4 0,8.5e-5 0,1.55e-4 0,2.39e-4 0,7e-5 0,1.54e-4 0,2.25e-4 0,8.4e-5 0,1.54e-4 0,2.38e-4 0,7e-5 0,1.55e-4 0,2.25e-4 0,7e-5 0,1.54e-4 0,2.24e-4 0,8.5e-5 0,1.55e-4 0,2.39e-4 0,7e-5 0,1.54e-4 0,2.25e-4 0,8.4e-5 0,1.54e-4 0,2.38e-4 0,7e-5 0,1.55e-4 0,2.25e-4 0,7e-5 0,1.54e-4 0,2.24e-4 0,8.4e-5 0,1.55e-4 0,2.39e-4 0,7e-5 0,1.54e-4 0,2.24e-4 0,8.5e-5 0,1.55e-4 0,2.39e-4 0,7e-5 0,1.54e-4 0,2.25e-4 0,8.4e-5 0,1.54e-4 0,2.24e-4 0,8.4e-5 0,1.55e-4 0,2.39e-4 0,7e-5 0,1.54e-4 0,2.24e-4 0,8.4e-5 0,1.55e-4 0,2.39e-4 0,7e-5 0,1.54e-4 0,2.24e-4 0,8.5e-5 0,1.55e-4 0,2.25e-4 0,8.4e-5 0,1.54e-4 0,2.39e-4 0,7e-5 0,1.54e-4 0,2.24e-4 0,8.4e-5 0,1.55e-4 0,2.39e-4 0,7e-5 0,1.54e-4 0,2.24e-4 0,8.5e-5 0,1.55e-4 0,2.39e-4 0,7e-5 0,1.4e-4 0,2.24e-4 0,7.1e-5 0,1.55e-4 0,2.25e-4 0,8.4e-5 0,1.54e-4 0,2.39e-4 0,7e-5 0,1.54e-4 0,2.24e-4 0,8.4e-5 0,1.55e-4 0,2.39e-4 0,7e-5 0,1.4e-4 0,2.24e-4 0,7.1e-5 0,1.55e-4 0,2.25e-4 0,8.4e-5 0,1.54e-4 0,2.39e-4 0,7e-5 0,1.54e-4 0,2.24e-4 0,8.4e-5 0,1.54e-4 0,2.39e-4 0,7e-5 0,1.54e-4 0,2.24e-4 0,7e-5 0,1.55e-4 0,2.25e-4 0,8.4e-5 0,1.54e-4 0,2.38e-4 0,7.1e-5 0,1.55e-4 0,2.25e-4 0,8.4e-5 0,1.54e-4 0,2.39e-4 0,7e-5 0,1.54e-4 0,2.24e-4 0,7e-5 0,1.54e-4 0,2.25e-4 0,8.4e-5 0,1.54e-4 0,2.38e-4 0,7e-5 0,1.55e-4 0,2.25e-4 0,8.4e-5 0,1.54e-4 0,2.38e-4 0,7.1e-5 0,1.55e-4 0,2.25e-4 0,8.4e-5 0,1.54e-4 0,2.25e-4 0,8.4e-5 0,1.54e-4 0,2.38e-4 0,7e-5 0,1.55e-4 0,2.25e-4 0,8.4e-5 0,1.54e-4 0,2.38e-4 0,7e-5 0,1.55e-4 0,2.25e-4 0,8.4e-5 0,1.54e-4 0,2.24e-4 0,8.5e-5 0,1.55e-4 0,2.39e-4 0,7e-5 0,1.54e-4 0,2.25e-4 0,8.4e-5 0,1.54e-4 0,2.38e-4 0,7e-5 0,1.55e-4 0,2.25e-4 0,8.4e-5 0,1.54e-4 0,2.38e-4 0,7.1e-5 0,1.41e-4 0,2.25e-4 0,7e-5 0,1.54e-4 0,2.24e-4 0,8.5e-5 0,1.55e-4 0,2.39e-4 0,7e-5 0,1.54e-4 0,2.25e-4 0,8.4e-5 0,1.54e-4 0,2.38e-4 0,7e-5 0,1.41e-4 0,2.25e-4 0,7e-5 0,1.54e-4 0,2.24e-4 0,8.5e-5 0,1.55e-4 0,2.39e-4 0,7e-5 0,1.54e-4 0,2.25e-4 0,8.4e-5 0,1.54e-4 0,2.38e-4 0,7e-5 0,1.54e-4 0,2.25e-4 0,7e-5 0,1.54e-4 0,2.24e-4 0,8.4e-5 0,1.55e-4 0,2.39e-4 0,7e-5 0,1.54e-4 0,2.24e-4 0,8.5e-5 0,1.55e-4 0,2.39e-4 0,7e-5 0,1.54e-4 0,2.25e-4 0,7e-5 0,1.54e-4 0,2.24e-4 0,8.4e-5 0,1.54e-4 0,2.39e-4 0,7e-5 0,1.54e-4 0,2.24e-4 0,8.4e-5 0,1.55e-4 0,2.39e-4 0,7e-5 0,1.54e-4 0,2.24e-4 0,8.5e-5 0,1.55e-4 0,2.25e-4 0,8.4e-5 0,1.54e-4 0,2.39e-4 0,7e-5 0,1.54e-4 0,2.24e-4 0,8.4e-5 0,1.55e-4 0,2.39e-4 0,7e-5 0,1.54e-4 0,2.24e-4 0,8.5e-5 0,1.55e-4 0,2.25e-4 0,8.4e-5 0,1.54e-4 0,2.38e-4 0,7.1e-5 0,1.55e-4 0,2.25e-4 0,8.4e-5 0,1.54e-4 0,2.39e-4 0,7e-5 0,1.54e-4 0,2.24e-4 0,8.4e-5 0,1.55e-4 0,2.39e-4 0,7e-5 0,1.4e-4 0,2.24e-4 0,7.1e-5 0,1.55e-4 0,2.25e-4 0,8.4e-5 0,1.54e-4 0,2.38e-4 0,7.1e-5 0,1.55e-4 0,2.25e-4 0,8.4e-5 0,1.54e-4 0,2.39e-4 0,7e-5 0,1.4e-4 0,2.24e-4 0,7e-5 0,1.55e-4 0,2.25e-4 0,8.4e-5 0,1.54e-4 0,2.38e-4 0,7.1e-5 0,1.55e-4 0,2.25e-4 0,8.4e-5 0,1.54e-4 0,2.39e-4 0,7e-5 0,1.54e-4 0,2.24e-4 0,7e-5 0,1.54e-4 0,2.25e-4 0,8.4e-5 0,1.54e-4 0,2.38e-4 0,7e-5 0,1.55e-4 0,2.25e-4 0,8.4e-5 0,1.54e-4 0,2.38e-4 0,7.1e-5 0,1.55e-4 0,2.25e-4 0,7e-5 0,1.54e-4 0,2.25e-4 0,8.4e-5 0,1.54e-4 0,2.38e-4 0,7e-5 0,1.55e-4 0,2.25e-4 0,8.4e-5 0,1.54e-4 0,2.38e-4 0,7e-5 0,1.55e-4 0,2.25e-4 0,8.4e-5 0,1.54e-4 0,2.24e-4 0,8.5e-5 0,1.55e-4 0,2.39e-4 0,7e-5 0,1.54e-4 0,2.25e-4 0,8.4e-5 0,1.54e-4 0,2.38e-4 0,7e-5 0,1.55e-4 0,2.25e-4 0,8.4e-5 0,1.54e-4 0,2.24e-4 0,8.4e-5 0,1.55e-4 0,2.39e-4 0,7e-5 0,1.54e-4 0,2.24e-4 0,8.5e-5 0,1.55e-4 0,2.39e-4 0,7e-5 0,1.54e-4 0,2.25e-4 0,8.4e-5 0,1.54e-4 0,2.38e-4 0,7e-5 0,1.41e-4 0,2.25e-4 0,7e-5 0,1.54e-4 0,2.24e-4 0,8.5e-5 0,1.55e-4 0,2.39e-4 0,7e-5 0,1.54e-4 0,2.24e-4 0,8.5e-5 0,1.55e-4 0,2.39e-4 0,7e-5 0,1.4e-4 0,2.25e-4 0,7e-5 0,1.54e-4 0,2.24e-4 0,8.4e-5 0,1.55e-4 0,2.39e-4 0,7e-5 0,1.54e-4 0,2.24e-4 0,8.5e-5 0,1.55e-4 0,2.39e-4 0,7e-5 0,1.54e-4 0,2.25e-4 0,7e-5 0,1.54e-4 0,2.24e-4 0,8.4e-5 0,1.54e-4 0,2.39e-4 0,7e-5 0,1.54e-4 0,2.24e-4 0,8.4e-5 0,1.55e-4 0,2.39e-4 0,7e-5 0,1.54e-4 0,2.24e-4 0,7.1e-5 0,1.55e-4 0,2.25e-4 0,8.4e-5 0,1.54e-4 0,2.39e-4 0,7e-5 0,1.54e-4 0,2.24e-4 0,8.4e-5 0,1.54e-4 0,2.39e-4 0,7e-5 0,1.54e-4 0,2.24e-4 0,8.4e-5 0,1.55e-4 0,2.25e-4 0,8.4e-5 0,1.54e-4 0,2.38e-4 0,7.1e-5 0,1.55e-4 0,2.25e-4 0,8.4e-5 0,1.54e-4 0,2.39e-4 0,7e-5 0,1.54e-4 0,2.24e-4 0,8.4e-5 0,1.55e-4 0,2.25e-4 0,8.4e-5 0,1.54e-4 0,2.38e-4 0,7e-5 0,1.55e-4 0,2.25e-4 0,8.4e-5 0,1.54e-4 0,2.38e-4 0,7.1e-5 0,1.55e-4 0,2.25e-4 0,8.4e-5 0,1.54e-4 0,2.39e-4 0,7e-5 0,1.4e-4 0,2.24e-4 0,7e-5 0,1.55e-4 0,2.25e-4 0,8.4e-5 0,1.54e-4 0,2.38e-4 0,7.1e-5 0,1.55e-4 0,2.25e-4 0,8.4e-5 0,1.54e-4 0,2.39e-4 0,7e-5 0,1.4e-4 0,2.24e-4 0,7e-5 0,1.54e-4 0,2.25e-4 0,8.4e-5 0,1.54e-4 0,2.38e-4 0,7e-5 0,1.55e-4 0,2.25e-4 0,8.4e-5 0,1.54e-4 0,2.38e-4 0,7.1e-5 0,1.55e-4 0,2.25e-4 0,7e-5 0,1.54e-4 0,2.25e-4 0,8.4e-5 0,1.54e-4 0,2.38e-4 0,7e-5 0,1.54e-4 0,2.25e-4 0,8.4e-5 0,1.54e-4 0,2.38e-4 0,7e-5 0,1.55e-4 0,2.25e-4 0,7e-5 0,1.54e-4 0,2.24e-4 0,8.5e-5 0,1.55e-4 0,2.39e-4 0,7e-5 0,1.54e-4 0,2.25e-4 0,8.4e-5 0,1.54e-4 0,2.38e-4 0,7e-5 0,1.55e-4 0,2.25e-4 0,8.4e-5 0,1.54e-4 0,2.24e-4 0,8.4e-5 0,1.55e-4 0,2.39e-4 0,7e-5 0,1.54e-4 0,2.24e-4 0,8.5e-5 0,1.55e-4 0,2.39e-4 0,7e-5 0,1.54e-4 0,2.25e-4 0,8.4e-5 0,1.54e-4 0,2.24e-4 0,8.4e-5 0,1.55e-4 0,2.39e-4 0,7e-5 0,1.54e-4 0,2.24e-4 0,8.5e-5 0,1.55e-4 0,2.39e-4 0,7e-5 0,1.54e-4 0,2.24e-4 0,8.5e-5 0,1.55e-4 0,2.39e-4 0,7e-5 0,1.4e-4 0,2.25e-4 0,7e-5 0,1.54e-4 0,2.24e-4 0,8.4e-5 0,1.55e-4 0,2.39e-4 0,7e-5 0,1.54e-4 0,2.24e-4 0,8.5e-5 0,1.55e-4 0,2.39e-4 0,7e-5 0,1.4e-4 0,2.24e-4 0,7.1e-5 0,1.55e-4 0,2.25e-4 0,8.4e-5 0,1.54e-4 0,2.39e-4 0,7e-5 0,1.54e-4 0,2.24e-4 0,8.4e-5 0,1.55e-4 0,2.39e-4 0,7e-5 0,1.54e-4 0,2.24e-4 0,7.1e-5 0,1.55e-4 0,2.25e-4 0,8.4e-5 0,1.54e-4 0,2.39e-4 0,7e-5 0,1.54e-4 0,2.24e-4 0,8.4e-5 0,1.54e-4 0,2.39e-4 0,7e-5 0,1.54e-4 0,2.24e-4 0,7e-5 0,1.55e-4 0,2.25e-4 0,8.4e-5 0,1.54e-4 0,2.38e-4 0,7.1e-5 0,1.55e-4 0,2.25e-4 0,8.4e-5 0,1.54e-4 0,2.39e-4 0,7e-5 0,1.54e-4 0,2.24e-4 0,8.4e-5 0,1.55e-4 0,2.25e-4 0,8.4e-5 0,1.54e-4 0,2.38e-4 0,7e-5 0,1.55e-4 0,2.25e-4 0,8.4e-5 0,1.54e-4 0,2.38e-4 0,7.1e-5 0,1.55e-4 0,2.25e-4 0,8.4e-5 0,1.54e-4 0,2.25e-4 0,8.4e-5 0,1.54e-4 0,2.38e-4 0,7e-5 0,1.55e-4 0,2.25e-4 0,8.4e-5 0,1.54e-4 0,2.38e-4 0,7e-5 0,1.55e-4 0,2.25e-4 0,8.4e-5 0,1.54e-4 0,2.38e-4 0,7.1e-5 0,1.41e-4 0,2.25e-4 0,7e-5 0,1.54e-4 0,2.25e-4 0,8.4e-5 0,1.54e-4 0,2.38e-4 0,7e-5 0,1.55e-4 0,2.25e-4 0,8.4e-5 0,1.54e-4 0,2.38e-4 0,7.1e-5 0,1.41e-4 0,2.25e-4 0,7e-5 0,1.54e-4 0,2.24e-4 0,8.5e-5 0,1.55e-4 0,2.39e-4 0,7e-5 0,1.54e-4 0,2.25e-4 0,8.4e-5 0,1.54e-4 0,2.38e-4 0,7e-5 0,1.55e-4 0,2.25e-4 0,7e-5 0,1.54e-4 0,2.24e-4 0,8.5e-5 0,1.55e-4 0,2.39e-4 0,7e-5 0,1.54e-4 0,2.25e-4 0,8.4e-5 0,1.54e-4 0,2.38e-4 0,7e-5 0,1.55e-4 0,2.25e-4 0,7e-5 0,1.54e-4 0,2.24e-4 0,8.4e-5 0,1.55e-4 0,2.39e-4 0,7e-5 0,1.54e-4 0,2.24e-4 0,8.5e-5 0,1.55e-4 0,2.39e-4 0,7e-5 0,1.54e-4 0,2.25e-4 0,8.4e-5 0,1.54e-4 0,2.24e-4 0,8.4e-5 0,1.55e-4 0,2.39e-4 0,7e-5 0,1.54e-4 0,2.24e-4 0,8.4e-5 0,1.55e-4 0,2.39e-4 0,7e-5 0,1.54e-4 0,2.24e-4 0,8.5e-5 0,1.55e-4 0,2.25e-4 0,8.4e-5 0,1.54e-4 0,2.39e-4 0,7e-5 0,1.54e-4 0,2.24e-4 0,8.4e-5 0,1.55e-4 0,2.39e-4 0,7e-5 0,1.54e-4 0,2.24e-4 0,8.5e-5 0,1.55e-4 0,2.39e-4 0,7e-5 0,1.4e-4 0,2.24e-4 0,7.1e-5 0,1.55e-4 0,2.25e-4 0,8.4e-5 0,1.54e-4 0,2.39e-4 0,7e-5 0,1.54e-4 0,2.24e-4 0,8.4e-5 0,1.55e-4 0,2.39e-4 0,7e-5 0,1.4e-4 0,2.24e-4 0,7.1e-5 0,1.55e-4 0,2.25e-4 0,8.4e-5 0,1.54e-4 0,2.39e-4 0,7e-5 0,1.54e-4 0,2.24e-4 0,8.4e-5 0,1.54e-4 0,2.39e-4 0,7e-5 0,1.54e-4 0,2.24e-4 0,7e-5 0,1.55e-4 0,2.25e-4 0,8.4e-5 0,1.54e-4 0,2.38e-4 0,7.1e-5 0,1.55e-4 0,2.25e-4 0,8.4e-5 0,1.54e-4 0,2.39e-4 0,7e-5 0,1.54e-4 0,2.24e-4 0,7e-5 0,1.54e-4 0,2.25e-4 0,8.4e-5 0,1.54e-4 0,2.38e-4 0,7e-5 0,1.55e-4 0,2.25e-4 0,8.4e-5 0,1.54e-4 0,2.38e-4 0,7.1e-5 0,1.55e-4 0,2.25e-4 0,8.4e-5 0,1.54e-4 0,2.25e-4 0,8.4e-5 0,1.54e-4 0,2.38e-4 0,7e-5 0,1.55e-4 0,2.25e-4 0,8.4e-5 0,1.54e-4 0,2.38e-4 0,7e-5 0,1.55e-4 0,2.25e-4 0,8.4e-5 0,1.54e-4 0,2.24e-4 0,8.5e-5 0,1.55e-4 0,2.39e-4 0,7e-5 0,1.54e-4 0,2.25e-4 0,8.4e-5 0,1.54e-4 0,2.38e-4 0,7e-5 0,1.55e-4 0,2.25e-4 0,8.4e-5 0,1.54e-4 0,2.38e-4 0,7.1e-5 0,1.41e-4 0,2.25e-4 0,7e-5 0,1.54e-4 0,2.24e-4 0,8.5e-5 0,1.55e-4 0,2.39e-4 0,7e-5 0,1.54e-4 0,2.25e-4 0,8.4e-5 0,1.54e-4 0,2.38e-4 0,7e-5 0,1.41e-4 0,2.25e-4 0,7e-5 0,1.54e-4 0,2.24e-4 0,8.5e-5 0,1.55e-4 0,2.39e-4 0,7e-5 0,1.54e-4 0,2.24e-4 0,8.5e-5 0,1.55e-4 0,2.39e-4 0,7e-5 0,1.54e-4 0,2.25e-4 0,7e-5 0,1.54e-4 0,2.24e-4 0,8.4e-5 0,1.55e-4 0,2.39e-4 0,7e-5 0,1.54e-4 0,2.24e-4 0,8.5e-5 0,1.55e-4 0,2.39e-4 0,7e-5 0,1.54e-4 0,2.25e-4 z m -0.00111,-0.06959 C 5.1650664,7.1765233 6.4764224,5.9801289 7.9764379,6.0412237 L 8.0621079,3.937699 C 5.3553126,3.8274533 3.1128966,5.9726201 2.9883772,8.6829103 Z M 8.0213359,6.0420938 c 0.372295,-7.298e-4 0.742331,0.064968 1.093727,0.1945967 L 9.8436669,4.2615309 C 9.2584179,4.0456289 8.6403119,3.9356078 8.0172099,3.9368288 Z M 10.420229,5.7210971 C 11.205493,4.1557904 12.779951,3.2016422 14.46711,3.2348633 l 0.0414,-2.1048439 C 11.989213,1.0803913 9.6780529,2.5054872 8.5384869,4.7771243 Z m 4.112425,-2.4869776 c 2.290248,-0.097811 4.270741,1.727426 4.377267,4.1413648 l 2.10316,-0.09274 C 20.857712,3.7585831 17.943183,0.98127542 14.442829,1.1307632 Z m 4.376144,4.0958908 c 4.21e-4,0.392436 -0.05979,0.782149 -0.177824,1.154584 l 2.006738,0.636407 c 0.18372,-0.57934 0.276913,-1.184351 0.276351,-1.792787 z m 0.672141,2.514206 c 1.274668,0.1877897 2.267932,1.2948777 2.314388,2.6658267 l 2.104142,-0.0713 C 23.919749,10.089127 22.205924,8.1028513 19.887746,7.7614053 Z m 2.31495,2.5821777 c -0.07312,1.603931 -1.385265,2.800985 -2.886038,2.739371 l -0.08646,2.10358 c 2.708213,0.111158 4.951864,-2.03537 5.075513,-4.747091 z m -10.948501,0.984141 v 8.42106 h 2.105265 v -8.42106 z m 0.298947,-0.734878 -2.7368581,2.80702 1.5073841,1.469756 2.736844,-2.80702 z m 0,1.469756 2.736845,2.80702 1.50737,-1.469756 -2.736845,-2.80702 z"
     fill="#000000"
     id="path1"
     style="stroke-width:1.40351;fill:#e2e2e2;fill-opacity:1" />
</svg>
