<?xml version="1.0" encoding="UTF-8" standalone="no"?>
<!-- Uploaded to: SVG Repo, www.svgrepo.com, Generator: SVG Repo Mixer Tools -->

<svg
   width="800px"
   height="800px"
   viewBox="0 0 24 24"
   fill="none"
   version="1.1"
   id="svg2"
   sodipodi:docname="microphone.svg"
   inkscape:version="1.3 (0e150ed6c4, 2023-07-21)"
   xmlns:inkscape="http://www.inkscape.org/namespaces/inkscape"
   xmlns:sodipodi="http://sodipodi.sourceforge.net/DTD/sodipodi-0.dtd"
   xmlns="http://www.w3.org/2000/svg"
   xmlns:svg="http://www.w3.org/2000/svg">
  <defs
     id="defs2" />
  <sodipodi:namedview
     id="namedview2"
     pagecolor="#505050"
     bordercolor="#eeeeee"
     borderopacity="1"
     inkscape:showpageshadow="0"
     inkscape:pageopacity="0"
     inkscape:pagecheckerboard="0"
     inkscape:deskcolor="#505050"
     inkscape:zoom="1.00625"
     inkscape:cx="314.03727"
     inkscape:cy="413.91304"
     inkscape:window-width="1920"
     inkscape:window-height="1011"
     inkscape:window-x="0"
     inkscape:window-y="0"
     inkscape:window-maximized="1"
     inkscape:current-layer="svg2" />
  <circle
     style="fill:#ff3856;fill-opacity:1;stroke-width:0.110732;paint-order:stroke fill markers"
     id="path3"
     cx="12"
     cy="12"
     r="12" />
  <path
     fill-rule="evenodd"
     clip-rule="evenodd"
     d="M 14.18,12.459999 V 8.46 C 14.18,7.355432 13.10456,6.28 12,6.28 10.89544,6.28 9.8199999,7.355432 9.8199999,8.46 v 3.999999 c 0,1.10456 1.0754401,2.18 2.1800001,2.18 1.10456,0 2.18,-1.07544 2.18,-2.18 z M 12,4.86 c -1.988224,0 -3.6,1.611776 -3.6,3.6 v 3.999999 c 0,1.98824 1.611776,3.6 3.6,3.6 1.98824,0 3.6,-1.61176 3.6,-3.6 V 8.46 c 0,-1.988224 -1.61176,-3.6 -3.6,-3.6 z"
     fill="#0f0f0f"
     id="path1"
     style="fill:#e2e2e2;fill-opacity:1;stroke-width:0.72201;stroke-dasharray:none"
     sodipodi:nodetypes="ssssssssssssss" />
  <path
     d="M 12.000005,16.44 C 8.1,16.44 8.1,13.24 8.1,13.24 c 0,0 1.2e-5,-0.64 -0.599988,-0.64 -0.6,0 -0.600012,0.64 -0.600012,0.64 0,0 0.024084,4.120448 4.500005,4.458048 V 19.64 c 0,0.353472 0.26862,0.64 0.6,0.64 0.33138,0 0.6,-0.286528 0.6,-0.64 v -1.941952 c 4.47594,-0.3376 4.5,-4.458048 4.5,-4.458048 0,0 0,-0.64 -0.6,-0.64 -0.6,0 -0.6,0.64 -0.6,0.64 0,0 0,3.2 -3.9,3.2 z"
     fill="#0f0f0f"
     id="path2"
     style="fill:#e2e2e2;fill-opacity:1;stroke-width:0.619677"
     sodipodi:nodetypes="scsccsssccscs" />
</svg>
