<?xml version="1.0" encoding="UTF-8" standalone="no"?>
<!-- Uploaded to: SVG Repo, www.svgrepo.com, Generator: SVG Repo Mixer Tools -->

<svg
   width="800px"
   height="800px"
   viewBox="-1 0 8 8"
   version="1.1"
   id="svg1"
   sodipodi:docname="pause.svg"
   inkscape:version="1.3 (0e150ed6c4, 2023-07-21)"
   xmlns:inkscape="http://www.inkscape.org/namespaces/inkscape"
   xmlns:sodipodi="http://sodipodi.sourceforge.net/DTD/sodipodi-0.dtd"
   xmlns="http://www.w3.org/2000/svg"
   xmlns:svg="http://www.w3.org/2000/svg">
  <sodipodi:namedview
     id="namedview1"
     pagecolor="#505050"
     bordercolor="#eeeeee"
     borderopacity="1"
     inkscape:showpageshadow="0"
     inkscape:pageopacity="0"
     inkscape:pagecheckerboard="0"
     inkscape:deskcolor="#505050"
     inkscape:zoom="1.00625"
     inkscape:cx="400.49689"
     inkscape:cy="400"
     inkscape:window-width="1920"
     inkscape:window-height="1011"
     inkscape:window-x="0"
     inkscape:window-y="0"
     inkscape:window-maximized="1"
     inkscape:current-layer="svg1" />
  <title
     id="title1">pause [#1006]</title>
  <desc
     id="desc1">Created with Sketch.</desc>
  <defs
     id="defs1" />
  <circle
     style="fill:#ff3856;fill-opacity:1;stroke-width:0.0369107;paint-order:stroke fill markers"
     id="path3"
     cx="3"
     cy="4"
     r="4" />
  <path
     d="M 1.8,1.6 C 1.4688,1.6 1.2,1.8688 1.2,2.2 v 3.6 c 0,0.3312 0.2688,0.6 0.6,0.6 0.3312,0 0.6,-0.2688 0.6,-0.6 V 2.2 C 2.4,1.8688 2.1312,1.6 1.8,1.6 m 3,0.6 V 5.8 C 4.8,6.1312 4.5312,6.4 4.2,6.4 3.8688,6.4 3.6,6.1312 3.6,5.8 V 2.2 c 0,-0.3312 0.2688,-0.6 0.6,-0.6 0.3312,0 0.6,0.2688 0.6,0.6"
     id="pause-[#1006]"
     style="fill:#e2e2e2;fill-opacity:1;stroke-width:0.6" />
</svg>
